M48
; DRILL file {KiCad 8.0.1} date 2024-03-30T14:47:13+0300
; FORMAT={-:-/ absolute / inch / decimal}
; #@! TF.CreationDate,2024-03-30T14:47:13+03:00
; #@! TF.GenerationSoftware,Kicad,Pcbnew,8.0.1
; #@! TF.FileFunction,Plated,1,2,PTH
FMAT,2
INCH
; #@! TA.AperFunction,Plated,PTH,ViaDrill
T1C0.0118
; #@! TA.AperFunction,Plated,PTH,ViaDrill
T2C0.0157
; #@! TA.AperFunction,Plated,PTH,ComponentDrill
T3C0.0394
%
G90
G05
T1
X2.0709Y-5.2913
X2.2913Y-5.1496
X2.3189Y-5.1224
X2.4094Y-2.1181
X2.4094Y-2.1654
X2.4094Y-2.2126
X2.4449Y-2.1378
X2.4449Y-2.189
X2.4803Y-2.1181
X2.4803Y-2.1654
X2.4803Y-2.2126
X2.4961Y-5.0709
X2.5291Y-5.0972
X2.5974Y-5.0704
X2.815Y-5.2913
X2.9449Y-2.2008
X3.0379Y-5.1501
X3.0655Y-5.1229
X3.1299Y-2.1654
X3.2757Y-5.0977
X3.2835Y-5.2244
X3.3455Y-5.0709
X3.563Y-5.2913
X3.748Y-2.0945
X3.7874Y-5.1501
X3.815Y-5.1229
X3.8683Y-2.14
X3.878Y-2.0945
X4.0197Y-2.2953
X4.0252Y-5.0977
X4.0276Y-5.2283
X4.0787Y-2.2953
X4.0945Y-5.0709
X4.0984Y-2.2008
X4.1417Y-2.1181
X4.2185Y-2.0315
X4.311Y-5.2913
X4.4528Y-2.2165
X4.5354Y-5.1501
X4.5492Y-2.0335
X4.563Y-5.1229
X4.7441Y-2.185
X4.7732Y-5.0977
X4.7953Y-2.185
X4.8415Y-5.0709
X5.0591Y-5.2913
X5.2717Y-5.1496
X5.2913Y-2.2441
X5.2953Y-5.1229
X5.3819Y-2.0354
X5.3898Y-2.2323
X5.4173Y-2.1378
X5.4528Y-2.2441
X5.4724Y-2.1378
X5.4803Y-2.063
X5.4882Y-2.2717
X5.5213Y-5.0972
X5.6011Y-5.1626
X5.8031Y-5.2913
X5.8071Y-3.0394
T2
X2.0945Y-2.0433
T3
G00X5.8071Y-2.1031
M15
G01X5.7677Y-2.1031
M16
G05
G00X5.8071Y-2.2031
M15
G01X5.7677Y-2.2031
M16
G05
G00X5.8071Y-2.3031
M15
G01X5.7677Y-2.3031
M16
G05
G00X5.8071Y-2.4031
M15
G01X5.7677Y-2.4031
M16
G05
G00X5.8071Y-2.5031
M15
G01X5.7677Y-2.5031
M16
G05
G00X5.8071Y-2.6031
M15
G01X5.7677Y-2.6031
M16
G05
G00X5.8071Y-2.7031
M15
G01X5.7677Y-2.7031
M16
G05
G00X5.8071Y-2.8031
M15
G01X5.7677Y-2.8031
M16
G05
M30
