%TF.GenerationSoftware,KiCad,Pcbnew,8.0.1*%
%TF.CreationDate,2024-03-23T17:43:50+03:00*%
%TF.ProjectId,AudMix,4175644d-6978-42e6-9b69-6361645f7063,rev?*%
%TF.SameCoordinates,Original*%
%TF.FileFunction,Legend,Bot*%
%TF.FilePolarity,Positive*%
%FSLAX46Y46*%
G04 Gerber Fmt 4.6, Leading zero omitted, Abs format (unit mm)*
G04 Created by KiCad (PCBNEW 8.0.1) date 2024-03-23 17:43:50*
%MOMM*%
%LPD*%
G01*
G04 APERTURE LIST*
%ADD10C,0.300000*%
%ADD11C,0.150000*%
%ADD12C,0.200000*%
%ADD13C,0.120000*%
%ADD14C,0.100000*%
G04 APERTURE END LIST*
D10*
X148372257Y-81483082D02*
X148372257Y-82197368D01*
X148800828Y-81340225D02*
X147300828Y-81840225D01*
X147300828Y-81840225D02*
X148800828Y-82340225D01*
X147800828Y-83483082D02*
X148800828Y-83483082D01*
X147800828Y-82840224D02*
X148586542Y-82840224D01*
X148586542Y-82840224D02*
X148729400Y-82911653D01*
X148729400Y-82911653D02*
X148800828Y-83054510D01*
X148800828Y-83054510D02*
X148800828Y-83268796D01*
X148800828Y-83268796D02*
X148729400Y-83411653D01*
X148729400Y-83411653D02*
X148657971Y-83483082D01*
X148800828Y-84840225D02*
X147300828Y-84840225D01*
X148729400Y-84840225D02*
X148800828Y-84697367D01*
X148800828Y-84697367D02*
X148800828Y-84411653D01*
X148800828Y-84411653D02*
X148729400Y-84268796D01*
X148729400Y-84268796D02*
X148657971Y-84197367D01*
X148657971Y-84197367D02*
X148515114Y-84125939D01*
X148515114Y-84125939D02*
X148086542Y-84125939D01*
X148086542Y-84125939D02*
X147943685Y-84197367D01*
X147943685Y-84197367D02*
X147872257Y-84268796D01*
X147872257Y-84268796D02*
X147800828Y-84411653D01*
X147800828Y-84411653D02*
X147800828Y-84697367D01*
X147800828Y-84697367D02*
X147872257Y-84840225D01*
X148800828Y-85554510D02*
X147300828Y-85554510D01*
X147300828Y-85554510D02*
X148372257Y-86054510D01*
X148372257Y-86054510D02*
X147300828Y-86554510D01*
X147300828Y-86554510D02*
X148800828Y-86554510D01*
X148800828Y-87268796D02*
X147800828Y-87268796D01*
X147300828Y-87268796D02*
X147372257Y-87197368D01*
X147372257Y-87197368D02*
X147443685Y-87268796D01*
X147443685Y-87268796D02*
X147372257Y-87340225D01*
X147372257Y-87340225D02*
X147300828Y-87268796D01*
X147300828Y-87268796D02*
X147443685Y-87268796D01*
X148800828Y-87840225D02*
X147800828Y-88625940D01*
X147800828Y-87840225D02*
X148800828Y-88625940D01*
X148800828Y-90340225D02*
X147800828Y-90340225D01*
X148086542Y-90340225D02*
X147943685Y-90411654D01*
X147943685Y-90411654D02*
X147872257Y-90483083D01*
X147872257Y-90483083D02*
X147800828Y-90625940D01*
X147800828Y-90625940D02*
X147800828Y-90768797D01*
X148729400Y-91840225D02*
X148800828Y-91697368D01*
X148800828Y-91697368D02*
X148800828Y-91411654D01*
X148800828Y-91411654D02*
X148729400Y-91268796D01*
X148729400Y-91268796D02*
X148586542Y-91197368D01*
X148586542Y-91197368D02*
X148015114Y-91197368D01*
X148015114Y-91197368D02*
X147872257Y-91268796D01*
X147872257Y-91268796D02*
X147800828Y-91411654D01*
X147800828Y-91411654D02*
X147800828Y-91697368D01*
X147800828Y-91697368D02*
X147872257Y-91840225D01*
X147872257Y-91840225D02*
X148015114Y-91911654D01*
X148015114Y-91911654D02*
X148157971Y-91911654D01*
X148157971Y-91911654D02*
X148300828Y-91197368D01*
X147800828Y-92411653D02*
X148800828Y-92768796D01*
X148800828Y-92768796D02*
X147800828Y-93125939D01*
X148800828Y-95625939D02*
X148800828Y-94768796D01*
X148800828Y-95197367D02*
X147300828Y-95197367D01*
X147300828Y-95197367D02*
X147515114Y-95054510D01*
X147515114Y-95054510D02*
X147657971Y-94911653D01*
X147657971Y-94911653D02*
X147729400Y-94768796D01*
X148657971Y-96268795D02*
X148729400Y-96340224D01*
X148729400Y-96340224D02*
X148800828Y-96268795D01*
X148800828Y-96268795D02*
X148729400Y-96197367D01*
X148729400Y-96197367D02*
X148657971Y-96268795D01*
X148657971Y-96268795D02*
X148800828Y-96268795D01*
X147300828Y-97268796D02*
X147300828Y-97411653D01*
X147300828Y-97411653D02*
X147372257Y-97554510D01*
X147372257Y-97554510D02*
X147443685Y-97625939D01*
X147443685Y-97625939D02*
X147586542Y-97697367D01*
X147586542Y-97697367D02*
X147872257Y-97768796D01*
X147872257Y-97768796D02*
X148229400Y-97768796D01*
X148229400Y-97768796D02*
X148515114Y-97697367D01*
X148515114Y-97697367D02*
X148657971Y-97625939D01*
X148657971Y-97625939D02*
X148729400Y-97554510D01*
X148729400Y-97554510D02*
X148800828Y-97411653D01*
X148800828Y-97411653D02*
X148800828Y-97268796D01*
X148800828Y-97268796D02*
X148729400Y-97125939D01*
X148729400Y-97125939D02*
X148657971Y-97054510D01*
X148657971Y-97054510D02*
X148515114Y-96983081D01*
X148515114Y-96983081D02*
X148229400Y-96911653D01*
X148229400Y-96911653D02*
X147872257Y-96911653D01*
X147872257Y-96911653D02*
X147586542Y-96983081D01*
X147586542Y-96983081D02*
X147443685Y-97054510D01*
X147443685Y-97054510D02*
X147372257Y-97125939D01*
X147372257Y-97125939D02*
X147300828Y-97268796D01*
X149372257Y-99983081D02*
X149300828Y-99911652D01*
X149300828Y-99911652D02*
X149086542Y-99768795D01*
X149086542Y-99768795D02*
X148943685Y-99697367D01*
X148943685Y-99697367D02*
X148729400Y-99625938D01*
X148729400Y-99625938D02*
X148372257Y-99554509D01*
X148372257Y-99554509D02*
X148086542Y-99554509D01*
X148086542Y-99554509D02*
X147729400Y-99625938D01*
X147729400Y-99625938D02*
X147515114Y-99697367D01*
X147515114Y-99697367D02*
X147372257Y-99768795D01*
X147372257Y-99768795D02*
X147157971Y-99911652D01*
X147157971Y-99911652D02*
X147086542Y-99983081D01*
X147443685Y-100483081D02*
X147372257Y-100554509D01*
X147372257Y-100554509D02*
X147300828Y-100697367D01*
X147300828Y-100697367D02*
X147300828Y-101054509D01*
X147300828Y-101054509D02*
X147372257Y-101197367D01*
X147372257Y-101197367D02*
X147443685Y-101268795D01*
X147443685Y-101268795D02*
X147586542Y-101340224D01*
X147586542Y-101340224D02*
X147729400Y-101340224D01*
X147729400Y-101340224D02*
X147943685Y-101268795D01*
X147943685Y-101268795D02*
X148800828Y-100411652D01*
X148800828Y-100411652D02*
X148800828Y-101340224D01*
X147300828Y-102268795D02*
X147300828Y-102411652D01*
X147300828Y-102411652D02*
X147372257Y-102554509D01*
X147372257Y-102554509D02*
X147443685Y-102625938D01*
X147443685Y-102625938D02*
X147586542Y-102697366D01*
X147586542Y-102697366D02*
X147872257Y-102768795D01*
X147872257Y-102768795D02*
X148229400Y-102768795D01*
X148229400Y-102768795D02*
X148515114Y-102697366D01*
X148515114Y-102697366D02*
X148657971Y-102625938D01*
X148657971Y-102625938D02*
X148729400Y-102554509D01*
X148729400Y-102554509D02*
X148800828Y-102411652D01*
X148800828Y-102411652D02*
X148800828Y-102268795D01*
X148800828Y-102268795D02*
X148729400Y-102125938D01*
X148729400Y-102125938D02*
X148657971Y-102054509D01*
X148657971Y-102054509D02*
X148515114Y-101983080D01*
X148515114Y-101983080D02*
X148229400Y-101911652D01*
X148229400Y-101911652D02*
X147872257Y-101911652D01*
X147872257Y-101911652D02*
X147586542Y-101983080D01*
X147586542Y-101983080D02*
X147443685Y-102054509D01*
X147443685Y-102054509D02*
X147372257Y-102125938D01*
X147372257Y-102125938D02*
X147300828Y-102268795D01*
X147443685Y-103340223D02*
X147372257Y-103411651D01*
X147372257Y-103411651D02*
X147300828Y-103554509D01*
X147300828Y-103554509D02*
X147300828Y-103911651D01*
X147300828Y-103911651D02*
X147372257Y-104054509D01*
X147372257Y-104054509D02*
X147443685Y-104125937D01*
X147443685Y-104125937D02*
X147586542Y-104197366D01*
X147586542Y-104197366D02*
X147729400Y-104197366D01*
X147729400Y-104197366D02*
X147943685Y-104125937D01*
X147943685Y-104125937D02*
X148800828Y-103268794D01*
X148800828Y-103268794D02*
X148800828Y-104197366D01*
X147800828Y-105483080D02*
X148800828Y-105483080D01*
X147229400Y-105125937D02*
X148300828Y-104768794D01*
X148300828Y-104768794D02*
X148300828Y-105697365D01*
X149372257Y-106125936D02*
X149300828Y-106197365D01*
X149300828Y-106197365D02*
X149086542Y-106340222D01*
X149086542Y-106340222D02*
X148943685Y-106411651D01*
X148943685Y-106411651D02*
X148729400Y-106483079D01*
X148729400Y-106483079D02*
X148372257Y-106554508D01*
X148372257Y-106554508D02*
X148086542Y-106554508D01*
X148086542Y-106554508D02*
X147729400Y-106483079D01*
X147729400Y-106483079D02*
X147515114Y-106411651D01*
X147515114Y-106411651D02*
X147372257Y-106340222D01*
X147372257Y-106340222D02*
X147157971Y-106197365D01*
X147157971Y-106197365D02*
X147086542Y-106125936D01*
D11*
X129859580Y-126957142D02*
X129907200Y-126909523D01*
X129907200Y-126909523D02*
X129954819Y-126766666D01*
X129954819Y-126766666D02*
X129954819Y-126671428D01*
X129954819Y-126671428D02*
X129907200Y-126528571D01*
X129907200Y-126528571D02*
X129811961Y-126433333D01*
X129811961Y-126433333D02*
X129716723Y-126385714D01*
X129716723Y-126385714D02*
X129526247Y-126338095D01*
X129526247Y-126338095D02*
X129383390Y-126338095D01*
X129383390Y-126338095D02*
X129192914Y-126385714D01*
X129192914Y-126385714D02*
X129097676Y-126433333D01*
X129097676Y-126433333D02*
X129002438Y-126528571D01*
X129002438Y-126528571D02*
X128954819Y-126671428D01*
X128954819Y-126671428D02*
X128954819Y-126766666D01*
X128954819Y-126766666D02*
X129002438Y-126909523D01*
X129002438Y-126909523D02*
X129050057Y-126957142D01*
X128954819Y-127290476D02*
X128954819Y-127909523D01*
X128954819Y-127909523D02*
X129335771Y-127576190D01*
X129335771Y-127576190D02*
X129335771Y-127719047D01*
X129335771Y-127719047D02*
X129383390Y-127814285D01*
X129383390Y-127814285D02*
X129431009Y-127861904D01*
X129431009Y-127861904D02*
X129526247Y-127909523D01*
X129526247Y-127909523D02*
X129764342Y-127909523D01*
X129764342Y-127909523D02*
X129859580Y-127861904D01*
X129859580Y-127861904D02*
X129907200Y-127814285D01*
X129907200Y-127814285D02*
X129954819Y-127719047D01*
X129954819Y-127719047D02*
X129954819Y-127433333D01*
X129954819Y-127433333D02*
X129907200Y-127338095D01*
X129907200Y-127338095D02*
X129859580Y-127290476D01*
X129383390Y-128480952D02*
X129335771Y-128385714D01*
X129335771Y-128385714D02*
X129288152Y-128338095D01*
X129288152Y-128338095D02*
X129192914Y-128290476D01*
X129192914Y-128290476D02*
X129145295Y-128290476D01*
X129145295Y-128290476D02*
X129050057Y-128338095D01*
X129050057Y-128338095D02*
X129002438Y-128385714D01*
X129002438Y-128385714D02*
X128954819Y-128480952D01*
X128954819Y-128480952D02*
X128954819Y-128671428D01*
X128954819Y-128671428D02*
X129002438Y-128766666D01*
X129002438Y-128766666D02*
X129050057Y-128814285D01*
X129050057Y-128814285D02*
X129145295Y-128861904D01*
X129145295Y-128861904D02*
X129192914Y-128861904D01*
X129192914Y-128861904D02*
X129288152Y-128814285D01*
X129288152Y-128814285D02*
X129335771Y-128766666D01*
X129335771Y-128766666D02*
X129383390Y-128671428D01*
X129383390Y-128671428D02*
X129383390Y-128480952D01*
X129383390Y-128480952D02*
X129431009Y-128385714D01*
X129431009Y-128385714D02*
X129478628Y-128338095D01*
X129478628Y-128338095D02*
X129573866Y-128290476D01*
X129573866Y-128290476D02*
X129764342Y-128290476D01*
X129764342Y-128290476D02*
X129859580Y-128338095D01*
X129859580Y-128338095D02*
X129907200Y-128385714D01*
X129907200Y-128385714D02*
X129954819Y-128480952D01*
X129954819Y-128480952D02*
X129954819Y-128671428D01*
X129954819Y-128671428D02*
X129907200Y-128766666D01*
X129907200Y-128766666D02*
X129859580Y-128814285D01*
X129859580Y-128814285D02*
X129764342Y-128861904D01*
X129764342Y-128861904D02*
X129573866Y-128861904D01*
X129573866Y-128861904D02*
X129478628Y-128814285D01*
X129478628Y-128814285D02*
X129431009Y-128766666D01*
X129431009Y-128766666D02*
X129383390Y-128671428D01*
X135854819Y-127649999D02*
X135378628Y-127416666D01*
X135854819Y-127249999D02*
X134854819Y-127249999D01*
X134854819Y-127249999D02*
X134854819Y-127516666D01*
X134854819Y-127516666D02*
X134902438Y-127583333D01*
X134902438Y-127583333D02*
X134950057Y-127616666D01*
X134950057Y-127616666D02*
X135045295Y-127649999D01*
X135045295Y-127649999D02*
X135188152Y-127649999D01*
X135188152Y-127649999D02*
X135283390Y-127616666D01*
X135283390Y-127616666D02*
X135331009Y-127583333D01*
X135331009Y-127583333D02*
X135378628Y-127516666D01*
X135378628Y-127516666D02*
X135378628Y-127249999D01*
X134950057Y-127916666D02*
X134902438Y-127949999D01*
X134902438Y-127949999D02*
X134854819Y-128016666D01*
X134854819Y-128016666D02*
X134854819Y-128183333D01*
X134854819Y-128183333D02*
X134902438Y-128249999D01*
X134902438Y-128249999D02*
X134950057Y-128283333D01*
X134950057Y-128283333D02*
X135045295Y-128316666D01*
X135045295Y-128316666D02*
X135140533Y-128316666D01*
X135140533Y-128316666D02*
X135283390Y-128283333D01*
X135283390Y-128283333D02*
X135854819Y-127883333D01*
X135854819Y-127883333D02*
X135854819Y-128316666D01*
X134854819Y-128950000D02*
X134854819Y-128616666D01*
X134854819Y-128616666D02*
X135331009Y-128583333D01*
X135331009Y-128583333D02*
X135283390Y-128616666D01*
X135283390Y-128616666D02*
X135235771Y-128683333D01*
X135235771Y-128683333D02*
X135235771Y-128850000D01*
X135235771Y-128850000D02*
X135283390Y-128916666D01*
X135283390Y-128916666D02*
X135331009Y-128950000D01*
X135331009Y-128950000D02*
X135426247Y-128983333D01*
X135426247Y-128983333D02*
X135664342Y-128983333D01*
X135664342Y-128983333D02*
X135759580Y-128950000D01*
X135759580Y-128950000D02*
X135807200Y-128916666D01*
X135807200Y-128916666D02*
X135854819Y-128850000D01*
X135854819Y-128850000D02*
X135854819Y-128683333D01*
X135854819Y-128683333D02*
X135807200Y-128616666D01*
X135807200Y-128616666D02*
X135759580Y-128583333D01*
X120954819Y-127649999D02*
X120478628Y-127416666D01*
X120954819Y-127249999D02*
X119954819Y-127249999D01*
X119954819Y-127249999D02*
X119954819Y-127516666D01*
X119954819Y-127516666D02*
X120002438Y-127583333D01*
X120002438Y-127583333D02*
X120050057Y-127616666D01*
X120050057Y-127616666D02*
X120145295Y-127649999D01*
X120145295Y-127649999D02*
X120288152Y-127649999D01*
X120288152Y-127649999D02*
X120383390Y-127616666D01*
X120383390Y-127616666D02*
X120431009Y-127583333D01*
X120431009Y-127583333D02*
X120478628Y-127516666D01*
X120478628Y-127516666D02*
X120478628Y-127249999D01*
X120954819Y-128316666D02*
X120954819Y-127916666D01*
X120954819Y-128116666D02*
X119954819Y-128116666D01*
X119954819Y-128116666D02*
X120097676Y-128049999D01*
X120097676Y-128049999D02*
X120192914Y-127983333D01*
X120192914Y-127983333D02*
X120240533Y-127916666D01*
X119954819Y-128550000D02*
X119954819Y-129016666D01*
X119954819Y-129016666D02*
X120954819Y-128716666D01*
X100189580Y-127649999D02*
X100237200Y-127616666D01*
X100237200Y-127616666D02*
X100284819Y-127516666D01*
X100284819Y-127516666D02*
X100284819Y-127449999D01*
X100284819Y-127449999D02*
X100237200Y-127349999D01*
X100237200Y-127349999D02*
X100141961Y-127283333D01*
X100141961Y-127283333D02*
X100046723Y-127249999D01*
X100046723Y-127249999D02*
X99856247Y-127216666D01*
X99856247Y-127216666D02*
X99713390Y-127216666D01*
X99713390Y-127216666D02*
X99522914Y-127249999D01*
X99522914Y-127249999D02*
X99427676Y-127283333D01*
X99427676Y-127283333D02*
X99332438Y-127349999D01*
X99332438Y-127349999D02*
X99284819Y-127449999D01*
X99284819Y-127449999D02*
X99284819Y-127516666D01*
X99284819Y-127516666D02*
X99332438Y-127616666D01*
X99332438Y-127616666D02*
X99380057Y-127649999D01*
X99380057Y-127916666D02*
X99332438Y-127949999D01*
X99332438Y-127949999D02*
X99284819Y-128016666D01*
X99284819Y-128016666D02*
X99284819Y-128183333D01*
X99284819Y-128183333D02*
X99332438Y-128249999D01*
X99332438Y-128249999D02*
X99380057Y-128283333D01*
X99380057Y-128283333D02*
X99475295Y-128316666D01*
X99475295Y-128316666D02*
X99570533Y-128316666D01*
X99570533Y-128316666D02*
X99713390Y-128283333D01*
X99713390Y-128283333D02*
X100284819Y-127883333D01*
X100284819Y-127883333D02*
X100284819Y-128316666D01*
X99284819Y-128550000D02*
X99284819Y-129016666D01*
X99284819Y-129016666D02*
X100284819Y-128716666D01*
X141354819Y-57633333D02*
X140878628Y-57300000D01*
X141354819Y-57061905D02*
X140354819Y-57061905D01*
X140354819Y-57061905D02*
X140354819Y-57442857D01*
X140354819Y-57442857D02*
X140402438Y-57538095D01*
X140402438Y-57538095D02*
X140450057Y-57585714D01*
X140450057Y-57585714D02*
X140545295Y-57633333D01*
X140545295Y-57633333D02*
X140688152Y-57633333D01*
X140688152Y-57633333D02*
X140783390Y-57585714D01*
X140783390Y-57585714D02*
X140831009Y-57538095D01*
X140831009Y-57538095D02*
X140878628Y-57442857D01*
X140878628Y-57442857D02*
X140878628Y-57061905D01*
X141354819Y-58109524D02*
X141354819Y-58300000D01*
X141354819Y-58300000D02*
X141307200Y-58395238D01*
X141307200Y-58395238D02*
X141259580Y-58442857D01*
X141259580Y-58442857D02*
X141116723Y-58538095D01*
X141116723Y-58538095D02*
X140926247Y-58585714D01*
X140926247Y-58585714D02*
X140545295Y-58585714D01*
X140545295Y-58585714D02*
X140450057Y-58538095D01*
X140450057Y-58538095D02*
X140402438Y-58490476D01*
X140402438Y-58490476D02*
X140354819Y-58395238D01*
X140354819Y-58395238D02*
X140354819Y-58204762D01*
X140354819Y-58204762D02*
X140402438Y-58109524D01*
X140402438Y-58109524D02*
X140450057Y-58061905D01*
X140450057Y-58061905D02*
X140545295Y-58014286D01*
X140545295Y-58014286D02*
X140783390Y-58014286D01*
X140783390Y-58014286D02*
X140878628Y-58061905D01*
X140878628Y-58061905D02*
X140926247Y-58109524D01*
X140926247Y-58109524D02*
X140973866Y-58204762D01*
X140973866Y-58204762D02*
X140973866Y-58395238D01*
X140973866Y-58395238D02*
X140926247Y-58490476D01*
X140926247Y-58490476D02*
X140878628Y-58538095D01*
X140878628Y-58538095D02*
X140783390Y-58585714D01*
X116466666Y-57854819D02*
X116799999Y-57378628D01*
X117038094Y-57854819D02*
X117038094Y-56854819D01*
X117038094Y-56854819D02*
X116657142Y-56854819D01*
X116657142Y-56854819D02*
X116561904Y-56902438D01*
X116561904Y-56902438D02*
X116514285Y-56950057D01*
X116514285Y-56950057D02*
X116466666Y-57045295D01*
X116466666Y-57045295D02*
X116466666Y-57188152D01*
X116466666Y-57188152D02*
X116514285Y-57283390D01*
X116514285Y-57283390D02*
X116561904Y-57331009D01*
X116561904Y-57331009D02*
X116657142Y-57378628D01*
X116657142Y-57378628D02*
X117038094Y-57378628D01*
X115561904Y-56854819D02*
X116038094Y-56854819D01*
X116038094Y-56854819D02*
X116085713Y-57331009D01*
X116085713Y-57331009D02*
X116038094Y-57283390D01*
X116038094Y-57283390D02*
X115942856Y-57235771D01*
X115942856Y-57235771D02*
X115704761Y-57235771D01*
X115704761Y-57235771D02*
X115609523Y-57283390D01*
X115609523Y-57283390D02*
X115561904Y-57331009D01*
X115561904Y-57331009D02*
X115514285Y-57426247D01*
X115514285Y-57426247D02*
X115514285Y-57664342D01*
X115514285Y-57664342D02*
X115561904Y-57759580D01*
X115561904Y-57759580D02*
X115609523Y-57807200D01*
X115609523Y-57807200D02*
X115704761Y-57854819D01*
X115704761Y-57854819D02*
X115942856Y-57854819D01*
X115942856Y-57854819D02*
X116038094Y-57807200D01*
X116038094Y-57807200D02*
X116085713Y-57759580D01*
X103559580Y-127649999D02*
X103607200Y-127616666D01*
X103607200Y-127616666D02*
X103654819Y-127516666D01*
X103654819Y-127516666D02*
X103654819Y-127449999D01*
X103654819Y-127449999D02*
X103607200Y-127349999D01*
X103607200Y-127349999D02*
X103511961Y-127283333D01*
X103511961Y-127283333D02*
X103416723Y-127249999D01*
X103416723Y-127249999D02*
X103226247Y-127216666D01*
X103226247Y-127216666D02*
X103083390Y-127216666D01*
X103083390Y-127216666D02*
X102892914Y-127249999D01*
X102892914Y-127249999D02*
X102797676Y-127283333D01*
X102797676Y-127283333D02*
X102702438Y-127349999D01*
X102702438Y-127349999D02*
X102654819Y-127449999D01*
X102654819Y-127449999D02*
X102654819Y-127516666D01*
X102654819Y-127516666D02*
X102702438Y-127616666D01*
X102702438Y-127616666D02*
X102750057Y-127649999D01*
X102750057Y-127916666D02*
X102702438Y-127949999D01*
X102702438Y-127949999D02*
X102654819Y-128016666D01*
X102654819Y-128016666D02*
X102654819Y-128183333D01*
X102654819Y-128183333D02*
X102702438Y-128249999D01*
X102702438Y-128249999D02*
X102750057Y-128283333D01*
X102750057Y-128283333D02*
X102845295Y-128316666D01*
X102845295Y-128316666D02*
X102940533Y-128316666D01*
X102940533Y-128316666D02*
X103083390Y-128283333D01*
X103083390Y-128283333D02*
X103654819Y-127883333D01*
X103654819Y-127883333D02*
X103654819Y-128316666D01*
X102654819Y-128950000D02*
X102654819Y-128616666D01*
X102654819Y-128616666D02*
X103131009Y-128583333D01*
X103131009Y-128583333D02*
X103083390Y-128616666D01*
X103083390Y-128616666D02*
X103035771Y-128683333D01*
X103035771Y-128683333D02*
X103035771Y-128850000D01*
X103035771Y-128850000D02*
X103083390Y-128916666D01*
X103083390Y-128916666D02*
X103131009Y-128950000D01*
X103131009Y-128950000D02*
X103226247Y-128983333D01*
X103226247Y-128983333D02*
X103464342Y-128983333D01*
X103464342Y-128983333D02*
X103559580Y-128950000D01*
X103559580Y-128950000D02*
X103607200Y-128916666D01*
X103607200Y-128916666D02*
X103654819Y-128850000D01*
X103654819Y-128850000D02*
X103654819Y-128683333D01*
X103654819Y-128683333D02*
X103607200Y-128616666D01*
X103607200Y-128616666D02*
X103559580Y-128583333D01*
X89459580Y-126882142D02*
X89507200Y-126834523D01*
X89507200Y-126834523D02*
X89554819Y-126691666D01*
X89554819Y-126691666D02*
X89554819Y-126596428D01*
X89554819Y-126596428D02*
X89507200Y-126453571D01*
X89507200Y-126453571D02*
X89411961Y-126358333D01*
X89411961Y-126358333D02*
X89316723Y-126310714D01*
X89316723Y-126310714D02*
X89126247Y-126263095D01*
X89126247Y-126263095D02*
X88983390Y-126263095D01*
X88983390Y-126263095D02*
X88792914Y-126310714D01*
X88792914Y-126310714D02*
X88697676Y-126358333D01*
X88697676Y-126358333D02*
X88602438Y-126453571D01*
X88602438Y-126453571D02*
X88554819Y-126596428D01*
X88554819Y-126596428D02*
X88554819Y-126691666D01*
X88554819Y-126691666D02*
X88602438Y-126834523D01*
X88602438Y-126834523D02*
X88650057Y-126882142D01*
X89554819Y-127834523D02*
X89554819Y-127263095D01*
X89554819Y-127548809D02*
X88554819Y-127548809D01*
X88554819Y-127548809D02*
X88697676Y-127453571D01*
X88697676Y-127453571D02*
X88792914Y-127358333D01*
X88792914Y-127358333D02*
X88840533Y-127263095D01*
X88554819Y-128691666D02*
X88554819Y-128501190D01*
X88554819Y-128501190D02*
X88602438Y-128405952D01*
X88602438Y-128405952D02*
X88650057Y-128358333D01*
X88650057Y-128358333D02*
X88792914Y-128263095D01*
X88792914Y-128263095D02*
X88983390Y-128215476D01*
X88983390Y-128215476D02*
X89364342Y-128215476D01*
X89364342Y-128215476D02*
X89459580Y-128263095D01*
X89459580Y-128263095D02*
X89507200Y-128310714D01*
X89507200Y-128310714D02*
X89554819Y-128405952D01*
X89554819Y-128405952D02*
X89554819Y-128596428D01*
X89554819Y-128596428D02*
X89507200Y-128691666D01*
X89507200Y-128691666D02*
X89459580Y-128739285D01*
X89459580Y-128739285D02*
X89364342Y-128786904D01*
X89364342Y-128786904D02*
X89126247Y-128786904D01*
X89126247Y-128786904D02*
X89031009Y-128739285D01*
X89031009Y-128739285D02*
X88983390Y-128691666D01*
X88983390Y-128691666D02*
X88935771Y-128596428D01*
X88935771Y-128596428D02*
X88935771Y-128405952D01*
X88935771Y-128405952D02*
X88983390Y-128310714D01*
X88983390Y-128310714D02*
X89031009Y-128263095D01*
X89031009Y-128263095D02*
X89126247Y-128215476D01*
X124259580Y-127674999D02*
X124307200Y-127641666D01*
X124307200Y-127641666D02*
X124354819Y-127541666D01*
X124354819Y-127541666D02*
X124354819Y-127474999D01*
X124354819Y-127474999D02*
X124307200Y-127374999D01*
X124307200Y-127374999D02*
X124211961Y-127308333D01*
X124211961Y-127308333D02*
X124116723Y-127274999D01*
X124116723Y-127274999D02*
X123926247Y-127241666D01*
X123926247Y-127241666D02*
X123783390Y-127241666D01*
X123783390Y-127241666D02*
X123592914Y-127274999D01*
X123592914Y-127274999D02*
X123497676Y-127308333D01*
X123497676Y-127308333D02*
X123402438Y-127374999D01*
X123402438Y-127374999D02*
X123354819Y-127474999D01*
X123354819Y-127474999D02*
X123354819Y-127541666D01*
X123354819Y-127541666D02*
X123402438Y-127641666D01*
X123402438Y-127641666D02*
X123450057Y-127674999D01*
X124354819Y-128341666D02*
X124354819Y-127941666D01*
X124354819Y-128141666D02*
X123354819Y-128141666D01*
X123354819Y-128141666D02*
X123497676Y-128074999D01*
X123497676Y-128074999D02*
X123592914Y-128008333D01*
X123592914Y-128008333D02*
X123640533Y-127941666D01*
X124354819Y-128675000D02*
X124354819Y-128808333D01*
X124354819Y-128808333D02*
X124307200Y-128875000D01*
X124307200Y-128875000D02*
X124259580Y-128908333D01*
X124259580Y-128908333D02*
X124116723Y-128975000D01*
X124116723Y-128975000D02*
X123926247Y-129008333D01*
X123926247Y-129008333D02*
X123545295Y-129008333D01*
X123545295Y-129008333D02*
X123450057Y-128975000D01*
X123450057Y-128975000D02*
X123402438Y-128941666D01*
X123402438Y-128941666D02*
X123354819Y-128875000D01*
X123354819Y-128875000D02*
X123354819Y-128741666D01*
X123354819Y-128741666D02*
X123402438Y-128675000D01*
X123402438Y-128675000D02*
X123450057Y-128641666D01*
X123450057Y-128641666D02*
X123545295Y-128608333D01*
X123545295Y-128608333D02*
X123783390Y-128608333D01*
X123783390Y-128608333D02*
X123878628Y-128641666D01*
X123878628Y-128641666D02*
X123926247Y-128675000D01*
X123926247Y-128675000D02*
X123973866Y-128741666D01*
X123973866Y-128741666D02*
X123973866Y-128875000D01*
X123973866Y-128875000D02*
X123926247Y-128941666D01*
X123926247Y-128941666D02*
X123878628Y-128975000D01*
X123878628Y-128975000D02*
X123783390Y-129008333D01*
X63854819Y-127749999D02*
X63378628Y-127516666D01*
X63854819Y-127349999D02*
X62854819Y-127349999D01*
X62854819Y-127349999D02*
X62854819Y-127616666D01*
X62854819Y-127616666D02*
X62902438Y-127683333D01*
X62902438Y-127683333D02*
X62950057Y-127716666D01*
X62950057Y-127716666D02*
X63045295Y-127749999D01*
X63045295Y-127749999D02*
X63188152Y-127749999D01*
X63188152Y-127749999D02*
X63283390Y-127716666D01*
X63283390Y-127716666D02*
X63331009Y-127683333D01*
X63331009Y-127683333D02*
X63378628Y-127616666D01*
X63378628Y-127616666D02*
X63378628Y-127349999D01*
X63854819Y-128416666D02*
X63854819Y-128016666D01*
X63854819Y-128216666D02*
X62854819Y-128216666D01*
X62854819Y-128216666D02*
X62997676Y-128149999D01*
X62997676Y-128149999D02*
X63092914Y-128083333D01*
X63092914Y-128083333D02*
X63140533Y-128016666D01*
X63854819Y-129083333D02*
X63854819Y-128683333D01*
X63854819Y-128883333D02*
X62854819Y-128883333D01*
X62854819Y-128883333D02*
X62997676Y-128816666D01*
X62997676Y-128816666D02*
X63092914Y-128750000D01*
X63092914Y-128750000D02*
X63140533Y-128683333D01*
X127459580Y-126882142D02*
X127507200Y-126834523D01*
X127507200Y-126834523D02*
X127554819Y-126691666D01*
X127554819Y-126691666D02*
X127554819Y-126596428D01*
X127554819Y-126596428D02*
X127507200Y-126453571D01*
X127507200Y-126453571D02*
X127411961Y-126358333D01*
X127411961Y-126358333D02*
X127316723Y-126310714D01*
X127316723Y-126310714D02*
X127126247Y-126263095D01*
X127126247Y-126263095D02*
X126983390Y-126263095D01*
X126983390Y-126263095D02*
X126792914Y-126310714D01*
X126792914Y-126310714D02*
X126697676Y-126358333D01*
X126697676Y-126358333D02*
X126602438Y-126453571D01*
X126602438Y-126453571D02*
X126554819Y-126596428D01*
X126554819Y-126596428D02*
X126554819Y-126691666D01*
X126554819Y-126691666D02*
X126602438Y-126834523D01*
X126602438Y-126834523D02*
X126650057Y-126882142D01*
X126650057Y-127263095D02*
X126602438Y-127310714D01*
X126602438Y-127310714D02*
X126554819Y-127405952D01*
X126554819Y-127405952D02*
X126554819Y-127644047D01*
X126554819Y-127644047D02*
X126602438Y-127739285D01*
X126602438Y-127739285D02*
X126650057Y-127786904D01*
X126650057Y-127786904D02*
X126745295Y-127834523D01*
X126745295Y-127834523D02*
X126840533Y-127834523D01*
X126840533Y-127834523D02*
X126983390Y-127786904D01*
X126983390Y-127786904D02*
X127554819Y-127215476D01*
X127554819Y-127215476D02*
X127554819Y-127834523D01*
X126554819Y-128167857D02*
X126554819Y-128786904D01*
X126554819Y-128786904D02*
X126935771Y-128453571D01*
X126935771Y-128453571D02*
X126935771Y-128596428D01*
X126935771Y-128596428D02*
X126983390Y-128691666D01*
X126983390Y-128691666D02*
X127031009Y-128739285D01*
X127031009Y-128739285D02*
X127126247Y-128786904D01*
X127126247Y-128786904D02*
X127364342Y-128786904D01*
X127364342Y-128786904D02*
X127459580Y-128739285D01*
X127459580Y-128739285D02*
X127507200Y-128691666D01*
X127507200Y-128691666D02*
X127554819Y-128596428D01*
X127554819Y-128596428D02*
X127554819Y-128310714D01*
X127554819Y-128310714D02*
X127507200Y-128215476D01*
X127507200Y-128215476D02*
X127459580Y-128167857D01*
X98554819Y-127649999D02*
X98078628Y-127416666D01*
X98554819Y-127249999D02*
X97554819Y-127249999D01*
X97554819Y-127249999D02*
X97554819Y-127516666D01*
X97554819Y-127516666D02*
X97602438Y-127583333D01*
X97602438Y-127583333D02*
X97650057Y-127616666D01*
X97650057Y-127616666D02*
X97745295Y-127649999D01*
X97745295Y-127649999D02*
X97888152Y-127649999D01*
X97888152Y-127649999D02*
X97983390Y-127616666D01*
X97983390Y-127616666D02*
X98031009Y-127583333D01*
X98031009Y-127583333D02*
X98078628Y-127516666D01*
X98078628Y-127516666D02*
X98078628Y-127249999D01*
X97650057Y-127916666D02*
X97602438Y-127949999D01*
X97602438Y-127949999D02*
X97554819Y-128016666D01*
X97554819Y-128016666D02*
X97554819Y-128183333D01*
X97554819Y-128183333D02*
X97602438Y-128249999D01*
X97602438Y-128249999D02*
X97650057Y-128283333D01*
X97650057Y-128283333D02*
X97745295Y-128316666D01*
X97745295Y-128316666D02*
X97840533Y-128316666D01*
X97840533Y-128316666D02*
X97983390Y-128283333D01*
X97983390Y-128283333D02*
X98554819Y-127883333D01*
X98554819Y-127883333D02*
X98554819Y-128316666D01*
X97650057Y-128583333D02*
X97602438Y-128616666D01*
X97602438Y-128616666D02*
X97554819Y-128683333D01*
X97554819Y-128683333D02*
X97554819Y-128850000D01*
X97554819Y-128850000D02*
X97602438Y-128916666D01*
X97602438Y-128916666D02*
X97650057Y-128950000D01*
X97650057Y-128950000D02*
X97745295Y-128983333D01*
X97745295Y-128983333D02*
X97840533Y-128983333D01*
X97840533Y-128983333D02*
X97983390Y-128950000D01*
X97983390Y-128950000D02*
X98554819Y-128550000D01*
X98554819Y-128550000D02*
X98554819Y-128983333D01*
X117554819Y-127649999D02*
X117078628Y-127416666D01*
X117554819Y-127249999D02*
X116554819Y-127249999D01*
X116554819Y-127249999D02*
X116554819Y-127516666D01*
X116554819Y-127516666D02*
X116602438Y-127583333D01*
X116602438Y-127583333D02*
X116650057Y-127616666D01*
X116650057Y-127616666D02*
X116745295Y-127649999D01*
X116745295Y-127649999D02*
X116888152Y-127649999D01*
X116888152Y-127649999D02*
X116983390Y-127616666D01*
X116983390Y-127616666D02*
X117031009Y-127583333D01*
X117031009Y-127583333D02*
X117078628Y-127516666D01*
X117078628Y-127516666D02*
X117078628Y-127249999D01*
X117554819Y-128316666D02*
X117554819Y-127916666D01*
X117554819Y-128116666D02*
X116554819Y-128116666D01*
X116554819Y-128116666D02*
X116697676Y-128049999D01*
X116697676Y-128049999D02*
X116792914Y-127983333D01*
X116792914Y-127983333D02*
X116840533Y-127916666D01*
X117554819Y-128650000D02*
X117554819Y-128783333D01*
X117554819Y-128783333D02*
X117507200Y-128850000D01*
X117507200Y-128850000D02*
X117459580Y-128883333D01*
X117459580Y-128883333D02*
X117316723Y-128950000D01*
X117316723Y-128950000D02*
X117126247Y-128983333D01*
X117126247Y-128983333D02*
X116745295Y-128983333D01*
X116745295Y-128983333D02*
X116650057Y-128950000D01*
X116650057Y-128950000D02*
X116602438Y-128916666D01*
X116602438Y-128916666D02*
X116554819Y-128850000D01*
X116554819Y-128850000D02*
X116554819Y-128716666D01*
X116554819Y-128716666D02*
X116602438Y-128650000D01*
X116602438Y-128650000D02*
X116650057Y-128616666D01*
X116650057Y-128616666D02*
X116745295Y-128583333D01*
X116745295Y-128583333D02*
X116983390Y-128583333D01*
X116983390Y-128583333D02*
X117078628Y-128616666D01*
X117078628Y-128616666D02*
X117126247Y-128650000D01*
X117126247Y-128650000D02*
X117173866Y-128716666D01*
X117173866Y-128716666D02*
X117173866Y-128850000D01*
X117173866Y-128850000D02*
X117126247Y-128916666D01*
X117126247Y-128916666D02*
X117078628Y-128950000D01*
X117078628Y-128950000D02*
X116983390Y-128983333D01*
X73561904Y-55854819D02*
X73561904Y-56664342D01*
X73561904Y-56664342D02*
X73514285Y-56759580D01*
X73514285Y-56759580D02*
X73466666Y-56807200D01*
X73466666Y-56807200D02*
X73371428Y-56854819D01*
X73371428Y-56854819D02*
X73180952Y-56854819D01*
X73180952Y-56854819D02*
X73085714Y-56807200D01*
X73085714Y-56807200D02*
X73038095Y-56759580D01*
X73038095Y-56759580D02*
X72990476Y-56664342D01*
X72990476Y-56664342D02*
X72990476Y-55854819D01*
X72085714Y-56188152D02*
X72085714Y-56854819D01*
X72323809Y-55807200D02*
X72561904Y-56521485D01*
X72561904Y-56521485D02*
X71942857Y-56521485D01*
X62861904Y-57954819D02*
X62861904Y-58764342D01*
X62861904Y-58764342D02*
X62814285Y-58859580D01*
X62814285Y-58859580D02*
X62766666Y-58907200D01*
X62766666Y-58907200D02*
X62671428Y-58954819D01*
X62671428Y-58954819D02*
X62480952Y-58954819D01*
X62480952Y-58954819D02*
X62385714Y-58907200D01*
X62385714Y-58907200D02*
X62338095Y-58859580D01*
X62338095Y-58859580D02*
X62290476Y-58764342D01*
X62290476Y-58764342D02*
X62290476Y-57954819D01*
X61861904Y-58050057D02*
X61814285Y-58002438D01*
X61814285Y-58002438D02*
X61719047Y-57954819D01*
X61719047Y-57954819D02*
X61480952Y-57954819D01*
X61480952Y-57954819D02*
X61385714Y-58002438D01*
X61385714Y-58002438D02*
X61338095Y-58050057D01*
X61338095Y-58050057D02*
X61290476Y-58145295D01*
X61290476Y-58145295D02*
X61290476Y-58240533D01*
X61290476Y-58240533D02*
X61338095Y-58383390D01*
X61338095Y-58383390D02*
X61909523Y-58954819D01*
X61909523Y-58954819D02*
X61290476Y-58954819D01*
X81189580Y-127649999D02*
X81237200Y-127616666D01*
X81237200Y-127616666D02*
X81284819Y-127516666D01*
X81284819Y-127516666D02*
X81284819Y-127449999D01*
X81284819Y-127449999D02*
X81237200Y-127349999D01*
X81237200Y-127349999D02*
X81141961Y-127283333D01*
X81141961Y-127283333D02*
X81046723Y-127249999D01*
X81046723Y-127249999D02*
X80856247Y-127216666D01*
X80856247Y-127216666D02*
X80713390Y-127216666D01*
X80713390Y-127216666D02*
X80522914Y-127249999D01*
X80522914Y-127249999D02*
X80427676Y-127283333D01*
X80427676Y-127283333D02*
X80332438Y-127349999D01*
X80332438Y-127349999D02*
X80284819Y-127449999D01*
X80284819Y-127449999D02*
X80284819Y-127516666D01*
X80284819Y-127516666D02*
X80332438Y-127616666D01*
X80332438Y-127616666D02*
X80380057Y-127649999D01*
X81284819Y-128316666D02*
X81284819Y-127916666D01*
X81284819Y-128116666D02*
X80284819Y-128116666D01*
X80284819Y-128116666D02*
X80427676Y-128049999D01*
X80427676Y-128049999D02*
X80522914Y-127983333D01*
X80522914Y-127983333D02*
X80570533Y-127916666D01*
X80284819Y-128550000D02*
X80284819Y-128983333D01*
X80284819Y-128983333D02*
X80665771Y-128750000D01*
X80665771Y-128750000D02*
X80665771Y-128850000D01*
X80665771Y-128850000D02*
X80713390Y-128916666D01*
X80713390Y-128916666D02*
X80761009Y-128950000D01*
X80761009Y-128950000D02*
X80856247Y-128983333D01*
X80856247Y-128983333D02*
X81094342Y-128983333D01*
X81094342Y-128983333D02*
X81189580Y-128950000D01*
X81189580Y-128950000D02*
X81237200Y-128916666D01*
X81237200Y-128916666D02*
X81284819Y-128850000D01*
X81284819Y-128850000D02*
X81284819Y-128650000D01*
X81284819Y-128650000D02*
X81237200Y-128583333D01*
X81237200Y-128583333D02*
X81189580Y-128550000D01*
X100066666Y-52454819D02*
X100399999Y-51978628D01*
X100638094Y-52454819D02*
X100638094Y-51454819D01*
X100638094Y-51454819D02*
X100257142Y-51454819D01*
X100257142Y-51454819D02*
X100161904Y-51502438D01*
X100161904Y-51502438D02*
X100114285Y-51550057D01*
X100114285Y-51550057D02*
X100066666Y-51645295D01*
X100066666Y-51645295D02*
X100066666Y-51788152D01*
X100066666Y-51788152D02*
X100114285Y-51883390D01*
X100114285Y-51883390D02*
X100161904Y-51931009D01*
X100161904Y-51931009D02*
X100257142Y-51978628D01*
X100257142Y-51978628D02*
X100638094Y-51978628D01*
X99209523Y-51454819D02*
X99399999Y-51454819D01*
X99399999Y-51454819D02*
X99495237Y-51502438D01*
X99495237Y-51502438D02*
X99542856Y-51550057D01*
X99542856Y-51550057D02*
X99638094Y-51692914D01*
X99638094Y-51692914D02*
X99685713Y-51883390D01*
X99685713Y-51883390D02*
X99685713Y-52264342D01*
X99685713Y-52264342D02*
X99638094Y-52359580D01*
X99638094Y-52359580D02*
X99590475Y-52407200D01*
X99590475Y-52407200D02*
X99495237Y-52454819D01*
X99495237Y-52454819D02*
X99304761Y-52454819D01*
X99304761Y-52454819D02*
X99209523Y-52407200D01*
X99209523Y-52407200D02*
X99161904Y-52359580D01*
X99161904Y-52359580D02*
X99114285Y-52264342D01*
X99114285Y-52264342D02*
X99114285Y-52026247D01*
X99114285Y-52026247D02*
X99161904Y-51931009D01*
X99161904Y-51931009D02*
X99209523Y-51883390D01*
X99209523Y-51883390D02*
X99304761Y-51835771D01*
X99304761Y-51835771D02*
X99495237Y-51835771D01*
X99495237Y-51835771D02*
X99590475Y-51883390D01*
X99590475Y-51883390D02*
X99638094Y-51931009D01*
X99638094Y-51931009D02*
X99685713Y-52026247D01*
X122589580Y-127649999D02*
X122637200Y-127616666D01*
X122637200Y-127616666D02*
X122684819Y-127516666D01*
X122684819Y-127516666D02*
X122684819Y-127449999D01*
X122684819Y-127449999D02*
X122637200Y-127349999D01*
X122637200Y-127349999D02*
X122541961Y-127283333D01*
X122541961Y-127283333D02*
X122446723Y-127249999D01*
X122446723Y-127249999D02*
X122256247Y-127216666D01*
X122256247Y-127216666D02*
X122113390Y-127216666D01*
X122113390Y-127216666D02*
X121922914Y-127249999D01*
X121922914Y-127249999D02*
X121827676Y-127283333D01*
X121827676Y-127283333D02*
X121732438Y-127349999D01*
X121732438Y-127349999D02*
X121684819Y-127449999D01*
X121684819Y-127449999D02*
X121684819Y-127516666D01*
X121684819Y-127516666D02*
X121732438Y-127616666D01*
X121732438Y-127616666D02*
X121780057Y-127649999D01*
X122684819Y-128316666D02*
X122684819Y-127916666D01*
X122684819Y-128116666D02*
X121684819Y-128116666D01*
X121684819Y-128116666D02*
X121827676Y-128049999D01*
X121827676Y-128049999D02*
X121922914Y-127983333D01*
X121922914Y-127983333D02*
X121970533Y-127916666D01*
X122113390Y-128716666D02*
X122065771Y-128650000D01*
X122065771Y-128650000D02*
X122018152Y-128616666D01*
X122018152Y-128616666D02*
X121922914Y-128583333D01*
X121922914Y-128583333D02*
X121875295Y-128583333D01*
X121875295Y-128583333D02*
X121780057Y-128616666D01*
X121780057Y-128616666D02*
X121732438Y-128650000D01*
X121732438Y-128650000D02*
X121684819Y-128716666D01*
X121684819Y-128716666D02*
X121684819Y-128850000D01*
X121684819Y-128850000D02*
X121732438Y-128916666D01*
X121732438Y-128916666D02*
X121780057Y-128950000D01*
X121780057Y-128950000D02*
X121875295Y-128983333D01*
X121875295Y-128983333D02*
X121922914Y-128983333D01*
X121922914Y-128983333D02*
X122018152Y-128950000D01*
X122018152Y-128950000D02*
X122065771Y-128916666D01*
X122065771Y-128916666D02*
X122113390Y-128850000D01*
X122113390Y-128850000D02*
X122113390Y-128716666D01*
X122113390Y-128716666D02*
X122161009Y-128650000D01*
X122161009Y-128650000D02*
X122208628Y-128616666D01*
X122208628Y-128616666D02*
X122303866Y-128583333D01*
X122303866Y-128583333D02*
X122494342Y-128583333D01*
X122494342Y-128583333D02*
X122589580Y-128616666D01*
X122589580Y-128616666D02*
X122637200Y-128650000D01*
X122637200Y-128650000D02*
X122684819Y-128716666D01*
X122684819Y-128716666D02*
X122684819Y-128850000D01*
X122684819Y-128850000D02*
X122637200Y-128916666D01*
X122637200Y-128916666D02*
X122589580Y-128950000D01*
X122589580Y-128950000D02*
X122494342Y-128983333D01*
X122494342Y-128983333D02*
X122303866Y-128983333D01*
X122303866Y-128983333D02*
X122208628Y-128950000D01*
X122208628Y-128950000D02*
X122161009Y-128916666D01*
X122161009Y-128916666D02*
X122113390Y-128850000D01*
X70166666Y-56859580D02*
X70214285Y-56907200D01*
X70214285Y-56907200D02*
X70357142Y-56954819D01*
X70357142Y-56954819D02*
X70452380Y-56954819D01*
X70452380Y-56954819D02*
X70595237Y-56907200D01*
X70595237Y-56907200D02*
X70690475Y-56811961D01*
X70690475Y-56811961D02*
X70738094Y-56716723D01*
X70738094Y-56716723D02*
X70785713Y-56526247D01*
X70785713Y-56526247D02*
X70785713Y-56383390D01*
X70785713Y-56383390D02*
X70738094Y-56192914D01*
X70738094Y-56192914D02*
X70690475Y-56097676D01*
X70690475Y-56097676D02*
X70595237Y-56002438D01*
X70595237Y-56002438D02*
X70452380Y-55954819D01*
X70452380Y-55954819D02*
X70357142Y-55954819D01*
X70357142Y-55954819D02*
X70214285Y-56002438D01*
X70214285Y-56002438D02*
X70166666Y-56050057D01*
X69833332Y-55954819D02*
X69214285Y-55954819D01*
X69214285Y-55954819D02*
X69547618Y-56335771D01*
X69547618Y-56335771D02*
X69404761Y-56335771D01*
X69404761Y-56335771D02*
X69309523Y-56383390D01*
X69309523Y-56383390D02*
X69261904Y-56431009D01*
X69261904Y-56431009D02*
X69214285Y-56526247D01*
X69214285Y-56526247D02*
X69214285Y-56764342D01*
X69214285Y-56764342D02*
X69261904Y-56859580D01*
X69261904Y-56859580D02*
X69309523Y-56907200D01*
X69309523Y-56907200D02*
X69404761Y-56954819D01*
X69404761Y-56954819D02*
X69690475Y-56954819D01*
X69690475Y-56954819D02*
X69785713Y-56907200D01*
X69785713Y-56907200D02*
X69833332Y-56859580D01*
X100438094Y-57754819D02*
X100438094Y-56754819D01*
X100438094Y-56754819D02*
X100199999Y-56754819D01*
X100199999Y-56754819D02*
X100057142Y-56802438D01*
X100057142Y-56802438D02*
X99961904Y-56897676D01*
X99961904Y-56897676D02*
X99914285Y-56992914D01*
X99914285Y-56992914D02*
X99866666Y-57183390D01*
X99866666Y-57183390D02*
X99866666Y-57326247D01*
X99866666Y-57326247D02*
X99914285Y-57516723D01*
X99914285Y-57516723D02*
X99961904Y-57611961D01*
X99961904Y-57611961D02*
X100057142Y-57707200D01*
X100057142Y-57707200D02*
X100199999Y-57754819D01*
X100199999Y-57754819D02*
X100438094Y-57754819D01*
X98914285Y-57754819D02*
X99485713Y-57754819D01*
X99199999Y-57754819D02*
X99199999Y-56754819D01*
X99199999Y-56754819D02*
X99295237Y-56897676D01*
X99295237Y-56897676D02*
X99390475Y-56992914D01*
X99390475Y-56992914D02*
X99485713Y-57040533D01*
X77654819Y-130457142D02*
X77178628Y-130123809D01*
X77654819Y-129885714D02*
X76654819Y-129885714D01*
X76654819Y-129885714D02*
X76654819Y-130266666D01*
X76654819Y-130266666D02*
X76702438Y-130361904D01*
X76702438Y-130361904D02*
X76750057Y-130409523D01*
X76750057Y-130409523D02*
X76845295Y-130457142D01*
X76845295Y-130457142D02*
X76988152Y-130457142D01*
X76988152Y-130457142D02*
X77083390Y-130409523D01*
X77083390Y-130409523D02*
X77131009Y-130361904D01*
X77131009Y-130361904D02*
X77178628Y-130266666D01*
X77178628Y-130266666D02*
X77178628Y-129885714D01*
X77654819Y-131409523D02*
X77654819Y-130838095D01*
X77654819Y-131123809D02*
X76654819Y-131123809D01*
X76654819Y-131123809D02*
X76797676Y-131028571D01*
X76797676Y-131028571D02*
X76892914Y-130933333D01*
X76892914Y-130933333D02*
X76940533Y-130838095D01*
X76654819Y-132314285D02*
X76654819Y-131838095D01*
X76654819Y-131838095D02*
X77131009Y-131790476D01*
X77131009Y-131790476D02*
X77083390Y-131838095D01*
X77083390Y-131838095D02*
X77035771Y-131933333D01*
X77035771Y-131933333D02*
X77035771Y-132171428D01*
X77035771Y-132171428D02*
X77083390Y-132266666D01*
X77083390Y-132266666D02*
X77131009Y-132314285D01*
X77131009Y-132314285D02*
X77226247Y-132361904D01*
X77226247Y-132361904D02*
X77464342Y-132361904D01*
X77464342Y-132361904D02*
X77559580Y-132314285D01*
X77559580Y-132314285D02*
X77607200Y-132266666D01*
X77607200Y-132266666D02*
X77654819Y-132171428D01*
X77654819Y-132171428D02*
X77654819Y-131933333D01*
X77654819Y-131933333D02*
X77607200Y-131838095D01*
X77607200Y-131838095D02*
X77559580Y-131790476D01*
D12*
X131633333Y-59652219D02*
X131633333Y-60366504D01*
X131633333Y-60366504D02*
X131680952Y-60509361D01*
X131680952Y-60509361D02*
X131776190Y-60604600D01*
X131776190Y-60604600D02*
X131919047Y-60652219D01*
X131919047Y-60652219D02*
X132014285Y-60652219D01*
X131204761Y-59747457D02*
X131157142Y-59699838D01*
X131157142Y-59699838D02*
X131061904Y-59652219D01*
X131061904Y-59652219D02*
X130823809Y-59652219D01*
X130823809Y-59652219D02*
X130728571Y-59699838D01*
X130728571Y-59699838D02*
X130680952Y-59747457D01*
X130680952Y-59747457D02*
X130633333Y-59842695D01*
X130633333Y-59842695D02*
X130633333Y-59937933D01*
X130633333Y-59937933D02*
X130680952Y-60080790D01*
X130680952Y-60080790D02*
X131252380Y-60652219D01*
X131252380Y-60652219D02*
X130633333Y-60652219D01*
D10*
X133512155Y-55839638D02*
X132845489Y-57839638D01*
X132845489Y-57839638D02*
X132178822Y-55839638D01*
X135926441Y-57739638D02*
X135926441Y-55739638D01*
X135926441Y-55739638D02*
X135450251Y-55739638D01*
X135450251Y-55739638D02*
X135164536Y-55834876D01*
X135164536Y-55834876D02*
X134974060Y-56025352D01*
X134974060Y-56025352D02*
X134878822Y-56215828D01*
X134878822Y-56215828D02*
X134783584Y-56596780D01*
X134783584Y-56596780D02*
X134783584Y-56882495D01*
X134783584Y-56882495D02*
X134878822Y-57263447D01*
X134878822Y-57263447D02*
X134974060Y-57453923D01*
X134974060Y-57453923D02*
X135164536Y-57644400D01*
X135164536Y-57644400D02*
X135450251Y-57739638D01*
X135450251Y-57739638D02*
X135926441Y-57739638D01*
X137378822Y-55834876D02*
X137569298Y-55739638D01*
X137569298Y-55739638D02*
X137855012Y-55739638D01*
X137855012Y-55739638D02*
X138140727Y-55834876D01*
X138140727Y-55834876D02*
X138331203Y-56025352D01*
X138331203Y-56025352D02*
X138426441Y-56215828D01*
X138426441Y-56215828D02*
X138521679Y-56596780D01*
X138521679Y-56596780D02*
X138521679Y-56882495D01*
X138521679Y-56882495D02*
X138426441Y-57263447D01*
X138426441Y-57263447D02*
X138331203Y-57453923D01*
X138331203Y-57453923D02*
X138140727Y-57644400D01*
X138140727Y-57644400D02*
X137855012Y-57739638D01*
X137855012Y-57739638D02*
X137664536Y-57739638D01*
X137664536Y-57739638D02*
X137378822Y-57644400D01*
X137378822Y-57644400D02*
X137283584Y-57549161D01*
X137283584Y-57549161D02*
X137283584Y-56882495D01*
X137283584Y-56882495D02*
X137664536Y-56882495D01*
D11*
X142854819Y-57633333D02*
X142378628Y-57300000D01*
X142854819Y-57061905D02*
X141854819Y-57061905D01*
X141854819Y-57061905D02*
X141854819Y-57442857D01*
X141854819Y-57442857D02*
X141902438Y-57538095D01*
X141902438Y-57538095D02*
X141950057Y-57585714D01*
X141950057Y-57585714D02*
X142045295Y-57633333D01*
X142045295Y-57633333D02*
X142188152Y-57633333D01*
X142188152Y-57633333D02*
X142283390Y-57585714D01*
X142283390Y-57585714D02*
X142331009Y-57538095D01*
X142331009Y-57538095D02*
X142378628Y-57442857D01*
X142378628Y-57442857D02*
X142378628Y-57061905D01*
X142283390Y-58204762D02*
X142235771Y-58109524D01*
X142235771Y-58109524D02*
X142188152Y-58061905D01*
X142188152Y-58061905D02*
X142092914Y-58014286D01*
X142092914Y-58014286D02*
X142045295Y-58014286D01*
X142045295Y-58014286D02*
X141950057Y-58061905D01*
X141950057Y-58061905D02*
X141902438Y-58109524D01*
X141902438Y-58109524D02*
X141854819Y-58204762D01*
X141854819Y-58204762D02*
X141854819Y-58395238D01*
X141854819Y-58395238D02*
X141902438Y-58490476D01*
X141902438Y-58490476D02*
X141950057Y-58538095D01*
X141950057Y-58538095D02*
X142045295Y-58585714D01*
X142045295Y-58585714D02*
X142092914Y-58585714D01*
X142092914Y-58585714D02*
X142188152Y-58538095D01*
X142188152Y-58538095D02*
X142235771Y-58490476D01*
X142235771Y-58490476D02*
X142283390Y-58395238D01*
X142283390Y-58395238D02*
X142283390Y-58204762D01*
X142283390Y-58204762D02*
X142331009Y-58109524D01*
X142331009Y-58109524D02*
X142378628Y-58061905D01*
X142378628Y-58061905D02*
X142473866Y-58014286D01*
X142473866Y-58014286D02*
X142664342Y-58014286D01*
X142664342Y-58014286D02*
X142759580Y-58061905D01*
X142759580Y-58061905D02*
X142807200Y-58109524D01*
X142807200Y-58109524D02*
X142854819Y-58204762D01*
X142854819Y-58204762D02*
X142854819Y-58395238D01*
X142854819Y-58395238D02*
X142807200Y-58490476D01*
X142807200Y-58490476D02*
X142759580Y-58538095D01*
X142759580Y-58538095D02*
X142664342Y-58585714D01*
X142664342Y-58585714D02*
X142473866Y-58585714D01*
X142473866Y-58585714D02*
X142378628Y-58538095D01*
X142378628Y-58538095D02*
X142331009Y-58490476D01*
X142331009Y-58490476D02*
X142283390Y-58395238D01*
X125859580Y-126982142D02*
X125907200Y-126934523D01*
X125907200Y-126934523D02*
X125954819Y-126791666D01*
X125954819Y-126791666D02*
X125954819Y-126696428D01*
X125954819Y-126696428D02*
X125907200Y-126553571D01*
X125907200Y-126553571D02*
X125811961Y-126458333D01*
X125811961Y-126458333D02*
X125716723Y-126410714D01*
X125716723Y-126410714D02*
X125526247Y-126363095D01*
X125526247Y-126363095D02*
X125383390Y-126363095D01*
X125383390Y-126363095D02*
X125192914Y-126410714D01*
X125192914Y-126410714D02*
X125097676Y-126458333D01*
X125097676Y-126458333D02*
X125002438Y-126553571D01*
X125002438Y-126553571D02*
X124954819Y-126696428D01*
X124954819Y-126696428D02*
X124954819Y-126791666D01*
X124954819Y-126791666D02*
X125002438Y-126934523D01*
X125002438Y-126934523D02*
X125050057Y-126982142D01*
X125050057Y-127363095D02*
X125002438Y-127410714D01*
X125002438Y-127410714D02*
X124954819Y-127505952D01*
X124954819Y-127505952D02*
X124954819Y-127744047D01*
X124954819Y-127744047D02*
X125002438Y-127839285D01*
X125002438Y-127839285D02*
X125050057Y-127886904D01*
X125050057Y-127886904D02*
X125145295Y-127934523D01*
X125145295Y-127934523D02*
X125240533Y-127934523D01*
X125240533Y-127934523D02*
X125383390Y-127886904D01*
X125383390Y-127886904D02*
X125954819Y-127315476D01*
X125954819Y-127315476D02*
X125954819Y-127934523D01*
X125954819Y-128886904D02*
X125954819Y-128315476D01*
X125954819Y-128601190D02*
X124954819Y-128601190D01*
X124954819Y-128601190D02*
X125097676Y-128505952D01*
X125097676Y-128505952D02*
X125192914Y-128410714D01*
X125192914Y-128410714D02*
X125240533Y-128315476D01*
X87859580Y-126982142D02*
X87907200Y-126934523D01*
X87907200Y-126934523D02*
X87954819Y-126791666D01*
X87954819Y-126791666D02*
X87954819Y-126696428D01*
X87954819Y-126696428D02*
X87907200Y-126553571D01*
X87907200Y-126553571D02*
X87811961Y-126458333D01*
X87811961Y-126458333D02*
X87716723Y-126410714D01*
X87716723Y-126410714D02*
X87526247Y-126363095D01*
X87526247Y-126363095D02*
X87383390Y-126363095D01*
X87383390Y-126363095D02*
X87192914Y-126410714D01*
X87192914Y-126410714D02*
X87097676Y-126458333D01*
X87097676Y-126458333D02*
X87002438Y-126553571D01*
X87002438Y-126553571D02*
X86954819Y-126696428D01*
X86954819Y-126696428D02*
X86954819Y-126791666D01*
X86954819Y-126791666D02*
X87002438Y-126934523D01*
X87002438Y-126934523D02*
X87050057Y-126982142D01*
X87954819Y-127934523D02*
X87954819Y-127363095D01*
X87954819Y-127648809D02*
X86954819Y-127648809D01*
X86954819Y-127648809D02*
X87097676Y-127553571D01*
X87097676Y-127553571D02*
X87192914Y-127458333D01*
X87192914Y-127458333D02*
X87240533Y-127363095D01*
X87288152Y-128791666D02*
X87954819Y-128791666D01*
X86907200Y-128553571D02*
X87621485Y-128315476D01*
X87621485Y-128315476D02*
X87621485Y-128934523D01*
X86259580Y-127674999D02*
X86307200Y-127641666D01*
X86307200Y-127641666D02*
X86354819Y-127541666D01*
X86354819Y-127541666D02*
X86354819Y-127474999D01*
X86354819Y-127474999D02*
X86307200Y-127374999D01*
X86307200Y-127374999D02*
X86211961Y-127308333D01*
X86211961Y-127308333D02*
X86116723Y-127274999D01*
X86116723Y-127274999D02*
X85926247Y-127241666D01*
X85926247Y-127241666D02*
X85783390Y-127241666D01*
X85783390Y-127241666D02*
X85592914Y-127274999D01*
X85592914Y-127274999D02*
X85497676Y-127308333D01*
X85497676Y-127308333D02*
X85402438Y-127374999D01*
X85402438Y-127374999D02*
X85354819Y-127474999D01*
X85354819Y-127474999D02*
X85354819Y-127541666D01*
X85354819Y-127541666D02*
X85402438Y-127641666D01*
X85402438Y-127641666D02*
X85450057Y-127674999D01*
X86354819Y-128341666D02*
X86354819Y-127941666D01*
X86354819Y-128141666D02*
X85354819Y-128141666D01*
X85354819Y-128141666D02*
X85497676Y-128074999D01*
X85497676Y-128074999D02*
X85592914Y-128008333D01*
X85592914Y-128008333D02*
X85640533Y-127941666D01*
X85450057Y-128608333D02*
X85402438Y-128641666D01*
X85402438Y-128641666D02*
X85354819Y-128708333D01*
X85354819Y-128708333D02*
X85354819Y-128875000D01*
X85354819Y-128875000D02*
X85402438Y-128941666D01*
X85402438Y-128941666D02*
X85450057Y-128975000D01*
X85450057Y-128975000D02*
X85545295Y-129008333D01*
X85545295Y-129008333D02*
X85640533Y-129008333D01*
X85640533Y-129008333D02*
X85783390Y-128975000D01*
X85783390Y-128975000D02*
X86354819Y-128575000D01*
X86354819Y-128575000D02*
X86354819Y-129008333D01*
X143959580Y-126857142D02*
X144007200Y-126809523D01*
X144007200Y-126809523D02*
X144054819Y-126666666D01*
X144054819Y-126666666D02*
X144054819Y-126571428D01*
X144054819Y-126571428D02*
X144007200Y-126428571D01*
X144007200Y-126428571D02*
X143911961Y-126333333D01*
X143911961Y-126333333D02*
X143816723Y-126285714D01*
X143816723Y-126285714D02*
X143626247Y-126238095D01*
X143626247Y-126238095D02*
X143483390Y-126238095D01*
X143483390Y-126238095D02*
X143292914Y-126285714D01*
X143292914Y-126285714D02*
X143197676Y-126333333D01*
X143197676Y-126333333D02*
X143102438Y-126428571D01*
X143102438Y-126428571D02*
X143054819Y-126571428D01*
X143054819Y-126571428D02*
X143054819Y-126666666D01*
X143054819Y-126666666D02*
X143102438Y-126809523D01*
X143102438Y-126809523D02*
X143150057Y-126857142D01*
X143054819Y-127190476D02*
X143054819Y-127809523D01*
X143054819Y-127809523D02*
X143435771Y-127476190D01*
X143435771Y-127476190D02*
X143435771Y-127619047D01*
X143435771Y-127619047D02*
X143483390Y-127714285D01*
X143483390Y-127714285D02*
X143531009Y-127761904D01*
X143531009Y-127761904D02*
X143626247Y-127809523D01*
X143626247Y-127809523D02*
X143864342Y-127809523D01*
X143864342Y-127809523D02*
X143959580Y-127761904D01*
X143959580Y-127761904D02*
X144007200Y-127714285D01*
X144007200Y-127714285D02*
X144054819Y-127619047D01*
X144054819Y-127619047D02*
X144054819Y-127333333D01*
X144054819Y-127333333D02*
X144007200Y-127238095D01*
X144007200Y-127238095D02*
X143959580Y-127190476D01*
X143054819Y-128142857D02*
X143054819Y-128761904D01*
X143054819Y-128761904D02*
X143435771Y-128428571D01*
X143435771Y-128428571D02*
X143435771Y-128571428D01*
X143435771Y-128571428D02*
X143483390Y-128666666D01*
X143483390Y-128666666D02*
X143531009Y-128714285D01*
X143531009Y-128714285D02*
X143626247Y-128761904D01*
X143626247Y-128761904D02*
X143864342Y-128761904D01*
X143864342Y-128761904D02*
X143959580Y-128714285D01*
X143959580Y-128714285D02*
X144007200Y-128666666D01*
X144007200Y-128666666D02*
X144054819Y-128571428D01*
X144054819Y-128571428D02*
X144054819Y-128285714D01*
X144054819Y-128285714D02*
X144007200Y-128190476D01*
X144007200Y-128190476D02*
X143959580Y-128142857D01*
X76642857Y-58154819D02*
X76976190Y-57678628D01*
X77214285Y-58154819D02*
X77214285Y-57154819D01*
X77214285Y-57154819D02*
X76833333Y-57154819D01*
X76833333Y-57154819D02*
X76738095Y-57202438D01*
X76738095Y-57202438D02*
X76690476Y-57250057D01*
X76690476Y-57250057D02*
X76642857Y-57345295D01*
X76642857Y-57345295D02*
X76642857Y-57488152D01*
X76642857Y-57488152D02*
X76690476Y-57583390D01*
X76690476Y-57583390D02*
X76738095Y-57631009D01*
X76738095Y-57631009D02*
X76833333Y-57678628D01*
X76833333Y-57678628D02*
X77214285Y-57678628D01*
X75690476Y-58154819D02*
X76261904Y-58154819D01*
X75976190Y-58154819D02*
X75976190Y-57154819D01*
X75976190Y-57154819D02*
X76071428Y-57297676D01*
X76071428Y-57297676D02*
X76166666Y-57392914D01*
X76166666Y-57392914D02*
X76261904Y-57440533D01*
X75071428Y-57154819D02*
X74976190Y-57154819D01*
X74976190Y-57154819D02*
X74880952Y-57202438D01*
X74880952Y-57202438D02*
X74833333Y-57250057D01*
X74833333Y-57250057D02*
X74785714Y-57345295D01*
X74785714Y-57345295D02*
X74738095Y-57535771D01*
X74738095Y-57535771D02*
X74738095Y-57773866D01*
X74738095Y-57773866D02*
X74785714Y-57964342D01*
X74785714Y-57964342D02*
X74833333Y-58059580D01*
X74833333Y-58059580D02*
X74880952Y-58107200D01*
X74880952Y-58107200D02*
X74976190Y-58154819D01*
X74976190Y-58154819D02*
X75071428Y-58154819D01*
X75071428Y-58154819D02*
X75166666Y-58107200D01*
X75166666Y-58107200D02*
X75214285Y-58059580D01*
X75214285Y-58059580D02*
X75261904Y-57964342D01*
X75261904Y-57964342D02*
X75309523Y-57773866D01*
X75309523Y-57773866D02*
X75309523Y-57535771D01*
X75309523Y-57535771D02*
X75261904Y-57345295D01*
X75261904Y-57345295D02*
X75214285Y-57250057D01*
X75214285Y-57250057D02*
X75166666Y-57202438D01*
X75166666Y-57202438D02*
X75071428Y-57154819D01*
X138189580Y-127649999D02*
X138237200Y-127616666D01*
X138237200Y-127616666D02*
X138284819Y-127516666D01*
X138284819Y-127516666D02*
X138284819Y-127449999D01*
X138284819Y-127449999D02*
X138237200Y-127349999D01*
X138237200Y-127349999D02*
X138141961Y-127283333D01*
X138141961Y-127283333D02*
X138046723Y-127249999D01*
X138046723Y-127249999D02*
X137856247Y-127216666D01*
X137856247Y-127216666D02*
X137713390Y-127216666D01*
X137713390Y-127216666D02*
X137522914Y-127249999D01*
X137522914Y-127249999D02*
X137427676Y-127283333D01*
X137427676Y-127283333D02*
X137332438Y-127349999D01*
X137332438Y-127349999D02*
X137284819Y-127449999D01*
X137284819Y-127449999D02*
X137284819Y-127516666D01*
X137284819Y-127516666D02*
X137332438Y-127616666D01*
X137332438Y-127616666D02*
X137380057Y-127649999D01*
X137284819Y-127883333D02*
X137284819Y-128316666D01*
X137284819Y-128316666D02*
X137665771Y-128083333D01*
X137665771Y-128083333D02*
X137665771Y-128183333D01*
X137665771Y-128183333D02*
X137713390Y-128249999D01*
X137713390Y-128249999D02*
X137761009Y-128283333D01*
X137761009Y-128283333D02*
X137856247Y-128316666D01*
X137856247Y-128316666D02*
X138094342Y-128316666D01*
X138094342Y-128316666D02*
X138189580Y-128283333D01*
X138189580Y-128283333D02*
X138237200Y-128249999D01*
X138237200Y-128249999D02*
X138284819Y-128183333D01*
X138284819Y-128183333D02*
X138284819Y-127983333D01*
X138284819Y-127983333D02*
X138237200Y-127916666D01*
X138237200Y-127916666D02*
X138189580Y-127883333D01*
X137618152Y-128916666D02*
X138284819Y-128916666D01*
X137237200Y-128750000D02*
X137951485Y-128583333D01*
X137951485Y-128583333D02*
X137951485Y-129016666D01*
X54808333Y-108442319D02*
X54808333Y-109156604D01*
X54808333Y-109156604D02*
X54855952Y-109299461D01*
X54855952Y-109299461D02*
X54951190Y-109394700D01*
X54951190Y-109394700D02*
X55094047Y-109442319D01*
X55094047Y-109442319D02*
X55189285Y-109442319D01*
X54427380Y-108442319D02*
X53808333Y-108442319D01*
X53808333Y-108442319D02*
X54141666Y-108823271D01*
X54141666Y-108823271D02*
X53998809Y-108823271D01*
X53998809Y-108823271D02*
X53903571Y-108870890D01*
X53903571Y-108870890D02*
X53855952Y-108918509D01*
X53855952Y-108918509D02*
X53808333Y-109013747D01*
X53808333Y-109013747D02*
X53808333Y-109251842D01*
X53808333Y-109251842D02*
X53855952Y-109347080D01*
X53855952Y-109347080D02*
X53903571Y-109394700D01*
X53903571Y-109394700D02*
X53998809Y-109442319D01*
X53998809Y-109442319D02*
X54284523Y-109442319D01*
X54284523Y-109442319D02*
X54379761Y-109394700D01*
X54379761Y-109394700D02*
X54427380Y-109347080D01*
D10*
X55887155Y-115027138D02*
X55220489Y-117027138D01*
X55220489Y-117027138D02*
X54553822Y-115027138D01*
X54853822Y-111122376D02*
X55044298Y-111027138D01*
X55044298Y-111027138D02*
X55330012Y-111027138D01*
X55330012Y-111027138D02*
X55615727Y-111122376D01*
X55615727Y-111122376D02*
X55806203Y-111312852D01*
X55806203Y-111312852D02*
X55901441Y-111503328D01*
X55901441Y-111503328D02*
X55996679Y-111884280D01*
X55996679Y-111884280D02*
X55996679Y-112169995D01*
X55996679Y-112169995D02*
X55901441Y-112550947D01*
X55901441Y-112550947D02*
X55806203Y-112741423D01*
X55806203Y-112741423D02*
X55615727Y-112931900D01*
X55615727Y-112931900D02*
X55330012Y-113027138D01*
X55330012Y-113027138D02*
X55139536Y-113027138D01*
X55139536Y-113027138D02*
X54853822Y-112931900D01*
X54853822Y-112931900D02*
X54758584Y-112836661D01*
X54758584Y-112836661D02*
X54758584Y-112169995D01*
X54758584Y-112169995D02*
X55139536Y-112169995D01*
D11*
X81761904Y-57054819D02*
X81761904Y-57864342D01*
X81761904Y-57864342D02*
X81714285Y-57959580D01*
X81714285Y-57959580D02*
X81666666Y-58007200D01*
X81666666Y-58007200D02*
X81571428Y-58054819D01*
X81571428Y-58054819D02*
X81380952Y-58054819D01*
X81380952Y-58054819D02*
X81285714Y-58007200D01*
X81285714Y-58007200D02*
X81238095Y-57959580D01*
X81238095Y-57959580D02*
X81190476Y-57864342D01*
X81190476Y-57864342D02*
X81190476Y-57054819D01*
X80238095Y-57054819D02*
X80714285Y-57054819D01*
X80714285Y-57054819D02*
X80761904Y-57531009D01*
X80761904Y-57531009D02*
X80714285Y-57483390D01*
X80714285Y-57483390D02*
X80619047Y-57435771D01*
X80619047Y-57435771D02*
X80380952Y-57435771D01*
X80380952Y-57435771D02*
X80285714Y-57483390D01*
X80285714Y-57483390D02*
X80238095Y-57531009D01*
X80238095Y-57531009D02*
X80190476Y-57626247D01*
X80190476Y-57626247D02*
X80190476Y-57864342D01*
X80190476Y-57864342D02*
X80238095Y-57959580D01*
X80238095Y-57959580D02*
X80285714Y-58007200D01*
X80285714Y-58007200D02*
X80380952Y-58054819D01*
X80380952Y-58054819D02*
X80619047Y-58054819D01*
X80619047Y-58054819D02*
X80714285Y-58007200D01*
X80714285Y-58007200D02*
X80761904Y-57959580D01*
X145359580Y-126857142D02*
X145407200Y-126809523D01*
X145407200Y-126809523D02*
X145454819Y-126666666D01*
X145454819Y-126666666D02*
X145454819Y-126571428D01*
X145454819Y-126571428D02*
X145407200Y-126428571D01*
X145407200Y-126428571D02*
X145311961Y-126333333D01*
X145311961Y-126333333D02*
X145216723Y-126285714D01*
X145216723Y-126285714D02*
X145026247Y-126238095D01*
X145026247Y-126238095D02*
X144883390Y-126238095D01*
X144883390Y-126238095D02*
X144692914Y-126285714D01*
X144692914Y-126285714D02*
X144597676Y-126333333D01*
X144597676Y-126333333D02*
X144502438Y-126428571D01*
X144502438Y-126428571D02*
X144454819Y-126571428D01*
X144454819Y-126571428D02*
X144454819Y-126666666D01*
X144454819Y-126666666D02*
X144502438Y-126809523D01*
X144502438Y-126809523D02*
X144550057Y-126857142D01*
X144454819Y-127190476D02*
X144454819Y-127809523D01*
X144454819Y-127809523D02*
X144835771Y-127476190D01*
X144835771Y-127476190D02*
X144835771Y-127619047D01*
X144835771Y-127619047D02*
X144883390Y-127714285D01*
X144883390Y-127714285D02*
X144931009Y-127761904D01*
X144931009Y-127761904D02*
X145026247Y-127809523D01*
X145026247Y-127809523D02*
X145264342Y-127809523D01*
X145264342Y-127809523D02*
X145359580Y-127761904D01*
X145359580Y-127761904D02*
X145407200Y-127714285D01*
X145407200Y-127714285D02*
X145454819Y-127619047D01*
X145454819Y-127619047D02*
X145454819Y-127333333D01*
X145454819Y-127333333D02*
X145407200Y-127238095D01*
X145407200Y-127238095D02*
X145359580Y-127190476D01*
X144454819Y-128714285D02*
X144454819Y-128238095D01*
X144454819Y-128238095D02*
X144931009Y-128190476D01*
X144931009Y-128190476D02*
X144883390Y-128238095D01*
X144883390Y-128238095D02*
X144835771Y-128333333D01*
X144835771Y-128333333D02*
X144835771Y-128571428D01*
X144835771Y-128571428D02*
X144883390Y-128666666D01*
X144883390Y-128666666D02*
X144931009Y-128714285D01*
X144931009Y-128714285D02*
X145026247Y-128761904D01*
X145026247Y-128761904D02*
X145264342Y-128761904D01*
X145264342Y-128761904D02*
X145359580Y-128714285D01*
X145359580Y-128714285D02*
X145407200Y-128666666D01*
X145407200Y-128666666D02*
X145454819Y-128571428D01*
X145454819Y-128571428D02*
X145454819Y-128333333D01*
X145454819Y-128333333D02*
X145407200Y-128238095D01*
X145407200Y-128238095D02*
X145359580Y-128190476D01*
D12*
X118704600Y-51466667D02*
X118752219Y-51609524D01*
X118752219Y-51609524D02*
X118752219Y-51847619D01*
X118752219Y-51847619D02*
X118704600Y-51942857D01*
X118704600Y-51942857D02*
X118656980Y-51990476D01*
X118656980Y-51990476D02*
X118561742Y-52038095D01*
X118561742Y-52038095D02*
X118466504Y-52038095D01*
X118466504Y-52038095D02*
X118371266Y-51990476D01*
X118371266Y-51990476D02*
X118323647Y-51942857D01*
X118323647Y-51942857D02*
X118276028Y-51847619D01*
X118276028Y-51847619D02*
X118228409Y-51657143D01*
X118228409Y-51657143D02*
X118180790Y-51561905D01*
X118180790Y-51561905D02*
X118133171Y-51514286D01*
X118133171Y-51514286D02*
X118037933Y-51466667D01*
X118037933Y-51466667D02*
X117942695Y-51466667D01*
X117942695Y-51466667D02*
X117847457Y-51514286D01*
X117847457Y-51514286D02*
X117799838Y-51561905D01*
X117799838Y-51561905D02*
X117752219Y-51657143D01*
X117752219Y-51657143D02*
X117752219Y-51895238D01*
X117752219Y-51895238D02*
X117799838Y-52038095D01*
X117752219Y-52371429D02*
X118752219Y-52609524D01*
X118752219Y-52609524D02*
X118037933Y-52800000D01*
X118037933Y-52800000D02*
X118752219Y-52990476D01*
X118752219Y-52990476D02*
X117752219Y-53228572D01*
X118752219Y-54133333D02*
X118752219Y-53561905D01*
X118752219Y-53847619D02*
X117752219Y-53847619D01*
X117752219Y-53847619D02*
X117895076Y-53752381D01*
X117895076Y-53752381D02*
X117990314Y-53657143D01*
X117990314Y-53657143D02*
X118037933Y-53561905D01*
D11*
X141589580Y-127649999D02*
X141637200Y-127616666D01*
X141637200Y-127616666D02*
X141684819Y-127516666D01*
X141684819Y-127516666D02*
X141684819Y-127449999D01*
X141684819Y-127449999D02*
X141637200Y-127349999D01*
X141637200Y-127349999D02*
X141541961Y-127283333D01*
X141541961Y-127283333D02*
X141446723Y-127249999D01*
X141446723Y-127249999D02*
X141256247Y-127216666D01*
X141256247Y-127216666D02*
X141113390Y-127216666D01*
X141113390Y-127216666D02*
X140922914Y-127249999D01*
X140922914Y-127249999D02*
X140827676Y-127283333D01*
X140827676Y-127283333D02*
X140732438Y-127349999D01*
X140732438Y-127349999D02*
X140684819Y-127449999D01*
X140684819Y-127449999D02*
X140684819Y-127516666D01*
X140684819Y-127516666D02*
X140732438Y-127616666D01*
X140732438Y-127616666D02*
X140780057Y-127649999D01*
X140684819Y-127883333D02*
X140684819Y-128316666D01*
X140684819Y-128316666D02*
X141065771Y-128083333D01*
X141065771Y-128083333D02*
X141065771Y-128183333D01*
X141065771Y-128183333D02*
X141113390Y-128249999D01*
X141113390Y-128249999D02*
X141161009Y-128283333D01*
X141161009Y-128283333D02*
X141256247Y-128316666D01*
X141256247Y-128316666D02*
X141494342Y-128316666D01*
X141494342Y-128316666D02*
X141589580Y-128283333D01*
X141589580Y-128283333D02*
X141637200Y-128249999D01*
X141637200Y-128249999D02*
X141684819Y-128183333D01*
X141684819Y-128183333D02*
X141684819Y-127983333D01*
X141684819Y-127983333D02*
X141637200Y-127916666D01*
X141637200Y-127916666D02*
X141589580Y-127883333D01*
X140780057Y-128583333D02*
X140732438Y-128616666D01*
X140732438Y-128616666D02*
X140684819Y-128683333D01*
X140684819Y-128683333D02*
X140684819Y-128850000D01*
X140684819Y-128850000D02*
X140732438Y-128916666D01*
X140732438Y-128916666D02*
X140780057Y-128950000D01*
X140780057Y-128950000D02*
X140875295Y-128983333D01*
X140875295Y-128983333D02*
X140970533Y-128983333D01*
X140970533Y-128983333D02*
X141113390Y-128950000D01*
X141113390Y-128950000D02*
X141684819Y-128550000D01*
X141684819Y-128550000D02*
X141684819Y-128983333D01*
X109566666Y-58159580D02*
X109614285Y-58207200D01*
X109614285Y-58207200D02*
X109757142Y-58254819D01*
X109757142Y-58254819D02*
X109852380Y-58254819D01*
X109852380Y-58254819D02*
X109995237Y-58207200D01*
X109995237Y-58207200D02*
X110090475Y-58111961D01*
X110090475Y-58111961D02*
X110138094Y-58016723D01*
X110138094Y-58016723D02*
X110185713Y-57826247D01*
X110185713Y-57826247D02*
X110185713Y-57683390D01*
X110185713Y-57683390D02*
X110138094Y-57492914D01*
X110138094Y-57492914D02*
X110090475Y-57397676D01*
X110090475Y-57397676D02*
X109995237Y-57302438D01*
X109995237Y-57302438D02*
X109852380Y-57254819D01*
X109852380Y-57254819D02*
X109757142Y-57254819D01*
X109757142Y-57254819D02*
X109614285Y-57302438D01*
X109614285Y-57302438D02*
X109566666Y-57350057D01*
X109185713Y-57350057D02*
X109138094Y-57302438D01*
X109138094Y-57302438D02*
X109042856Y-57254819D01*
X109042856Y-57254819D02*
X108804761Y-57254819D01*
X108804761Y-57254819D02*
X108709523Y-57302438D01*
X108709523Y-57302438D02*
X108661904Y-57350057D01*
X108661904Y-57350057D02*
X108614285Y-57445295D01*
X108614285Y-57445295D02*
X108614285Y-57540533D01*
X108614285Y-57540533D02*
X108661904Y-57683390D01*
X108661904Y-57683390D02*
X109233332Y-58254819D01*
X109233332Y-58254819D02*
X108614285Y-58254819D01*
X67159580Y-127995833D02*
X67207200Y-127962500D01*
X67207200Y-127962500D02*
X67254819Y-127862500D01*
X67254819Y-127862500D02*
X67254819Y-127795833D01*
X67254819Y-127795833D02*
X67207200Y-127695833D01*
X67207200Y-127695833D02*
X67111961Y-127629167D01*
X67111961Y-127629167D02*
X67016723Y-127595833D01*
X67016723Y-127595833D02*
X66826247Y-127562500D01*
X66826247Y-127562500D02*
X66683390Y-127562500D01*
X66683390Y-127562500D02*
X66492914Y-127595833D01*
X66492914Y-127595833D02*
X66397676Y-127629167D01*
X66397676Y-127629167D02*
X66302438Y-127695833D01*
X66302438Y-127695833D02*
X66254819Y-127795833D01*
X66254819Y-127795833D02*
X66254819Y-127862500D01*
X66254819Y-127862500D02*
X66302438Y-127962500D01*
X66302438Y-127962500D02*
X66350057Y-127995833D01*
X66254819Y-128629167D02*
X66254819Y-128295833D01*
X66254819Y-128295833D02*
X66731009Y-128262500D01*
X66731009Y-128262500D02*
X66683390Y-128295833D01*
X66683390Y-128295833D02*
X66635771Y-128362500D01*
X66635771Y-128362500D02*
X66635771Y-128529167D01*
X66635771Y-128529167D02*
X66683390Y-128595833D01*
X66683390Y-128595833D02*
X66731009Y-128629167D01*
X66731009Y-128629167D02*
X66826247Y-128662500D01*
X66826247Y-128662500D02*
X67064342Y-128662500D01*
X67064342Y-128662500D02*
X67159580Y-128629167D01*
X67159580Y-128629167D02*
X67207200Y-128595833D01*
X67207200Y-128595833D02*
X67254819Y-128529167D01*
X67254819Y-128529167D02*
X67254819Y-128362500D01*
X67254819Y-128362500D02*
X67207200Y-128295833D01*
X67207200Y-128295833D02*
X67159580Y-128262500D01*
X106866666Y-60154819D02*
X107199999Y-59678628D01*
X107438094Y-60154819D02*
X107438094Y-59154819D01*
X107438094Y-59154819D02*
X107057142Y-59154819D01*
X107057142Y-59154819D02*
X106961904Y-59202438D01*
X106961904Y-59202438D02*
X106914285Y-59250057D01*
X106914285Y-59250057D02*
X106866666Y-59345295D01*
X106866666Y-59345295D02*
X106866666Y-59488152D01*
X106866666Y-59488152D02*
X106914285Y-59583390D01*
X106914285Y-59583390D02*
X106961904Y-59631009D01*
X106961904Y-59631009D02*
X107057142Y-59678628D01*
X107057142Y-59678628D02*
X107438094Y-59678628D01*
X105914285Y-60154819D02*
X106485713Y-60154819D01*
X106199999Y-60154819D02*
X106199999Y-59154819D01*
X106199999Y-59154819D02*
X106295237Y-59297676D01*
X106295237Y-59297676D02*
X106390475Y-59392914D01*
X106390475Y-59392914D02*
X106485713Y-59440533D01*
X70459580Y-122033333D02*
X70507200Y-121985714D01*
X70507200Y-121985714D02*
X70554819Y-121842857D01*
X70554819Y-121842857D02*
X70554819Y-121747619D01*
X70554819Y-121747619D02*
X70507200Y-121604762D01*
X70507200Y-121604762D02*
X70411961Y-121509524D01*
X70411961Y-121509524D02*
X70316723Y-121461905D01*
X70316723Y-121461905D02*
X70126247Y-121414286D01*
X70126247Y-121414286D02*
X69983390Y-121414286D01*
X69983390Y-121414286D02*
X69792914Y-121461905D01*
X69792914Y-121461905D02*
X69697676Y-121509524D01*
X69697676Y-121509524D02*
X69602438Y-121604762D01*
X69602438Y-121604762D02*
X69554819Y-121747619D01*
X69554819Y-121747619D02*
X69554819Y-121842857D01*
X69554819Y-121842857D02*
X69602438Y-121985714D01*
X69602438Y-121985714D02*
X69650057Y-122033333D01*
X70554819Y-122509524D02*
X70554819Y-122700000D01*
X70554819Y-122700000D02*
X70507200Y-122795238D01*
X70507200Y-122795238D02*
X70459580Y-122842857D01*
X70459580Y-122842857D02*
X70316723Y-122938095D01*
X70316723Y-122938095D02*
X70126247Y-122985714D01*
X70126247Y-122985714D02*
X69745295Y-122985714D01*
X69745295Y-122985714D02*
X69650057Y-122938095D01*
X69650057Y-122938095D02*
X69602438Y-122890476D01*
X69602438Y-122890476D02*
X69554819Y-122795238D01*
X69554819Y-122795238D02*
X69554819Y-122604762D01*
X69554819Y-122604762D02*
X69602438Y-122509524D01*
X69602438Y-122509524D02*
X69650057Y-122461905D01*
X69650057Y-122461905D02*
X69745295Y-122414286D01*
X69745295Y-122414286D02*
X69983390Y-122414286D01*
X69983390Y-122414286D02*
X70078628Y-122461905D01*
X70078628Y-122461905D02*
X70126247Y-122509524D01*
X70126247Y-122509524D02*
X70173866Y-122604762D01*
X70173866Y-122604762D02*
X70173866Y-122795238D01*
X70173866Y-122795238D02*
X70126247Y-122890476D01*
X70126247Y-122890476D02*
X70078628Y-122938095D01*
X70078628Y-122938095D02*
X69983390Y-122985714D01*
X53766666Y-53359580D02*
X53814285Y-53407200D01*
X53814285Y-53407200D02*
X53957142Y-53454819D01*
X53957142Y-53454819D02*
X54052380Y-53454819D01*
X54052380Y-53454819D02*
X54195237Y-53407200D01*
X54195237Y-53407200D02*
X54290475Y-53311961D01*
X54290475Y-53311961D02*
X54338094Y-53216723D01*
X54338094Y-53216723D02*
X54385713Y-53026247D01*
X54385713Y-53026247D02*
X54385713Y-52883390D01*
X54385713Y-52883390D02*
X54338094Y-52692914D01*
X54338094Y-52692914D02*
X54290475Y-52597676D01*
X54290475Y-52597676D02*
X54195237Y-52502438D01*
X54195237Y-52502438D02*
X54052380Y-52454819D01*
X54052380Y-52454819D02*
X53957142Y-52454819D01*
X53957142Y-52454819D02*
X53814285Y-52502438D01*
X53814285Y-52502438D02*
X53766666Y-52550057D01*
X52814285Y-53454819D02*
X53385713Y-53454819D01*
X53099999Y-53454819D02*
X53099999Y-52454819D01*
X53099999Y-52454819D02*
X53195237Y-52597676D01*
X53195237Y-52597676D02*
X53290475Y-52692914D01*
X53290475Y-52692914D02*
X53385713Y-52740533D01*
X103195238Y-52450057D02*
X103290476Y-52402438D01*
X103290476Y-52402438D02*
X103385714Y-52307200D01*
X103385714Y-52307200D02*
X103528571Y-52164342D01*
X103528571Y-52164342D02*
X103623809Y-52116723D01*
X103623809Y-52116723D02*
X103719047Y-52116723D01*
X103671428Y-52354819D02*
X103766666Y-52307200D01*
X103766666Y-52307200D02*
X103861904Y-52211961D01*
X103861904Y-52211961D02*
X103909523Y-52021485D01*
X103909523Y-52021485D02*
X103909523Y-51688152D01*
X103909523Y-51688152D02*
X103861904Y-51497676D01*
X103861904Y-51497676D02*
X103766666Y-51402438D01*
X103766666Y-51402438D02*
X103671428Y-51354819D01*
X103671428Y-51354819D02*
X103480952Y-51354819D01*
X103480952Y-51354819D02*
X103385714Y-51402438D01*
X103385714Y-51402438D02*
X103290476Y-51497676D01*
X103290476Y-51497676D02*
X103242857Y-51688152D01*
X103242857Y-51688152D02*
X103242857Y-52021485D01*
X103242857Y-52021485D02*
X103290476Y-52211961D01*
X103290476Y-52211961D02*
X103385714Y-52307200D01*
X103385714Y-52307200D02*
X103480952Y-52354819D01*
X103480952Y-52354819D02*
X103671428Y-52354819D01*
X102290476Y-52354819D02*
X102861904Y-52354819D01*
X102576190Y-52354819D02*
X102576190Y-51354819D01*
X102576190Y-51354819D02*
X102671428Y-51497676D01*
X102671428Y-51497676D02*
X102766666Y-51592914D01*
X102766666Y-51592914D02*
X102861904Y-51640533D01*
X79554819Y-127649999D02*
X79078628Y-127416666D01*
X79554819Y-127249999D02*
X78554819Y-127249999D01*
X78554819Y-127249999D02*
X78554819Y-127516666D01*
X78554819Y-127516666D02*
X78602438Y-127583333D01*
X78602438Y-127583333D02*
X78650057Y-127616666D01*
X78650057Y-127616666D02*
X78745295Y-127649999D01*
X78745295Y-127649999D02*
X78888152Y-127649999D01*
X78888152Y-127649999D02*
X78983390Y-127616666D01*
X78983390Y-127616666D02*
X79031009Y-127583333D01*
X79031009Y-127583333D02*
X79078628Y-127516666D01*
X79078628Y-127516666D02*
X79078628Y-127249999D01*
X79554819Y-128316666D02*
X79554819Y-127916666D01*
X79554819Y-128116666D02*
X78554819Y-128116666D01*
X78554819Y-128116666D02*
X78697676Y-128049999D01*
X78697676Y-128049999D02*
X78792914Y-127983333D01*
X78792914Y-127983333D02*
X78840533Y-127916666D01*
X78554819Y-128916666D02*
X78554819Y-128783333D01*
X78554819Y-128783333D02*
X78602438Y-128716666D01*
X78602438Y-128716666D02*
X78650057Y-128683333D01*
X78650057Y-128683333D02*
X78792914Y-128616666D01*
X78792914Y-128616666D02*
X78983390Y-128583333D01*
X78983390Y-128583333D02*
X79364342Y-128583333D01*
X79364342Y-128583333D02*
X79459580Y-128616666D01*
X79459580Y-128616666D02*
X79507200Y-128650000D01*
X79507200Y-128650000D02*
X79554819Y-128716666D01*
X79554819Y-128716666D02*
X79554819Y-128850000D01*
X79554819Y-128850000D02*
X79507200Y-128916666D01*
X79507200Y-128916666D02*
X79459580Y-128950000D01*
X79459580Y-128950000D02*
X79364342Y-128983333D01*
X79364342Y-128983333D02*
X79126247Y-128983333D01*
X79126247Y-128983333D02*
X79031009Y-128950000D01*
X79031009Y-128950000D02*
X78983390Y-128916666D01*
X78983390Y-128916666D02*
X78935771Y-128850000D01*
X78935771Y-128850000D02*
X78935771Y-128716666D01*
X78935771Y-128716666D02*
X78983390Y-128650000D01*
X78983390Y-128650000D02*
X79031009Y-128616666D01*
X79031009Y-128616666D02*
X79126247Y-128583333D01*
X53666666Y-56054819D02*
X53999999Y-55578628D01*
X54238094Y-56054819D02*
X54238094Y-55054819D01*
X54238094Y-55054819D02*
X53857142Y-55054819D01*
X53857142Y-55054819D02*
X53761904Y-55102438D01*
X53761904Y-55102438D02*
X53714285Y-55150057D01*
X53714285Y-55150057D02*
X53666666Y-55245295D01*
X53666666Y-55245295D02*
X53666666Y-55388152D01*
X53666666Y-55388152D02*
X53714285Y-55483390D01*
X53714285Y-55483390D02*
X53761904Y-55531009D01*
X53761904Y-55531009D02*
X53857142Y-55578628D01*
X53857142Y-55578628D02*
X54238094Y-55578628D01*
X53333332Y-55054819D02*
X52714285Y-55054819D01*
X52714285Y-55054819D02*
X53047618Y-55435771D01*
X53047618Y-55435771D02*
X52904761Y-55435771D01*
X52904761Y-55435771D02*
X52809523Y-55483390D01*
X52809523Y-55483390D02*
X52761904Y-55531009D01*
X52761904Y-55531009D02*
X52714285Y-55626247D01*
X52714285Y-55626247D02*
X52714285Y-55864342D01*
X52714285Y-55864342D02*
X52761904Y-55959580D01*
X52761904Y-55959580D02*
X52809523Y-56007200D01*
X52809523Y-56007200D02*
X52904761Y-56054819D01*
X52904761Y-56054819D02*
X53190475Y-56054819D01*
X53190475Y-56054819D02*
X53285713Y-56007200D01*
X53285713Y-56007200D02*
X53333332Y-55959580D01*
X112366666Y-60254819D02*
X112699999Y-59778628D01*
X112938094Y-60254819D02*
X112938094Y-59254819D01*
X112938094Y-59254819D02*
X112557142Y-59254819D01*
X112557142Y-59254819D02*
X112461904Y-59302438D01*
X112461904Y-59302438D02*
X112414285Y-59350057D01*
X112414285Y-59350057D02*
X112366666Y-59445295D01*
X112366666Y-59445295D02*
X112366666Y-59588152D01*
X112366666Y-59588152D02*
X112414285Y-59683390D01*
X112414285Y-59683390D02*
X112461904Y-59731009D01*
X112461904Y-59731009D02*
X112557142Y-59778628D01*
X112557142Y-59778628D02*
X112938094Y-59778628D01*
X111509523Y-59588152D02*
X111509523Y-60254819D01*
X111747618Y-59207200D02*
X111985713Y-59921485D01*
X111985713Y-59921485D02*
X111366666Y-59921485D01*
X101854819Y-127649999D02*
X101378628Y-127416666D01*
X101854819Y-127249999D02*
X100854819Y-127249999D01*
X100854819Y-127249999D02*
X100854819Y-127516666D01*
X100854819Y-127516666D02*
X100902438Y-127583333D01*
X100902438Y-127583333D02*
X100950057Y-127616666D01*
X100950057Y-127616666D02*
X101045295Y-127649999D01*
X101045295Y-127649999D02*
X101188152Y-127649999D01*
X101188152Y-127649999D02*
X101283390Y-127616666D01*
X101283390Y-127616666D02*
X101331009Y-127583333D01*
X101331009Y-127583333D02*
X101378628Y-127516666D01*
X101378628Y-127516666D02*
X101378628Y-127249999D01*
X100950057Y-127916666D02*
X100902438Y-127949999D01*
X100902438Y-127949999D02*
X100854819Y-128016666D01*
X100854819Y-128016666D02*
X100854819Y-128183333D01*
X100854819Y-128183333D02*
X100902438Y-128249999D01*
X100902438Y-128249999D02*
X100950057Y-128283333D01*
X100950057Y-128283333D02*
X101045295Y-128316666D01*
X101045295Y-128316666D02*
X101140533Y-128316666D01*
X101140533Y-128316666D02*
X101283390Y-128283333D01*
X101283390Y-128283333D02*
X101854819Y-127883333D01*
X101854819Y-127883333D02*
X101854819Y-128316666D01*
X100854819Y-128750000D02*
X100854819Y-128816666D01*
X100854819Y-128816666D02*
X100902438Y-128883333D01*
X100902438Y-128883333D02*
X100950057Y-128916666D01*
X100950057Y-128916666D02*
X101045295Y-128950000D01*
X101045295Y-128950000D02*
X101235771Y-128983333D01*
X101235771Y-128983333D02*
X101473866Y-128983333D01*
X101473866Y-128983333D02*
X101664342Y-128950000D01*
X101664342Y-128950000D02*
X101759580Y-128916666D01*
X101759580Y-128916666D02*
X101807200Y-128883333D01*
X101807200Y-128883333D02*
X101854819Y-128816666D01*
X101854819Y-128816666D02*
X101854819Y-128750000D01*
X101854819Y-128750000D02*
X101807200Y-128683333D01*
X101807200Y-128683333D02*
X101759580Y-128650000D01*
X101759580Y-128650000D02*
X101664342Y-128616666D01*
X101664342Y-128616666D02*
X101473866Y-128583333D01*
X101473866Y-128583333D02*
X101235771Y-128583333D01*
X101235771Y-128583333D02*
X101045295Y-128616666D01*
X101045295Y-128616666D02*
X100950057Y-128650000D01*
X100950057Y-128650000D02*
X100902438Y-128683333D01*
X100902438Y-128683333D02*
X100854819Y-128750000D01*
X108459580Y-126882142D02*
X108507200Y-126834523D01*
X108507200Y-126834523D02*
X108554819Y-126691666D01*
X108554819Y-126691666D02*
X108554819Y-126596428D01*
X108554819Y-126596428D02*
X108507200Y-126453571D01*
X108507200Y-126453571D02*
X108411961Y-126358333D01*
X108411961Y-126358333D02*
X108316723Y-126310714D01*
X108316723Y-126310714D02*
X108126247Y-126263095D01*
X108126247Y-126263095D02*
X107983390Y-126263095D01*
X107983390Y-126263095D02*
X107792914Y-126310714D01*
X107792914Y-126310714D02*
X107697676Y-126358333D01*
X107697676Y-126358333D02*
X107602438Y-126453571D01*
X107602438Y-126453571D02*
X107554819Y-126596428D01*
X107554819Y-126596428D02*
X107554819Y-126691666D01*
X107554819Y-126691666D02*
X107602438Y-126834523D01*
X107602438Y-126834523D02*
X107650057Y-126882142D01*
X107554819Y-127215476D02*
X107554819Y-127834523D01*
X107554819Y-127834523D02*
X107935771Y-127501190D01*
X107935771Y-127501190D02*
X107935771Y-127644047D01*
X107935771Y-127644047D02*
X107983390Y-127739285D01*
X107983390Y-127739285D02*
X108031009Y-127786904D01*
X108031009Y-127786904D02*
X108126247Y-127834523D01*
X108126247Y-127834523D02*
X108364342Y-127834523D01*
X108364342Y-127834523D02*
X108459580Y-127786904D01*
X108459580Y-127786904D02*
X108507200Y-127739285D01*
X108507200Y-127739285D02*
X108554819Y-127644047D01*
X108554819Y-127644047D02*
X108554819Y-127358333D01*
X108554819Y-127358333D02*
X108507200Y-127263095D01*
X108507200Y-127263095D02*
X108459580Y-127215476D01*
X107554819Y-128453571D02*
X107554819Y-128548809D01*
X107554819Y-128548809D02*
X107602438Y-128644047D01*
X107602438Y-128644047D02*
X107650057Y-128691666D01*
X107650057Y-128691666D02*
X107745295Y-128739285D01*
X107745295Y-128739285D02*
X107935771Y-128786904D01*
X107935771Y-128786904D02*
X108173866Y-128786904D01*
X108173866Y-128786904D02*
X108364342Y-128739285D01*
X108364342Y-128739285D02*
X108459580Y-128691666D01*
X108459580Y-128691666D02*
X108507200Y-128644047D01*
X108507200Y-128644047D02*
X108554819Y-128548809D01*
X108554819Y-128548809D02*
X108554819Y-128453571D01*
X108554819Y-128453571D02*
X108507200Y-128358333D01*
X108507200Y-128358333D02*
X108459580Y-128310714D01*
X108459580Y-128310714D02*
X108364342Y-128263095D01*
X108364342Y-128263095D02*
X108173866Y-128215476D01*
X108173866Y-128215476D02*
X107935771Y-128215476D01*
X107935771Y-128215476D02*
X107745295Y-128263095D01*
X107745295Y-128263095D02*
X107650057Y-128310714D01*
X107650057Y-128310714D02*
X107602438Y-128358333D01*
X107602438Y-128358333D02*
X107554819Y-128453571D01*
X112459580Y-127082142D02*
X112507200Y-127034523D01*
X112507200Y-127034523D02*
X112554819Y-126891666D01*
X112554819Y-126891666D02*
X112554819Y-126796428D01*
X112554819Y-126796428D02*
X112507200Y-126653571D01*
X112507200Y-126653571D02*
X112411961Y-126558333D01*
X112411961Y-126558333D02*
X112316723Y-126510714D01*
X112316723Y-126510714D02*
X112126247Y-126463095D01*
X112126247Y-126463095D02*
X111983390Y-126463095D01*
X111983390Y-126463095D02*
X111792914Y-126510714D01*
X111792914Y-126510714D02*
X111697676Y-126558333D01*
X111697676Y-126558333D02*
X111602438Y-126653571D01*
X111602438Y-126653571D02*
X111554819Y-126796428D01*
X111554819Y-126796428D02*
X111554819Y-126891666D01*
X111554819Y-126891666D02*
X111602438Y-127034523D01*
X111602438Y-127034523D02*
X111650057Y-127082142D01*
X111650057Y-127463095D02*
X111602438Y-127510714D01*
X111602438Y-127510714D02*
X111554819Y-127605952D01*
X111554819Y-127605952D02*
X111554819Y-127844047D01*
X111554819Y-127844047D02*
X111602438Y-127939285D01*
X111602438Y-127939285D02*
X111650057Y-127986904D01*
X111650057Y-127986904D02*
X111745295Y-128034523D01*
X111745295Y-128034523D02*
X111840533Y-128034523D01*
X111840533Y-128034523D02*
X111983390Y-127986904D01*
X111983390Y-127986904D02*
X112554819Y-127415476D01*
X112554819Y-127415476D02*
X112554819Y-128034523D01*
X111650057Y-128415476D02*
X111602438Y-128463095D01*
X111602438Y-128463095D02*
X111554819Y-128558333D01*
X111554819Y-128558333D02*
X111554819Y-128796428D01*
X111554819Y-128796428D02*
X111602438Y-128891666D01*
X111602438Y-128891666D02*
X111650057Y-128939285D01*
X111650057Y-128939285D02*
X111745295Y-128986904D01*
X111745295Y-128986904D02*
X111840533Y-128986904D01*
X111840533Y-128986904D02*
X111983390Y-128939285D01*
X111983390Y-128939285D02*
X112554819Y-128367857D01*
X112554819Y-128367857D02*
X112554819Y-128986904D01*
X93459580Y-127082142D02*
X93507200Y-127034523D01*
X93507200Y-127034523D02*
X93554819Y-126891666D01*
X93554819Y-126891666D02*
X93554819Y-126796428D01*
X93554819Y-126796428D02*
X93507200Y-126653571D01*
X93507200Y-126653571D02*
X93411961Y-126558333D01*
X93411961Y-126558333D02*
X93316723Y-126510714D01*
X93316723Y-126510714D02*
X93126247Y-126463095D01*
X93126247Y-126463095D02*
X92983390Y-126463095D01*
X92983390Y-126463095D02*
X92792914Y-126510714D01*
X92792914Y-126510714D02*
X92697676Y-126558333D01*
X92697676Y-126558333D02*
X92602438Y-126653571D01*
X92602438Y-126653571D02*
X92554819Y-126796428D01*
X92554819Y-126796428D02*
X92554819Y-126891666D01*
X92554819Y-126891666D02*
X92602438Y-127034523D01*
X92602438Y-127034523D02*
X92650057Y-127082142D01*
X92650057Y-127463095D02*
X92602438Y-127510714D01*
X92602438Y-127510714D02*
X92554819Y-127605952D01*
X92554819Y-127605952D02*
X92554819Y-127844047D01*
X92554819Y-127844047D02*
X92602438Y-127939285D01*
X92602438Y-127939285D02*
X92650057Y-127986904D01*
X92650057Y-127986904D02*
X92745295Y-128034523D01*
X92745295Y-128034523D02*
X92840533Y-128034523D01*
X92840533Y-128034523D02*
X92983390Y-127986904D01*
X92983390Y-127986904D02*
X93554819Y-127415476D01*
X93554819Y-127415476D02*
X93554819Y-128034523D01*
X93554819Y-128510714D02*
X93554819Y-128701190D01*
X93554819Y-128701190D02*
X93507200Y-128796428D01*
X93507200Y-128796428D02*
X93459580Y-128844047D01*
X93459580Y-128844047D02*
X93316723Y-128939285D01*
X93316723Y-128939285D02*
X93126247Y-128986904D01*
X93126247Y-128986904D02*
X92745295Y-128986904D01*
X92745295Y-128986904D02*
X92650057Y-128939285D01*
X92650057Y-128939285D02*
X92602438Y-128891666D01*
X92602438Y-128891666D02*
X92554819Y-128796428D01*
X92554819Y-128796428D02*
X92554819Y-128605952D01*
X92554819Y-128605952D02*
X92602438Y-128510714D01*
X92602438Y-128510714D02*
X92650057Y-128463095D01*
X92650057Y-128463095D02*
X92745295Y-128415476D01*
X92745295Y-128415476D02*
X92983390Y-128415476D01*
X92983390Y-128415476D02*
X93078628Y-128463095D01*
X93078628Y-128463095D02*
X93126247Y-128510714D01*
X93126247Y-128510714D02*
X93173866Y-128605952D01*
X93173866Y-128605952D02*
X93173866Y-128796428D01*
X93173866Y-128796428D02*
X93126247Y-128891666D01*
X93126247Y-128891666D02*
X93078628Y-128939285D01*
X93078628Y-128939285D02*
X92983390Y-128986904D01*
X106859580Y-126982142D02*
X106907200Y-126934523D01*
X106907200Y-126934523D02*
X106954819Y-126791666D01*
X106954819Y-126791666D02*
X106954819Y-126696428D01*
X106954819Y-126696428D02*
X106907200Y-126553571D01*
X106907200Y-126553571D02*
X106811961Y-126458333D01*
X106811961Y-126458333D02*
X106716723Y-126410714D01*
X106716723Y-126410714D02*
X106526247Y-126363095D01*
X106526247Y-126363095D02*
X106383390Y-126363095D01*
X106383390Y-126363095D02*
X106192914Y-126410714D01*
X106192914Y-126410714D02*
X106097676Y-126458333D01*
X106097676Y-126458333D02*
X106002438Y-126553571D01*
X106002438Y-126553571D02*
X105954819Y-126696428D01*
X105954819Y-126696428D02*
X105954819Y-126791666D01*
X105954819Y-126791666D02*
X106002438Y-126934523D01*
X106002438Y-126934523D02*
X106050057Y-126982142D01*
X106050057Y-127363095D02*
X106002438Y-127410714D01*
X106002438Y-127410714D02*
X105954819Y-127505952D01*
X105954819Y-127505952D02*
X105954819Y-127744047D01*
X105954819Y-127744047D02*
X106002438Y-127839285D01*
X106002438Y-127839285D02*
X106050057Y-127886904D01*
X106050057Y-127886904D02*
X106145295Y-127934523D01*
X106145295Y-127934523D02*
X106240533Y-127934523D01*
X106240533Y-127934523D02*
X106383390Y-127886904D01*
X106383390Y-127886904D02*
X106954819Y-127315476D01*
X106954819Y-127315476D02*
X106954819Y-127934523D01*
X106383390Y-128505952D02*
X106335771Y-128410714D01*
X106335771Y-128410714D02*
X106288152Y-128363095D01*
X106288152Y-128363095D02*
X106192914Y-128315476D01*
X106192914Y-128315476D02*
X106145295Y-128315476D01*
X106145295Y-128315476D02*
X106050057Y-128363095D01*
X106050057Y-128363095D02*
X106002438Y-128410714D01*
X106002438Y-128410714D02*
X105954819Y-128505952D01*
X105954819Y-128505952D02*
X105954819Y-128696428D01*
X105954819Y-128696428D02*
X106002438Y-128791666D01*
X106002438Y-128791666D02*
X106050057Y-128839285D01*
X106050057Y-128839285D02*
X106145295Y-128886904D01*
X106145295Y-128886904D02*
X106192914Y-128886904D01*
X106192914Y-128886904D02*
X106288152Y-128839285D01*
X106288152Y-128839285D02*
X106335771Y-128791666D01*
X106335771Y-128791666D02*
X106383390Y-128696428D01*
X106383390Y-128696428D02*
X106383390Y-128505952D01*
X106383390Y-128505952D02*
X106431009Y-128410714D01*
X106431009Y-128410714D02*
X106478628Y-128363095D01*
X106478628Y-128363095D02*
X106573866Y-128315476D01*
X106573866Y-128315476D02*
X106764342Y-128315476D01*
X106764342Y-128315476D02*
X106859580Y-128363095D01*
X106859580Y-128363095D02*
X106907200Y-128410714D01*
X106907200Y-128410714D02*
X106954819Y-128505952D01*
X106954819Y-128505952D02*
X106954819Y-128696428D01*
X106954819Y-128696428D02*
X106907200Y-128791666D01*
X106907200Y-128791666D02*
X106859580Y-128839285D01*
X106859580Y-128839285D02*
X106764342Y-128886904D01*
X106764342Y-128886904D02*
X106573866Y-128886904D01*
X106573866Y-128886904D02*
X106478628Y-128839285D01*
X106478628Y-128839285D02*
X106431009Y-128791666D01*
X106431009Y-128791666D02*
X106383390Y-128696428D01*
X114154819Y-127057142D02*
X113678628Y-126723809D01*
X114154819Y-126485714D02*
X113154819Y-126485714D01*
X113154819Y-126485714D02*
X113154819Y-126866666D01*
X113154819Y-126866666D02*
X113202438Y-126961904D01*
X113202438Y-126961904D02*
X113250057Y-127009523D01*
X113250057Y-127009523D02*
X113345295Y-127057142D01*
X113345295Y-127057142D02*
X113488152Y-127057142D01*
X113488152Y-127057142D02*
X113583390Y-127009523D01*
X113583390Y-127009523D02*
X113631009Y-126961904D01*
X113631009Y-126961904D02*
X113678628Y-126866666D01*
X113678628Y-126866666D02*
X113678628Y-126485714D01*
X114154819Y-128009523D02*
X114154819Y-127438095D01*
X114154819Y-127723809D02*
X113154819Y-127723809D01*
X113154819Y-127723809D02*
X113297676Y-127628571D01*
X113297676Y-127628571D02*
X113392914Y-127533333D01*
X113392914Y-127533333D02*
X113440533Y-127438095D01*
X113583390Y-128580952D02*
X113535771Y-128485714D01*
X113535771Y-128485714D02*
X113488152Y-128438095D01*
X113488152Y-128438095D02*
X113392914Y-128390476D01*
X113392914Y-128390476D02*
X113345295Y-128390476D01*
X113345295Y-128390476D02*
X113250057Y-128438095D01*
X113250057Y-128438095D02*
X113202438Y-128485714D01*
X113202438Y-128485714D02*
X113154819Y-128580952D01*
X113154819Y-128580952D02*
X113154819Y-128771428D01*
X113154819Y-128771428D02*
X113202438Y-128866666D01*
X113202438Y-128866666D02*
X113250057Y-128914285D01*
X113250057Y-128914285D02*
X113345295Y-128961904D01*
X113345295Y-128961904D02*
X113392914Y-128961904D01*
X113392914Y-128961904D02*
X113488152Y-128914285D01*
X113488152Y-128914285D02*
X113535771Y-128866666D01*
X113535771Y-128866666D02*
X113583390Y-128771428D01*
X113583390Y-128771428D02*
X113583390Y-128580952D01*
X113583390Y-128580952D02*
X113631009Y-128485714D01*
X113631009Y-128485714D02*
X113678628Y-128438095D01*
X113678628Y-128438095D02*
X113773866Y-128390476D01*
X113773866Y-128390476D02*
X113964342Y-128390476D01*
X113964342Y-128390476D02*
X114059580Y-128438095D01*
X114059580Y-128438095D02*
X114107200Y-128485714D01*
X114107200Y-128485714D02*
X114154819Y-128580952D01*
X114154819Y-128580952D02*
X114154819Y-128771428D01*
X114154819Y-128771428D02*
X114107200Y-128866666D01*
X114107200Y-128866666D02*
X114059580Y-128914285D01*
X114059580Y-128914285D02*
X113964342Y-128961904D01*
X113964342Y-128961904D02*
X113773866Y-128961904D01*
X113773866Y-128961904D02*
X113678628Y-128914285D01*
X113678628Y-128914285D02*
X113631009Y-128866666D01*
X113631009Y-128866666D02*
X113583390Y-128771428D01*
X72285714Y-118531009D02*
X72142857Y-118578628D01*
X72142857Y-118578628D02*
X72095238Y-118626247D01*
X72095238Y-118626247D02*
X72047619Y-118721485D01*
X72047619Y-118721485D02*
X72047619Y-118864342D01*
X72047619Y-118864342D02*
X72095238Y-118959580D01*
X72095238Y-118959580D02*
X72142857Y-119007200D01*
X72142857Y-119007200D02*
X72238095Y-119054819D01*
X72238095Y-119054819D02*
X72619047Y-119054819D01*
X72619047Y-119054819D02*
X72619047Y-118054819D01*
X72619047Y-118054819D02*
X72285714Y-118054819D01*
X72285714Y-118054819D02*
X72190476Y-118102438D01*
X72190476Y-118102438D02*
X72142857Y-118150057D01*
X72142857Y-118150057D02*
X72095238Y-118245295D01*
X72095238Y-118245295D02*
X72095238Y-118340533D01*
X72095238Y-118340533D02*
X72142857Y-118435771D01*
X72142857Y-118435771D02*
X72190476Y-118483390D01*
X72190476Y-118483390D02*
X72285714Y-118531009D01*
X72285714Y-118531009D02*
X72619047Y-118531009D01*
X71761904Y-118054819D02*
X71190476Y-118054819D01*
X71476190Y-119054819D02*
X71476190Y-118054819D01*
X70333333Y-119054819D02*
X70904761Y-119054819D01*
X70619047Y-119054819D02*
X70619047Y-118054819D01*
X70619047Y-118054819D02*
X70714285Y-118197676D01*
X70714285Y-118197676D02*
X70809523Y-118292914D01*
X70809523Y-118292914D02*
X70904761Y-118340533D01*
D10*
X73497266Y-125651441D02*
X73497266Y-124127632D01*
X72735361Y-124889536D02*
X74259171Y-124889536D01*
X68923558Y-125072266D02*
X70447368Y-125072266D01*
D11*
X133154819Y-126957142D02*
X132678628Y-126623809D01*
X133154819Y-126385714D02*
X132154819Y-126385714D01*
X132154819Y-126385714D02*
X132154819Y-126766666D01*
X132154819Y-126766666D02*
X132202438Y-126861904D01*
X132202438Y-126861904D02*
X132250057Y-126909523D01*
X132250057Y-126909523D02*
X132345295Y-126957142D01*
X132345295Y-126957142D02*
X132488152Y-126957142D01*
X132488152Y-126957142D02*
X132583390Y-126909523D01*
X132583390Y-126909523D02*
X132631009Y-126861904D01*
X132631009Y-126861904D02*
X132678628Y-126766666D01*
X132678628Y-126766666D02*
X132678628Y-126385714D01*
X132250057Y-127338095D02*
X132202438Y-127385714D01*
X132202438Y-127385714D02*
X132154819Y-127480952D01*
X132154819Y-127480952D02*
X132154819Y-127719047D01*
X132154819Y-127719047D02*
X132202438Y-127814285D01*
X132202438Y-127814285D02*
X132250057Y-127861904D01*
X132250057Y-127861904D02*
X132345295Y-127909523D01*
X132345295Y-127909523D02*
X132440533Y-127909523D01*
X132440533Y-127909523D02*
X132583390Y-127861904D01*
X132583390Y-127861904D02*
X133154819Y-127290476D01*
X133154819Y-127290476D02*
X133154819Y-127909523D01*
X132488152Y-128766666D02*
X133154819Y-128766666D01*
X132107200Y-128528571D02*
X132821485Y-128290476D01*
X132821485Y-128290476D02*
X132821485Y-128909523D01*
X110859580Y-127057142D02*
X110907200Y-127009523D01*
X110907200Y-127009523D02*
X110954819Y-126866666D01*
X110954819Y-126866666D02*
X110954819Y-126771428D01*
X110954819Y-126771428D02*
X110907200Y-126628571D01*
X110907200Y-126628571D02*
X110811961Y-126533333D01*
X110811961Y-126533333D02*
X110716723Y-126485714D01*
X110716723Y-126485714D02*
X110526247Y-126438095D01*
X110526247Y-126438095D02*
X110383390Y-126438095D01*
X110383390Y-126438095D02*
X110192914Y-126485714D01*
X110192914Y-126485714D02*
X110097676Y-126533333D01*
X110097676Y-126533333D02*
X110002438Y-126628571D01*
X110002438Y-126628571D02*
X109954819Y-126771428D01*
X109954819Y-126771428D02*
X109954819Y-126866666D01*
X109954819Y-126866666D02*
X110002438Y-127009523D01*
X110002438Y-127009523D02*
X110050057Y-127057142D01*
X110050057Y-127438095D02*
X110002438Y-127485714D01*
X110002438Y-127485714D02*
X109954819Y-127580952D01*
X109954819Y-127580952D02*
X109954819Y-127819047D01*
X109954819Y-127819047D02*
X110002438Y-127914285D01*
X110002438Y-127914285D02*
X110050057Y-127961904D01*
X110050057Y-127961904D02*
X110145295Y-128009523D01*
X110145295Y-128009523D02*
X110240533Y-128009523D01*
X110240533Y-128009523D02*
X110383390Y-127961904D01*
X110383390Y-127961904D02*
X110954819Y-127390476D01*
X110954819Y-127390476D02*
X110954819Y-128009523D01*
X110288152Y-128866666D02*
X110954819Y-128866666D01*
X109907200Y-128628571D02*
X110621485Y-128390476D01*
X110621485Y-128390476D02*
X110621485Y-129009523D01*
X119159580Y-127649999D02*
X119207200Y-127616666D01*
X119207200Y-127616666D02*
X119254819Y-127516666D01*
X119254819Y-127516666D02*
X119254819Y-127449999D01*
X119254819Y-127449999D02*
X119207200Y-127349999D01*
X119207200Y-127349999D02*
X119111961Y-127283333D01*
X119111961Y-127283333D02*
X119016723Y-127249999D01*
X119016723Y-127249999D02*
X118826247Y-127216666D01*
X118826247Y-127216666D02*
X118683390Y-127216666D01*
X118683390Y-127216666D02*
X118492914Y-127249999D01*
X118492914Y-127249999D02*
X118397676Y-127283333D01*
X118397676Y-127283333D02*
X118302438Y-127349999D01*
X118302438Y-127349999D02*
X118254819Y-127449999D01*
X118254819Y-127449999D02*
X118254819Y-127516666D01*
X118254819Y-127516666D02*
X118302438Y-127616666D01*
X118302438Y-127616666D02*
X118350057Y-127649999D01*
X118350057Y-127916666D02*
X118302438Y-127949999D01*
X118302438Y-127949999D02*
X118254819Y-128016666D01*
X118254819Y-128016666D02*
X118254819Y-128183333D01*
X118254819Y-128183333D02*
X118302438Y-128249999D01*
X118302438Y-128249999D02*
X118350057Y-128283333D01*
X118350057Y-128283333D02*
X118445295Y-128316666D01*
X118445295Y-128316666D02*
X118540533Y-128316666D01*
X118540533Y-128316666D02*
X118683390Y-128283333D01*
X118683390Y-128283333D02*
X119254819Y-127883333D01*
X119254819Y-127883333D02*
X119254819Y-128316666D01*
X118254819Y-128750000D02*
X118254819Y-128816666D01*
X118254819Y-128816666D02*
X118302438Y-128883333D01*
X118302438Y-128883333D02*
X118350057Y-128916666D01*
X118350057Y-128916666D02*
X118445295Y-128950000D01*
X118445295Y-128950000D02*
X118635771Y-128983333D01*
X118635771Y-128983333D02*
X118873866Y-128983333D01*
X118873866Y-128983333D02*
X119064342Y-128950000D01*
X119064342Y-128950000D02*
X119159580Y-128916666D01*
X119159580Y-128916666D02*
X119207200Y-128883333D01*
X119207200Y-128883333D02*
X119254819Y-128816666D01*
X119254819Y-128816666D02*
X119254819Y-128750000D01*
X119254819Y-128750000D02*
X119207200Y-128683333D01*
X119207200Y-128683333D02*
X119159580Y-128650000D01*
X119159580Y-128650000D02*
X119064342Y-128616666D01*
X119064342Y-128616666D02*
X118873866Y-128583333D01*
X118873866Y-128583333D02*
X118635771Y-128583333D01*
X118635771Y-128583333D02*
X118445295Y-128616666D01*
X118445295Y-128616666D02*
X118350057Y-128650000D01*
X118350057Y-128650000D02*
X118302438Y-128683333D01*
X118302438Y-128683333D02*
X118254819Y-128750000D01*
X67666666Y-56954819D02*
X67999999Y-56478628D01*
X68238094Y-56954819D02*
X68238094Y-55954819D01*
X68238094Y-55954819D02*
X67857142Y-55954819D01*
X67857142Y-55954819D02*
X67761904Y-56002438D01*
X67761904Y-56002438D02*
X67714285Y-56050057D01*
X67714285Y-56050057D02*
X67666666Y-56145295D01*
X67666666Y-56145295D02*
X67666666Y-56288152D01*
X67666666Y-56288152D02*
X67714285Y-56383390D01*
X67714285Y-56383390D02*
X67761904Y-56431009D01*
X67761904Y-56431009D02*
X67857142Y-56478628D01*
X67857142Y-56478628D02*
X68238094Y-56478628D01*
X67333332Y-55954819D02*
X66666666Y-55954819D01*
X66666666Y-55954819D02*
X67095237Y-56954819D01*
X65589580Y-127983333D02*
X65637200Y-127950000D01*
X65637200Y-127950000D02*
X65684819Y-127850000D01*
X65684819Y-127850000D02*
X65684819Y-127783333D01*
X65684819Y-127783333D02*
X65637200Y-127683333D01*
X65637200Y-127683333D02*
X65541961Y-127616667D01*
X65541961Y-127616667D02*
X65446723Y-127583333D01*
X65446723Y-127583333D02*
X65256247Y-127550000D01*
X65256247Y-127550000D02*
X65113390Y-127550000D01*
X65113390Y-127550000D02*
X64922914Y-127583333D01*
X64922914Y-127583333D02*
X64827676Y-127616667D01*
X64827676Y-127616667D02*
X64732438Y-127683333D01*
X64732438Y-127683333D02*
X64684819Y-127783333D01*
X64684819Y-127783333D02*
X64684819Y-127850000D01*
X64684819Y-127850000D02*
X64732438Y-127950000D01*
X64732438Y-127950000D02*
X64780057Y-127983333D01*
X65018152Y-128583333D02*
X65684819Y-128583333D01*
X64637200Y-128416667D02*
X65351485Y-128250000D01*
X65351485Y-128250000D02*
X65351485Y-128683333D01*
X144354819Y-57633333D02*
X143878628Y-57300000D01*
X144354819Y-57061905D02*
X143354819Y-57061905D01*
X143354819Y-57061905D02*
X143354819Y-57442857D01*
X143354819Y-57442857D02*
X143402438Y-57538095D01*
X143402438Y-57538095D02*
X143450057Y-57585714D01*
X143450057Y-57585714D02*
X143545295Y-57633333D01*
X143545295Y-57633333D02*
X143688152Y-57633333D01*
X143688152Y-57633333D02*
X143783390Y-57585714D01*
X143783390Y-57585714D02*
X143831009Y-57538095D01*
X143831009Y-57538095D02*
X143878628Y-57442857D01*
X143878628Y-57442857D02*
X143878628Y-57061905D01*
X143450057Y-58014286D02*
X143402438Y-58061905D01*
X143402438Y-58061905D02*
X143354819Y-58157143D01*
X143354819Y-58157143D02*
X143354819Y-58395238D01*
X143354819Y-58395238D02*
X143402438Y-58490476D01*
X143402438Y-58490476D02*
X143450057Y-58538095D01*
X143450057Y-58538095D02*
X143545295Y-58585714D01*
X143545295Y-58585714D02*
X143640533Y-58585714D01*
X143640533Y-58585714D02*
X143783390Y-58538095D01*
X143783390Y-58538095D02*
X144354819Y-57966667D01*
X144354819Y-57966667D02*
X144354819Y-58585714D01*
X82854819Y-127649999D02*
X82378628Y-127416666D01*
X82854819Y-127249999D02*
X81854819Y-127249999D01*
X81854819Y-127249999D02*
X81854819Y-127516666D01*
X81854819Y-127516666D02*
X81902438Y-127583333D01*
X81902438Y-127583333D02*
X81950057Y-127616666D01*
X81950057Y-127616666D02*
X82045295Y-127649999D01*
X82045295Y-127649999D02*
X82188152Y-127649999D01*
X82188152Y-127649999D02*
X82283390Y-127616666D01*
X82283390Y-127616666D02*
X82331009Y-127583333D01*
X82331009Y-127583333D02*
X82378628Y-127516666D01*
X82378628Y-127516666D02*
X82378628Y-127249999D01*
X82854819Y-128316666D02*
X82854819Y-127916666D01*
X82854819Y-128116666D02*
X81854819Y-128116666D01*
X81854819Y-128116666D02*
X81997676Y-128049999D01*
X81997676Y-128049999D02*
X82092914Y-127983333D01*
X82092914Y-127983333D02*
X82140533Y-127916666D01*
X82188152Y-128916666D02*
X82854819Y-128916666D01*
X81807200Y-128750000D02*
X82521485Y-128583333D01*
X82521485Y-128583333D02*
X82521485Y-129016666D01*
X53959580Y-126957142D02*
X54007200Y-126909523D01*
X54007200Y-126909523D02*
X54054819Y-126766666D01*
X54054819Y-126766666D02*
X54054819Y-126671428D01*
X54054819Y-126671428D02*
X54007200Y-126528571D01*
X54007200Y-126528571D02*
X53911961Y-126433333D01*
X53911961Y-126433333D02*
X53816723Y-126385714D01*
X53816723Y-126385714D02*
X53626247Y-126338095D01*
X53626247Y-126338095D02*
X53483390Y-126338095D01*
X53483390Y-126338095D02*
X53292914Y-126385714D01*
X53292914Y-126385714D02*
X53197676Y-126433333D01*
X53197676Y-126433333D02*
X53102438Y-126528571D01*
X53102438Y-126528571D02*
X53054819Y-126671428D01*
X53054819Y-126671428D02*
X53054819Y-126766666D01*
X53054819Y-126766666D02*
X53102438Y-126909523D01*
X53102438Y-126909523D02*
X53150057Y-126957142D01*
X54054819Y-127909523D02*
X54054819Y-127338095D01*
X54054819Y-127623809D02*
X53054819Y-127623809D01*
X53054819Y-127623809D02*
X53197676Y-127528571D01*
X53197676Y-127528571D02*
X53292914Y-127433333D01*
X53292914Y-127433333D02*
X53340533Y-127338095D01*
X53054819Y-128528571D02*
X53054819Y-128623809D01*
X53054819Y-128623809D02*
X53102438Y-128719047D01*
X53102438Y-128719047D02*
X53150057Y-128766666D01*
X53150057Y-128766666D02*
X53245295Y-128814285D01*
X53245295Y-128814285D02*
X53435771Y-128861904D01*
X53435771Y-128861904D02*
X53673866Y-128861904D01*
X53673866Y-128861904D02*
X53864342Y-128814285D01*
X53864342Y-128814285D02*
X53959580Y-128766666D01*
X53959580Y-128766666D02*
X54007200Y-128719047D01*
X54007200Y-128719047D02*
X54054819Y-128623809D01*
X54054819Y-128623809D02*
X54054819Y-128528571D01*
X54054819Y-128528571D02*
X54007200Y-128433333D01*
X54007200Y-128433333D02*
X53959580Y-128385714D01*
X53959580Y-128385714D02*
X53864342Y-128338095D01*
X53864342Y-128338095D02*
X53673866Y-128290476D01*
X53673866Y-128290476D02*
X53435771Y-128290476D01*
X53435771Y-128290476D02*
X53245295Y-128338095D01*
X53245295Y-128338095D02*
X53150057Y-128385714D01*
X53150057Y-128385714D02*
X53102438Y-128433333D01*
X53102438Y-128433333D02*
X53054819Y-128528571D01*
X60554819Y-127649999D02*
X60078628Y-127416666D01*
X60554819Y-127249999D02*
X59554819Y-127249999D01*
X59554819Y-127249999D02*
X59554819Y-127516666D01*
X59554819Y-127516666D02*
X59602438Y-127583333D01*
X59602438Y-127583333D02*
X59650057Y-127616666D01*
X59650057Y-127616666D02*
X59745295Y-127649999D01*
X59745295Y-127649999D02*
X59888152Y-127649999D01*
X59888152Y-127649999D02*
X59983390Y-127616666D01*
X59983390Y-127616666D02*
X60031009Y-127583333D01*
X60031009Y-127583333D02*
X60078628Y-127516666D01*
X60078628Y-127516666D02*
X60078628Y-127249999D01*
X60554819Y-128316666D02*
X60554819Y-127916666D01*
X60554819Y-128116666D02*
X59554819Y-128116666D01*
X59554819Y-128116666D02*
X59697676Y-128049999D01*
X59697676Y-128049999D02*
X59792914Y-127983333D01*
X59792914Y-127983333D02*
X59840533Y-127916666D01*
X59554819Y-128550000D02*
X59554819Y-128983333D01*
X59554819Y-128983333D02*
X59935771Y-128750000D01*
X59935771Y-128750000D02*
X59935771Y-128850000D01*
X59935771Y-128850000D02*
X59983390Y-128916666D01*
X59983390Y-128916666D02*
X60031009Y-128950000D01*
X60031009Y-128950000D02*
X60126247Y-128983333D01*
X60126247Y-128983333D02*
X60364342Y-128983333D01*
X60364342Y-128983333D02*
X60459580Y-128950000D01*
X60459580Y-128950000D02*
X60507200Y-128916666D01*
X60507200Y-128916666D02*
X60554819Y-128850000D01*
X60554819Y-128850000D02*
X60554819Y-128650000D01*
X60554819Y-128650000D02*
X60507200Y-128583333D01*
X60507200Y-128583333D02*
X60459580Y-128550000D01*
X90961904Y-58254819D02*
X90961904Y-59064342D01*
X90961904Y-59064342D02*
X90914285Y-59159580D01*
X90914285Y-59159580D02*
X90866666Y-59207200D01*
X90866666Y-59207200D02*
X90771428Y-59254819D01*
X90771428Y-59254819D02*
X90580952Y-59254819D01*
X90580952Y-59254819D02*
X90485714Y-59207200D01*
X90485714Y-59207200D02*
X90438095Y-59159580D01*
X90438095Y-59159580D02*
X90390476Y-59064342D01*
X90390476Y-59064342D02*
X90390476Y-58254819D01*
X90009523Y-58254819D02*
X89390476Y-58254819D01*
X89390476Y-58254819D02*
X89723809Y-58635771D01*
X89723809Y-58635771D02*
X89580952Y-58635771D01*
X89580952Y-58635771D02*
X89485714Y-58683390D01*
X89485714Y-58683390D02*
X89438095Y-58731009D01*
X89438095Y-58731009D02*
X89390476Y-58826247D01*
X89390476Y-58826247D02*
X89390476Y-59064342D01*
X89390476Y-59064342D02*
X89438095Y-59159580D01*
X89438095Y-59159580D02*
X89485714Y-59207200D01*
X89485714Y-59207200D02*
X89580952Y-59254819D01*
X89580952Y-59254819D02*
X89866666Y-59254819D01*
X89866666Y-59254819D02*
X89961904Y-59207200D01*
X89961904Y-59207200D02*
X90009523Y-59159580D01*
X62159580Y-127983333D02*
X62207200Y-127950000D01*
X62207200Y-127950000D02*
X62254819Y-127850000D01*
X62254819Y-127850000D02*
X62254819Y-127783333D01*
X62254819Y-127783333D02*
X62207200Y-127683333D01*
X62207200Y-127683333D02*
X62111961Y-127616667D01*
X62111961Y-127616667D02*
X62016723Y-127583333D01*
X62016723Y-127583333D02*
X61826247Y-127550000D01*
X61826247Y-127550000D02*
X61683390Y-127550000D01*
X61683390Y-127550000D02*
X61492914Y-127583333D01*
X61492914Y-127583333D02*
X61397676Y-127616667D01*
X61397676Y-127616667D02*
X61302438Y-127683333D01*
X61302438Y-127683333D02*
X61254819Y-127783333D01*
X61254819Y-127783333D02*
X61254819Y-127850000D01*
X61254819Y-127850000D02*
X61302438Y-127950000D01*
X61302438Y-127950000D02*
X61350057Y-127983333D01*
X61254819Y-128583333D02*
X61254819Y-128450000D01*
X61254819Y-128450000D02*
X61302438Y-128383333D01*
X61302438Y-128383333D02*
X61350057Y-128350000D01*
X61350057Y-128350000D02*
X61492914Y-128283333D01*
X61492914Y-128283333D02*
X61683390Y-128250000D01*
X61683390Y-128250000D02*
X62064342Y-128250000D01*
X62064342Y-128250000D02*
X62159580Y-128283333D01*
X62159580Y-128283333D02*
X62207200Y-128316667D01*
X62207200Y-128316667D02*
X62254819Y-128383333D01*
X62254819Y-128383333D02*
X62254819Y-128516667D01*
X62254819Y-128516667D02*
X62207200Y-128583333D01*
X62207200Y-128583333D02*
X62159580Y-128616667D01*
X62159580Y-128616667D02*
X62064342Y-128650000D01*
X62064342Y-128650000D02*
X61826247Y-128650000D01*
X61826247Y-128650000D02*
X61731009Y-128616667D01*
X61731009Y-128616667D02*
X61683390Y-128583333D01*
X61683390Y-128583333D02*
X61635771Y-128516667D01*
X61635771Y-128516667D02*
X61635771Y-128383333D01*
X61635771Y-128383333D02*
X61683390Y-128316667D01*
X61683390Y-128316667D02*
X61731009Y-128283333D01*
X61731009Y-128283333D02*
X61826247Y-128250000D01*
X84559580Y-127649999D02*
X84607200Y-127616666D01*
X84607200Y-127616666D02*
X84654819Y-127516666D01*
X84654819Y-127516666D02*
X84654819Y-127449999D01*
X84654819Y-127449999D02*
X84607200Y-127349999D01*
X84607200Y-127349999D02*
X84511961Y-127283333D01*
X84511961Y-127283333D02*
X84416723Y-127249999D01*
X84416723Y-127249999D02*
X84226247Y-127216666D01*
X84226247Y-127216666D02*
X84083390Y-127216666D01*
X84083390Y-127216666D02*
X83892914Y-127249999D01*
X83892914Y-127249999D02*
X83797676Y-127283333D01*
X83797676Y-127283333D02*
X83702438Y-127349999D01*
X83702438Y-127349999D02*
X83654819Y-127449999D01*
X83654819Y-127449999D02*
X83654819Y-127516666D01*
X83654819Y-127516666D02*
X83702438Y-127616666D01*
X83702438Y-127616666D02*
X83750057Y-127649999D01*
X84654819Y-128316666D02*
X84654819Y-127916666D01*
X84654819Y-128116666D02*
X83654819Y-128116666D01*
X83654819Y-128116666D02*
X83797676Y-128049999D01*
X83797676Y-128049999D02*
X83892914Y-127983333D01*
X83892914Y-127983333D02*
X83940533Y-127916666D01*
X84654819Y-128983333D02*
X84654819Y-128583333D01*
X84654819Y-128783333D02*
X83654819Y-128783333D01*
X83654819Y-128783333D02*
X83797676Y-128716666D01*
X83797676Y-128716666D02*
X83892914Y-128650000D01*
X83892914Y-128650000D02*
X83940533Y-128583333D01*
X74459580Y-121057142D02*
X74507200Y-121009523D01*
X74507200Y-121009523D02*
X74554819Y-120866666D01*
X74554819Y-120866666D02*
X74554819Y-120771428D01*
X74554819Y-120771428D02*
X74507200Y-120628571D01*
X74507200Y-120628571D02*
X74411961Y-120533333D01*
X74411961Y-120533333D02*
X74316723Y-120485714D01*
X74316723Y-120485714D02*
X74126247Y-120438095D01*
X74126247Y-120438095D02*
X73983390Y-120438095D01*
X73983390Y-120438095D02*
X73792914Y-120485714D01*
X73792914Y-120485714D02*
X73697676Y-120533333D01*
X73697676Y-120533333D02*
X73602438Y-120628571D01*
X73602438Y-120628571D02*
X73554819Y-120771428D01*
X73554819Y-120771428D02*
X73554819Y-120866666D01*
X73554819Y-120866666D02*
X73602438Y-121009523D01*
X73602438Y-121009523D02*
X73650057Y-121057142D01*
X74554819Y-122009523D02*
X74554819Y-121438095D01*
X74554819Y-121723809D02*
X73554819Y-121723809D01*
X73554819Y-121723809D02*
X73697676Y-121628571D01*
X73697676Y-121628571D02*
X73792914Y-121533333D01*
X73792914Y-121533333D02*
X73840533Y-121438095D01*
X73554819Y-122914285D02*
X73554819Y-122438095D01*
X73554819Y-122438095D02*
X74031009Y-122390476D01*
X74031009Y-122390476D02*
X73983390Y-122438095D01*
X73983390Y-122438095D02*
X73935771Y-122533333D01*
X73935771Y-122533333D02*
X73935771Y-122771428D01*
X73935771Y-122771428D02*
X73983390Y-122866666D01*
X73983390Y-122866666D02*
X74031009Y-122914285D01*
X74031009Y-122914285D02*
X74126247Y-122961904D01*
X74126247Y-122961904D02*
X74364342Y-122961904D01*
X74364342Y-122961904D02*
X74459580Y-122914285D01*
X74459580Y-122914285D02*
X74507200Y-122866666D01*
X74507200Y-122866666D02*
X74554819Y-122771428D01*
X74554819Y-122771428D02*
X74554819Y-122533333D01*
X74554819Y-122533333D02*
X74507200Y-122438095D01*
X74507200Y-122438095D02*
X74459580Y-122390476D01*
X91859580Y-127157142D02*
X91907200Y-127109523D01*
X91907200Y-127109523D02*
X91954819Y-126966666D01*
X91954819Y-126966666D02*
X91954819Y-126871428D01*
X91954819Y-126871428D02*
X91907200Y-126728571D01*
X91907200Y-126728571D02*
X91811961Y-126633333D01*
X91811961Y-126633333D02*
X91716723Y-126585714D01*
X91716723Y-126585714D02*
X91526247Y-126538095D01*
X91526247Y-126538095D02*
X91383390Y-126538095D01*
X91383390Y-126538095D02*
X91192914Y-126585714D01*
X91192914Y-126585714D02*
X91097676Y-126633333D01*
X91097676Y-126633333D02*
X91002438Y-126728571D01*
X91002438Y-126728571D02*
X90954819Y-126871428D01*
X90954819Y-126871428D02*
X90954819Y-126966666D01*
X90954819Y-126966666D02*
X91002438Y-127109523D01*
X91002438Y-127109523D02*
X91050057Y-127157142D01*
X90954819Y-127490476D02*
X90954819Y-128109523D01*
X90954819Y-128109523D02*
X91335771Y-127776190D01*
X91335771Y-127776190D02*
X91335771Y-127919047D01*
X91335771Y-127919047D02*
X91383390Y-128014285D01*
X91383390Y-128014285D02*
X91431009Y-128061904D01*
X91431009Y-128061904D02*
X91526247Y-128109523D01*
X91526247Y-128109523D02*
X91764342Y-128109523D01*
X91764342Y-128109523D02*
X91859580Y-128061904D01*
X91859580Y-128061904D02*
X91907200Y-128014285D01*
X91907200Y-128014285D02*
X91954819Y-127919047D01*
X91954819Y-127919047D02*
X91954819Y-127633333D01*
X91954819Y-127633333D02*
X91907200Y-127538095D01*
X91907200Y-127538095D02*
X91859580Y-127490476D01*
X91954819Y-129061904D02*
X91954819Y-128490476D01*
X91954819Y-128776190D02*
X90954819Y-128776190D01*
X90954819Y-128776190D02*
X91097676Y-128680952D01*
X91097676Y-128680952D02*
X91192914Y-128585714D01*
X91192914Y-128585714D02*
X91240533Y-128490476D01*
X55459580Y-127033333D02*
X55507200Y-126985714D01*
X55507200Y-126985714D02*
X55554819Y-126842857D01*
X55554819Y-126842857D02*
X55554819Y-126747619D01*
X55554819Y-126747619D02*
X55507200Y-126604762D01*
X55507200Y-126604762D02*
X55411961Y-126509524D01*
X55411961Y-126509524D02*
X55316723Y-126461905D01*
X55316723Y-126461905D02*
X55126247Y-126414286D01*
X55126247Y-126414286D02*
X54983390Y-126414286D01*
X54983390Y-126414286D02*
X54792914Y-126461905D01*
X54792914Y-126461905D02*
X54697676Y-126509524D01*
X54697676Y-126509524D02*
X54602438Y-126604762D01*
X54602438Y-126604762D02*
X54554819Y-126747619D01*
X54554819Y-126747619D02*
X54554819Y-126842857D01*
X54554819Y-126842857D02*
X54602438Y-126985714D01*
X54602438Y-126985714D02*
X54650057Y-127033333D01*
X54983390Y-127604762D02*
X54935771Y-127509524D01*
X54935771Y-127509524D02*
X54888152Y-127461905D01*
X54888152Y-127461905D02*
X54792914Y-127414286D01*
X54792914Y-127414286D02*
X54745295Y-127414286D01*
X54745295Y-127414286D02*
X54650057Y-127461905D01*
X54650057Y-127461905D02*
X54602438Y-127509524D01*
X54602438Y-127509524D02*
X54554819Y-127604762D01*
X54554819Y-127604762D02*
X54554819Y-127795238D01*
X54554819Y-127795238D02*
X54602438Y-127890476D01*
X54602438Y-127890476D02*
X54650057Y-127938095D01*
X54650057Y-127938095D02*
X54745295Y-127985714D01*
X54745295Y-127985714D02*
X54792914Y-127985714D01*
X54792914Y-127985714D02*
X54888152Y-127938095D01*
X54888152Y-127938095D02*
X54935771Y-127890476D01*
X54935771Y-127890476D02*
X54983390Y-127795238D01*
X54983390Y-127795238D02*
X54983390Y-127604762D01*
X54983390Y-127604762D02*
X55031009Y-127509524D01*
X55031009Y-127509524D02*
X55078628Y-127461905D01*
X55078628Y-127461905D02*
X55173866Y-127414286D01*
X55173866Y-127414286D02*
X55364342Y-127414286D01*
X55364342Y-127414286D02*
X55459580Y-127461905D01*
X55459580Y-127461905D02*
X55507200Y-127509524D01*
X55507200Y-127509524D02*
X55554819Y-127604762D01*
X55554819Y-127604762D02*
X55554819Y-127795238D01*
X55554819Y-127795238D02*
X55507200Y-127890476D01*
X55507200Y-127890476D02*
X55459580Y-127938095D01*
X55459580Y-127938095D02*
X55364342Y-127985714D01*
X55364342Y-127985714D02*
X55173866Y-127985714D01*
X55173866Y-127985714D02*
X55078628Y-127938095D01*
X55078628Y-127938095D02*
X55031009Y-127890476D01*
X55031009Y-127890476D02*
X54983390Y-127795238D01*
X131459580Y-126957142D02*
X131507200Y-126909523D01*
X131507200Y-126909523D02*
X131554819Y-126766666D01*
X131554819Y-126766666D02*
X131554819Y-126671428D01*
X131554819Y-126671428D02*
X131507200Y-126528571D01*
X131507200Y-126528571D02*
X131411961Y-126433333D01*
X131411961Y-126433333D02*
X131316723Y-126385714D01*
X131316723Y-126385714D02*
X131126247Y-126338095D01*
X131126247Y-126338095D02*
X130983390Y-126338095D01*
X130983390Y-126338095D02*
X130792914Y-126385714D01*
X130792914Y-126385714D02*
X130697676Y-126433333D01*
X130697676Y-126433333D02*
X130602438Y-126528571D01*
X130602438Y-126528571D02*
X130554819Y-126671428D01*
X130554819Y-126671428D02*
X130554819Y-126766666D01*
X130554819Y-126766666D02*
X130602438Y-126909523D01*
X130602438Y-126909523D02*
X130650057Y-126957142D01*
X130554819Y-127290476D02*
X130554819Y-127909523D01*
X130554819Y-127909523D02*
X130935771Y-127576190D01*
X130935771Y-127576190D02*
X130935771Y-127719047D01*
X130935771Y-127719047D02*
X130983390Y-127814285D01*
X130983390Y-127814285D02*
X131031009Y-127861904D01*
X131031009Y-127861904D02*
X131126247Y-127909523D01*
X131126247Y-127909523D02*
X131364342Y-127909523D01*
X131364342Y-127909523D02*
X131459580Y-127861904D01*
X131459580Y-127861904D02*
X131507200Y-127814285D01*
X131507200Y-127814285D02*
X131554819Y-127719047D01*
X131554819Y-127719047D02*
X131554819Y-127433333D01*
X131554819Y-127433333D02*
X131507200Y-127338095D01*
X131507200Y-127338095D02*
X131459580Y-127290476D01*
X130554819Y-128766666D02*
X130554819Y-128576190D01*
X130554819Y-128576190D02*
X130602438Y-128480952D01*
X130602438Y-128480952D02*
X130650057Y-128433333D01*
X130650057Y-128433333D02*
X130792914Y-128338095D01*
X130792914Y-128338095D02*
X130983390Y-128290476D01*
X130983390Y-128290476D02*
X131364342Y-128290476D01*
X131364342Y-128290476D02*
X131459580Y-128338095D01*
X131459580Y-128338095D02*
X131507200Y-128385714D01*
X131507200Y-128385714D02*
X131554819Y-128480952D01*
X131554819Y-128480952D02*
X131554819Y-128671428D01*
X131554819Y-128671428D02*
X131507200Y-128766666D01*
X131507200Y-128766666D02*
X131459580Y-128814285D01*
X131459580Y-128814285D02*
X131364342Y-128861904D01*
X131364342Y-128861904D02*
X131126247Y-128861904D01*
X131126247Y-128861904D02*
X131031009Y-128814285D01*
X131031009Y-128814285D02*
X130983390Y-128766666D01*
X130983390Y-128766666D02*
X130935771Y-128671428D01*
X130935771Y-128671428D02*
X130935771Y-128480952D01*
X130935771Y-128480952D02*
X130983390Y-128385714D01*
X130983390Y-128385714D02*
X131031009Y-128338095D01*
X131031009Y-128338095D02*
X131126247Y-128290476D01*
X139954819Y-127649999D02*
X139478628Y-127416666D01*
X139954819Y-127249999D02*
X138954819Y-127249999D01*
X138954819Y-127249999D02*
X138954819Y-127516666D01*
X138954819Y-127516666D02*
X139002438Y-127583333D01*
X139002438Y-127583333D02*
X139050057Y-127616666D01*
X139050057Y-127616666D02*
X139145295Y-127649999D01*
X139145295Y-127649999D02*
X139288152Y-127649999D01*
X139288152Y-127649999D02*
X139383390Y-127616666D01*
X139383390Y-127616666D02*
X139431009Y-127583333D01*
X139431009Y-127583333D02*
X139478628Y-127516666D01*
X139478628Y-127516666D02*
X139478628Y-127249999D01*
X139050057Y-127916666D02*
X139002438Y-127949999D01*
X139002438Y-127949999D02*
X138954819Y-128016666D01*
X138954819Y-128016666D02*
X138954819Y-128183333D01*
X138954819Y-128183333D02*
X139002438Y-128249999D01*
X139002438Y-128249999D02*
X139050057Y-128283333D01*
X139050057Y-128283333D02*
X139145295Y-128316666D01*
X139145295Y-128316666D02*
X139240533Y-128316666D01*
X139240533Y-128316666D02*
X139383390Y-128283333D01*
X139383390Y-128283333D02*
X139954819Y-127883333D01*
X139954819Y-127883333D02*
X139954819Y-128316666D01*
X138954819Y-128550000D02*
X138954819Y-128983333D01*
X138954819Y-128983333D02*
X139335771Y-128750000D01*
X139335771Y-128750000D02*
X139335771Y-128850000D01*
X139335771Y-128850000D02*
X139383390Y-128916666D01*
X139383390Y-128916666D02*
X139431009Y-128950000D01*
X139431009Y-128950000D02*
X139526247Y-128983333D01*
X139526247Y-128983333D02*
X139764342Y-128983333D01*
X139764342Y-128983333D02*
X139859580Y-128950000D01*
X139859580Y-128950000D02*
X139907200Y-128916666D01*
X139907200Y-128916666D02*
X139954819Y-128850000D01*
X139954819Y-128850000D02*
X139954819Y-128650000D01*
X139954819Y-128650000D02*
X139907200Y-128583333D01*
X139907200Y-128583333D02*
X139859580Y-128550000D01*
X57154819Y-126957142D02*
X56678628Y-126623809D01*
X57154819Y-126385714D02*
X56154819Y-126385714D01*
X56154819Y-126385714D02*
X56154819Y-126766666D01*
X56154819Y-126766666D02*
X56202438Y-126861904D01*
X56202438Y-126861904D02*
X56250057Y-126909523D01*
X56250057Y-126909523D02*
X56345295Y-126957142D01*
X56345295Y-126957142D02*
X56488152Y-126957142D01*
X56488152Y-126957142D02*
X56583390Y-126909523D01*
X56583390Y-126909523D02*
X56631009Y-126861904D01*
X56631009Y-126861904D02*
X56678628Y-126766666D01*
X56678628Y-126766666D02*
X56678628Y-126385714D01*
X57154819Y-127909523D02*
X57154819Y-127338095D01*
X57154819Y-127623809D02*
X56154819Y-127623809D01*
X56154819Y-127623809D02*
X56297676Y-127528571D01*
X56297676Y-127528571D02*
X56392914Y-127433333D01*
X56392914Y-127433333D02*
X56440533Y-127338095D01*
X56250057Y-128290476D02*
X56202438Y-128338095D01*
X56202438Y-128338095D02*
X56154819Y-128433333D01*
X56154819Y-128433333D02*
X56154819Y-128671428D01*
X56154819Y-128671428D02*
X56202438Y-128766666D01*
X56202438Y-128766666D02*
X56250057Y-128814285D01*
X56250057Y-128814285D02*
X56345295Y-128861904D01*
X56345295Y-128861904D02*
X56440533Y-128861904D01*
X56440533Y-128861904D02*
X56583390Y-128814285D01*
X56583390Y-128814285D02*
X57154819Y-128242857D01*
X57154819Y-128242857D02*
X57154819Y-128861904D01*
X95054819Y-127157142D02*
X94578628Y-126823809D01*
X95054819Y-126585714D02*
X94054819Y-126585714D01*
X94054819Y-126585714D02*
X94054819Y-126966666D01*
X94054819Y-126966666D02*
X94102438Y-127061904D01*
X94102438Y-127061904D02*
X94150057Y-127109523D01*
X94150057Y-127109523D02*
X94245295Y-127157142D01*
X94245295Y-127157142D02*
X94388152Y-127157142D01*
X94388152Y-127157142D02*
X94483390Y-127109523D01*
X94483390Y-127109523D02*
X94531009Y-127061904D01*
X94531009Y-127061904D02*
X94578628Y-126966666D01*
X94578628Y-126966666D02*
X94578628Y-126585714D01*
X94150057Y-127538095D02*
X94102438Y-127585714D01*
X94102438Y-127585714D02*
X94054819Y-127680952D01*
X94054819Y-127680952D02*
X94054819Y-127919047D01*
X94054819Y-127919047D02*
X94102438Y-128014285D01*
X94102438Y-128014285D02*
X94150057Y-128061904D01*
X94150057Y-128061904D02*
X94245295Y-128109523D01*
X94245295Y-128109523D02*
X94340533Y-128109523D01*
X94340533Y-128109523D02*
X94483390Y-128061904D01*
X94483390Y-128061904D02*
X95054819Y-127490476D01*
X95054819Y-127490476D02*
X95054819Y-128109523D01*
X95054819Y-129061904D02*
X95054819Y-128490476D01*
X95054819Y-128776190D02*
X94054819Y-128776190D01*
X94054819Y-128776190D02*
X94197676Y-128680952D01*
X94197676Y-128680952D02*
X94292914Y-128585714D01*
X94292914Y-128585714D02*
X94340533Y-128490476D01*
X68859580Y-122033333D02*
X68907200Y-121985714D01*
X68907200Y-121985714D02*
X68954819Y-121842857D01*
X68954819Y-121842857D02*
X68954819Y-121747619D01*
X68954819Y-121747619D02*
X68907200Y-121604762D01*
X68907200Y-121604762D02*
X68811961Y-121509524D01*
X68811961Y-121509524D02*
X68716723Y-121461905D01*
X68716723Y-121461905D02*
X68526247Y-121414286D01*
X68526247Y-121414286D02*
X68383390Y-121414286D01*
X68383390Y-121414286D02*
X68192914Y-121461905D01*
X68192914Y-121461905D02*
X68097676Y-121509524D01*
X68097676Y-121509524D02*
X68002438Y-121604762D01*
X68002438Y-121604762D02*
X67954819Y-121747619D01*
X67954819Y-121747619D02*
X67954819Y-121842857D01*
X67954819Y-121842857D02*
X68002438Y-121985714D01*
X68002438Y-121985714D02*
X68050057Y-122033333D01*
X67954819Y-122366667D02*
X67954819Y-123033333D01*
X67954819Y-123033333D02*
X68954819Y-122604762D01*
D12*
X126533333Y-59452219D02*
X126533333Y-60166504D01*
X126533333Y-60166504D02*
X126580952Y-60309361D01*
X126580952Y-60309361D02*
X126676190Y-60404600D01*
X126676190Y-60404600D02*
X126819047Y-60452219D01*
X126819047Y-60452219D02*
X126914285Y-60452219D01*
X125533333Y-60452219D02*
X126104761Y-60452219D01*
X125819047Y-60452219D02*
X125819047Y-59452219D01*
X125819047Y-59452219D02*
X125914285Y-59595076D01*
X125914285Y-59595076D02*
X126009523Y-59690314D01*
X126009523Y-59690314D02*
X126104761Y-59737933D01*
D10*
X124316917Y-55839638D02*
X123078822Y-55839638D01*
X123078822Y-55839638D02*
X123745489Y-56601542D01*
X123745489Y-56601542D02*
X123459774Y-56601542D01*
X123459774Y-56601542D02*
X123269298Y-56696780D01*
X123269298Y-56696780D02*
X123174060Y-56792019D01*
X123174060Y-56792019D02*
X123078822Y-56982495D01*
X123078822Y-56982495D02*
X123078822Y-57458685D01*
X123078822Y-57458685D02*
X123174060Y-57649161D01*
X123174060Y-57649161D02*
X123269298Y-57744400D01*
X123269298Y-57744400D02*
X123459774Y-57839638D01*
X123459774Y-57839638D02*
X124031203Y-57839638D01*
X124031203Y-57839638D02*
X124221679Y-57744400D01*
X124221679Y-57744400D02*
X124316917Y-57649161D01*
X125874060Y-55839638D02*
X126826441Y-55839638D01*
X126826441Y-55839638D02*
X126921679Y-56792019D01*
X126921679Y-56792019D02*
X126826441Y-56696780D01*
X126826441Y-56696780D02*
X126635965Y-56601542D01*
X126635965Y-56601542D02*
X126159774Y-56601542D01*
X126159774Y-56601542D02*
X125969298Y-56696780D01*
X125969298Y-56696780D02*
X125874060Y-56792019D01*
X125874060Y-56792019D02*
X125778822Y-56982495D01*
X125778822Y-56982495D02*
X125778822Y-57458685D01*
X125778822Y-57458685D02*
X125874060Y-57649161D01*
X125874060Y-57649161D02*
X125969298Y-57744400D01*
X125969298Y-57744400D02*
X126159774Y-57839638D01*
X126159774Y-57839638D02*
X126635965Y-57839638D01*
X126635965Y-57839638D02*
X126826441Y-57744400D01*
X126826441Y-57744400D02*
X126921679Y-57649161D01*
X120578822Y-55934876D02*
X120769298Y-55839638D01*
X120769298Y-55839638D02*
X121055012Y-55839638D01*
X121055012Y-55839638D02*
X121340727Y-55934876D01*
X121340727Y-55934876D02*
X121531203Y-56125352D01*
X121531203Y-56125352D02*
X121626441Y-56315828D01*
X121626441Y-56315828D02*
X121721679Y-56696780D01*
X121721679Y-56696780D02*
X121721679Y-56982495D01*
X121721679Y-56982495D02*
X121626441Y-57363447D01*
X121626441Y-57363447D02*
X121531203Y-57553923D01*
X121531203Y-57553923D02*
X121340727Y-57744400D01*
X121340727Y-57744400D02*
X121055012Y-57839638D01*
X121055012Y-57839638D02*
X120864536Y-57839638D01*
X120864536Y-57839638D02*
X120578822Y-57744400D01*
X120578822Y-57744400D02*
X120483584Y-57649161D01*
X120483584Y-57649161D02*
X120483584Y-56982495D01*
X120483584Y-56982495D02*
X120864536Y-56982495D01*
D11*
X146759580Y-126857142D02*
X146807200Y-126809523D01*
X146807200Y-126809523D02*
X146854819Y-126666666D01*
X146854819Y-126666666D02*
X146854819Y-126571428D01*
X146854819Y-126571428D02*
X146807200Y-126428571D01*
X146807200Y-126428571D02*
X146711961Y-126333333D01*
X146711961Y-126333333D02*
X146616723Y-126285714D01*
X146616723Y-126285714D02*
X146426247Y-126238095D01*
X146426247Y-126238095D02*
X146283390Y-126238095D01*
X146283390Y-126238095D02*
X146092914Y-126285714D01*
X146092914Y-126285714D02*
X145997676Y-126333333D01*
X145997676Y-126333333D02*
X145902438Y-126428571D01*
X145902438Y-126428571D02*
X145854819Y-126571428D01*
X145854819Y-126571428D02*
X145854819Y-126666666D01*
X145854819Y-126666666D02*
X145902438Y-126809523D01*
X145902438Y-126809523D02*
X145950057Y-126857142D01*
X145854819Y-127190476D02*
X145854819Y-127809523D01*
X145854819Y-127809523D02*
X146235771Y-127476190D01*
X146235771Y-127476190D02*
X146235771Y-127619047D01*
X146235771Y-127619047D02*
X146283390Y-127714285D01*
X146283390Y-127714285D02*
X146331009Y-127761904D01*
X146331009Y-127761904D02*
X146426247Y-127809523D01*
X146426247Y-127809523D02*
X146664342Y-127809523D01*
X146664342Y-127809523D02*
X146759580Y-127761904D01*
X146759580Y-127761904D02*
X146807200Y-127714285D01*
X146807200Y-127714285D02*
X146854819Y-127619047D01*
X146854819Y-127619047D02*
X146854819Y-127333333D01*
X146854819Y-127333333D02*
X146807200Y-127238095D01*
X146807200Y-127238095D02*
X146759580Y-127190476D01*
X145854819Y-128142857D02*
X145854819Y-128809523D01*
X145854819Y-128809523D02*
X146854819Y-128380952D01*
X72759580Y-121057142D02*
X72807200Y-121009523D01*
X72807200Y-121009523D02*
X72854819Y-120866666D01*
X72854819Y-120866666D02*
X72854819Y-120771428D01*
X72854819Y-120771428D02*
X72807200Y-120628571D01*
X72807200Y-120628571D02*
X72711961Y-120533333D01*
X72711961Y-120533333D02*
X72616723Y-120485714D01*
X72616723Y-120485714D02*
X72426247Y-120438095D01*
X72426247Y-120438095D02*
X72283390Y-120438095D01*
X72283390Y-120438095D02*
X72092914Y-120485714D01*
X72092914Y-120485714D02*
X71997676Y-120533333D01*
X71997676Y-120533333D02*
X71902438Y-120628571D01*
X71902438Y-120628571D02*
X71854819Y-120771428D01*
X71854819Y-120771428D02*
X71854819Y-120866666D01*
X71854819Y-120866666D02*
X71902438Y-121009523D01*
X71902438Y-121009523D02*
X71950057Y-121057142D01*
X72854819Y-122009523D02*
X72854819Y-121438095D01*
X72854819Y-121723809D02*
X71854819Y-121723809D01*
X71854819Y-121723809D02*
X71997676Y-121628571D01*
X71997676Y-121628571D02*
X72092914Y-121533333D01*
X72092914Y-121533333D02*
X72140533Y-121438095D01*
X71854819Y-122342857D02*
X71854819Y-123009523D01*
X71854819Y-123009523D02*
X72854819Y-122580952D01*
X105159580Y-127674999D02*
X105207200Y-127641666D01*
X105207200Y-127641666D02*
X105254819Y-127541666D01*
X105254819Y-127541666D02*
X105254819Y-127474999D01*
X105254819Y-127474999D02*
X105207200Y-127374999D01*
X105207200Y-127374999D02*
X105111961Y-127308333D01*
X105111961Y-127308333D02*
X105016723Y-127274999D01*
X105016723Y-127274999D02*
X104826247Y-127241666D01*
X104826247Y-127241666D02*
X104683390Y-127241666D01*
X104683390Y-127241666D02*
X104492914Y-127274999D01*
X104492914Y-127274999D02*
X104397676Y-127308333D01*
X104397676Y-127308333D02*
X104302438Y-127374999D01*
X104302438Y-127374999D02*
X104254819Y-127474999D01*
X104254819Y-127474999D02*
X104254819Y-127541666D01*
X104254819Y-127541666D02*
X104302438Y-127641666D01*
X104302438Y-127641666D02*
X104350057Y-127674999D01*
X104350057Y-127941666D02*
X104302438Y-127974999D01*
X104302438Y-127974999D02*
X104254819Y-128041666D01*
X104254819Y-128041666D02*
X104254819Y-128208333D01*
X104254819Y-128208333D02*
X104302438Y-128274999D01*
X104302438Y-128274999D02*
X104350057Y-128308333D01*
X104350057Y-128308333D02*
X104445295Y-128341666D01*
X104445295Y-128341666D02*
X104540533Y-128341666D01*
X104540533Y-128341666D02*
X104683390Y-128308333D01*
X104683390Y-128308333D02*
X105254819Y-127908333D01*
X105254819Y-127908333D02*
X105254819Y-128341666D01*
X104254819Y-128941666D02*
X104254819Y-128808333D01*
X104254819Y-128808333D02*
X104302438Y-128741666D01*
X104302438Y-128741666D02*
X104350057Y-128708333D01*
X104350057Y-128708333D02*
X104492914Y-128641666D01*
X104492914Y-128641666D02*
X104683390Y-128608333D01*
X104683390Y-128608333D02*
X105064342Y-128608333D01*
X105064342Y-128608333D02*
X105159580Y-128641666D01*
X105159580Y-128641666D02*
X105207200Y-128675000D01*
X105207200Y-128675000D02*
X105254819Y-128741666D01*
X105254819Y-128741666D02*
X105254819Y-128875000D01*
X105254819Y-128875000D02*
X105207200Y-128941666D01*
X105207200Y-128941666D02*
X105159580Y-128975000D01*
X105159580Y-128975000D02*
X105064342Y-129008333D01*
X105064342Y-129008333D02*
X104826247Y-129008333D01*
X104826247Y-129008333D02*
X104731009Y-128975000D01*
X104731009Y-128975000D02*
X104683390Y-128941666D01*
X104683390Y-128941666D02*
X104635771Y-128875000D01*
X104635771Y-128875000D02*
X104635771Y-128741666D01*
X104635771Y-128741666D02*
X104683390Y-128675000D01*
X104683390Y-128675000D02*
X104731009Y-128641666D01*
X104731009Y-128641666D02*
X104826247Y-128608333D01*
D13*
%TO.C,C38*%
X128990000Y-130753733D02*
X128990000Y-131046267D01*
X130010000Y-130753733D02*
X130010000Y-131046267D01*
%TO.C,R25*%
X134877500Y-130545276D02*
X134877500Y-131054724D01*
X135922500Y-130545276D02*
X135922500Y-131054724D01*
%TO.C,R17*%
X119877500Y-131067224D02*
X119877500Y-130557776D01*
X120922500Y-131067224D02*
X120922500Y-130557776D01*
D14*
%TO.C,U7*%
X71575000Y-136050000D02*
X72875000Y-137350000D01*
X72875000Y-137350000D02*
X89125000Y-137350000D01*
X89125000Y-137350000D02*
X90425000Y-136050000D01*
X90300000Y-132600000D02*
X90300000Y-131800000D01*
X71575000Y-136050000D02*
X90425000Y-136050000D01*
X90425000Y-132800000D01*
X71575000Y-132800000D01*
X71575000Y-136050000D01*
D13*
%TO.C,C27*%
X99290000Y-130666233D02*
X99290000Y-130958767D01*
X100310000Y-130666233D02*
X100310000Y-130958767D01*
%TO.C,R9*%
X140277500Y-55354724D02*
X140277500Y-54845276D01*
X141322500Y-55354724D02*
X141322500Y-54845276D01*
%TO.C,R5*%
X113977500Y-57045276D02*
X113977500Y-57554724D01*
X115022500Y-57045276D02*
X115022500Y-57554724D01*
D14*
%TO.C,U8*%
X109575000Y-136050000D02*
X110875000Y-137350000D01*
X110875000Y-137350000D02*
X127125000Y-137350000D01*
X127125000Y-137350000D02*
X128425000Y-136050000D01*
X128300000Y-132600000D02*
X128300000Y-131800000D01*
X109575000Y-136050000D02*
X128425000Y-136050000D01*
X128425000Y-132800000D01*
X109575000Y-132800000D01*
X109575000Y-136050000D01*
D13*
%TO.C,C25*%
X102690000Y-130666233D02*
X102690000Y-130958767D01*
X103710000Y-130666233D02*
X103710000Y-130958767D01*
%TO.C,C16*%
X88490000Y-130666233D02*
X88490000Y-130958767D01*
X89510000Y-130666233D02*
X89510000Y-130958767D01*
%TO.C,C19*%
X123290000Y-130666233D02*
X123290000Y-130958767D01*
X124310000Y-130666233D02*
X124310000Y-130958767D01*
%TO.C,R11*%
X62877500Y-131054724D02*
X62877500Y-130545276D01*
X63922500Y-131054724D02*
X63922500Y-130545276D01*
%TO.C,C23*%
X126490000Y-130666233D02*
X126490000Y-130958767D01*
X127510000Y-130666233D02*
X127510000Y-130958767D01*
%TO.C,R22*%
X97577500Y-130557776D02*
X97577500Y-131067224D01*
X98622500Y-130557776D02*
X98622500Y-131067224D01*
%TO.C,R19*%
X116577500Y-130557776D02*
X116577500Y-131067224D01*
X117622500Y-130557776D02*
X117622500Y-131067224D01*
%TO.C,U4*%
X71900000Y-52305000D02*
X72700000Y-52305000D01*
X71900000Y-55525000D02*
X73700000Y-55525000D01*
X73500000Y-52305000D02*
X72700000Y-52305000D01*
X74000000Y-52355000D02*
X73760000Y-52025000D01*
X74240000Y-52025000D01*
X74000000Y-52355000D01*
G36*
X74000000Y-52355000D02*
G01*
X73760000Y-52025000D01*
X74240000Y-52025000D01*
X74000000Y-52355000D01*
G37*
%TO.C,U2*%
X60150000Y-52415000D02*
X62100000Y-52415000D01*
X60150000Y-57535000D02*
X62100000Y-57535000D01*
X64050000Y-52415000D02*
X62100000Y-52415000D01*
X64050000Y-57535000D02*
X62100000Y-57535000D01*
X59640000Y-57770000D02*
X59160000Y-57770000D01*
X59400000Y-57440000D01*
X59640000Y-57770000D01*
G36*
X59640000Y-57770000D02*
G01*
X59160000Y-57770000D01*
X59400000Y-57440000D01*
X59640000Y-57770000D01*
G37*
%TO.C,C13*%
X80290000Y-130666233D02*
X80290000Y-130958767D01*
X81310000Y-130666233D02*
X81310000Y-130958767D01*
%TO.C,R6*%
X99377500Y-54654724D02*
X99377500Y-54145276D01*
X100422500Y-54654724D02*
X100422500Y-54145276D01*
%TO.C,C18*%
X121690000Y-130666233D02*
X121690000Y-130958767D01*
X122710000Y-130666233D02*
X122710000Y-130958767D01*
D14*
%TO.C,U10*%
X128575000Y-136037500D02*
X129875000Y-137337500D01*
X129875000Y-137337500D02*
X146125000Y-137337500D01*
X146125000Y-137337500D02*
X147425000Y-136037500D01*
X147300000Y-132587500D02*
X147300000Y-131787500D01*
X128575000Y-136037500D02*
X147425000Y-136037500D01*
X147425000Y-132787500D01*
X128575000Y-132787500D01*
X128575000Y-136037500D01*
D13*
%TO.C,C3*%
X69090000Y-53853733D02*
X69090000Y-54146267D01*
X70110000Y-53853733D02*
X70110000Y-54146267D01*
%TO.C,D1*%
X101550000Y-56350000D02*
X104810000Y-56350000D01*
X101550000Y-58050000D02*
X104810000Y-58050000D01*
X104810000Y-58050000D02*
X104810000Y-56350000D01*
%TO.C,R15*%
X75177500Y-130657776D02*
X75177500Y-131167224D01*
X76222500Y-130657776D02*
X76222500Y-131167224D01*
D10*
%TO.C,J2*%
X134087500Y-51662500D02*
X134087500Y-58487500D01*
X136687500Y-51662500D02*
X136687500Y-58487500D01*
X139287500Y-51662500D02*
X131512500Y-51662500D01*
X131512500Y-58537500D01*
X139287500Y-58537500D01*
X139287500Y-51662500D01*
D13*
%TO.C,R8*%
X141777500Y-55354724D02*
X141777500Y-54845276D01*
X142822500Y-55354724D02*
X142822500Y-54845276D01*
%TO.C,C21*%
X124890000Y-130666233D02*
X124890000Y-130958767D01*
X125910000Y-130666233D02*
X125910000Y-130958767D01*
%TO.C,C14*%
X86890000Y-130666233D02*
X86890000Y-130958767D01*
X87910000Y-130666233D02*
X87910000Y-130958767D01*
%TO.C,C12*%
X85290000Y-130666233D02*
X85290000Y-130958767D01*
X86310000Y-130666233D02*
X86310000Y-130958767D01*
%TO.C,C33*%
X142290000Y-130653733D02*
X142290000Y-130946267D01*
X143310000Y-130653733D02*
X143310000Y-130946267D01*
%TO.C,R10*%
X75477500Y-55254724D02*
X75477500Y-54745276D01*
X76522500Y-55254724D02*
X76522500Y-54745276D01*
%TO.C,C34*%
X137290000Y-130653733D02*
X137290000Y-130946267D01*
X138310000Y-130653733D02*
X138310000Y-130946267D01*
D14*
%TO.C,U6*%
X52575000Y-136037500D02*
X53875000Y-137337500D01*
X53875000Y-137337500D02*
X70125000Y-137337500D01*
X70125000Y-137337500D02*
X71425000Y-136037500D01*
X71300000Y-132587500D02*
X71300000Y-131787500D01*
X52575000Y-136037500D02*
X71425000Y-136037500D01*
X71425000Y-132787500D01*
X52575000Y-132787500D01*
X52575000Y-136037500D01*
D10*
%TO.C,J3*%
X51450000Y-113987500D02*
X56700000Y-113987500D01*
X51450000Y-110100000D02*
X56700000Y-110100000D01*
X56700000Y-117875000D01*
X51450000Y-117875000D01*
X51450000Y-110100000D01*
D13*
%TO.C,U5*%
X78900000Y-53390000D02*
X81100000Y-53390000D01*
X78900000Y-56610000D02*
X81100000Y-56610000D01*
X83300000Y-53390000D02*
X81100000Y-53390000D01*
X83300000Y-56610000D02*
X81100000Y-56610000D01*
X84000000Y-53565000D02*
X83760000Y-53235000D01*
X84240000Y-53235000D01*
X84000000Y-53565000D01*
G36*
X84000000Y-53565000D02*
G01*
X83760000Y-53235000D01*
X84240000Y-53235000D01*
X84000000Y-53565000D01*
G37*
%TO.C,C35*%
X143890000Y-130653733D02*
X143890000Y-130946267D01*
X144910000Y-130653733D02*
X144910000Y-130946267D01*
%TO.C,SW1*%
X106440000Y-52335000D02*
X106440000Y-53125000D01*
X107740000Y-54125000D02*
X107040000Y-54125000D01*
X109240000Y-54125000D02*
X109040000Y-54125000D01*
X110740000Y-50035000D02*
X110740000Y-51335000D01*
X110940000Y-49835000D02*
X110740000Y-50035000D01*
X110940000Y-49835000D02*
X111840000Y-49835000D01*
X111840000Y-49835000D02*
X112040000Y-50035000D01*
X112040000Y-51335000D02*
X112040000Y-50035000D01*
X112240000Y-54125000D02*
X110540000Y-54125000D01*
X113740000Y-54125000D02*
X113540000Y-54125000D01*
X115740000Y-51335000D02*
X107040000Y-51335000D01*
X115740000Y-54125000D02*
X115040000Y-54125000D01*
X116340000Y-53125000D02*
X116340000Y-52335000D01*
%TO.C,C32*%
X140690000Y-130653733D02*
X140690000Y-130946267D01*
X141710000Y-130653733D02*
X141710000Y-130946267D01*
%TO.C,C2*%
X110946267Y-55790000D02*
X110653733Y-55790000D01*
X110946267Y-56810000D02*
X110653733Y-56810000D01*
%TO.C,C5*%
X66290000Y-130653733D02*
X66290000Y-130946267D01*
X67310000Y-130653733D02*
X67310000Y-130946267D01*
%TO.C,R1*%
X106277500Y-56945276D02*
X106277500Y-57454724D01*
X107322500Y-56945276D02*
X107322500Y-57454724D01*
%TO.C,C9*%
X69490000Y-130653733D02*
X69490000Y-130946267D01*
X70510000Y-130653733D02*
X70510000Y-130946267D01*
%TO.C,C1*%
X56141233Y-52540000D02*
X56433767Y-52540000D01*
X56141233Y-53560000D02*
X56433767Y-53560000D01*
%TO.C,Q1*%
X102100000Y-52840000D02*
X102900000Y-52840000D01*
X102100000Y-55960000D02*
X102900000Y-55960000D01*
X103700000Y-52840000D02*
X102900000Y-52840000D01*
X103700000Y-55960000D02*
X102900000Y-55960000D01*
X101840000Y-56240000D02*
X101360000Y-56240000D01*
X101600000Y-55910000D01*
X101840000Y-56240000D01*
G36*
X101840000Y-56240000D02*
G01*
X101360000Y-56240000D01*
X101600000Y-55910000D01*
X101840000Y-56240000D01*
G37*
%TO.C,R16*%
X78577500Y-130557776D02*
X78577500Y-131067224D01*
X79622500Y-130557776D02*
X79622500Y-131067224D01*
%TO.C,R3*%
X56045276Y-55077500D02*
X56554724Y-55077500D01*
X56045276Y-56122500D02*
X56554724Y-56122500D01*
%TO.C,R4*%
X112254724Y-57677500D02*
X111745276Y-57677500D01*
X112254724Y-58722500D02*
X111745276Y-58722500D01*
%TO.C,R20*%
X100877500Y-131067224D02*
X100877500Y-130557776D01*
X101922500Y-131067224D02*
X101922500Y-130557776D01*
%TO.C,C30*%
X107490000Y-130666233D02*
X107490000Y-130958767D01*
X108510000Y-130666233D02*
X108510000Y-130958767D01*
%TO.C,C22*%
X111590000Y-130766233D02*
X111590000Y-131058767D01*
X112610000Y-130766233D02*
X112610000Y-131058767D01*
%TO.C,C29*%
X92590000Y-130766233D02*
X92590000Y-131058767D01*
X93610000Y-130766233D02*
X93610000Y-131058767D01*
%TO.C,C28*%
X105890000Y-130666233D02*
X105890000Y-130958767D01*
X106910000Y-130666233D02*
X106910000Y-130958767D01*
%TO.C,R18*%
X113177500Y-130657776D02*
X113177500Y-131167224D01*
X114222500Y-130657776D02*
X114222500Y-131167224D01*
D10*
%TO.C,BT1*%
X71500000Y-128975000D02*
X71500000Y-123725000D01*
X67612500Y-128975000D02*
X75387500Y-128975000D01*
X75387500Y-123725000D01*
X67612500Y-123725000D01*
X67612500Y-128975000D01*
D14*
%TO.C,U9*%
X90575000Y-136050000D02*
X91875000Y-137350000D01*
X91875000Y-137350000D02*
X108125000Y-137350000D01*
X108125000Y-137350000D02*
X109425000Y-136050000D01*
X109300000Y-132600000D02*
X109300000Y-131800000D01*
X90575000Y-136050000D02*
X109425000Y-136050000D01*
X109425000Y-132800000D01*
X90575000Y-132800000D01*
X90575000Y-136050000D01*
D13*
%TO.C,R24*%
X132177500Y-130645276D02*
X132177500Y-131154724D01*
X133222500Y-130645276D02*
X133222500Y-131154724D01*
%TO.C,C24*%
X109990000Y-130766233D02*
X109990000Y-131058767D01*
X111010000Y-130766233D02*
X111010000Y-131058767D01*
%TO.C,C20*%
X118290000Y-130666233D02*
X118290000Y-130958767D01*
X119310000Y-130666233D02*
X119310000Y-130958767D01*
%TO.C,R7*%
X67477500Y-54254724D02*
X67477500Y-53745276D01*
X68522500Y-54254724D02*
X68522500Y-53745276D01*
%TO.C,C4*%
X64690000Y-130653733D02*
X64690000Y-130946267D01*
X65710000Y-130653733D02*
X65710000Y-130946267D01*
%TO.C,R2*%
X143277500Y-54845276D02*
X143277500Y-55354724D01*
X144322500Y-54845276D02*
X144322500Y-55354724D01*
%TO.C,R14*%
X81877500Y-131067224D02*
X81877500Y-130557776D01*
X82922500Y-131067224D02*
X82922500Y-130557776D01*
%TO.C,C10*%
X52990000Y-130753733D02*
X52990000Y-131046267D01*
X54010000Y-130753733D02*
X54010000Y-131046267D01*
%TO.C,R13*%
X59577500Y-130545276D02*
X59577500Y-131054724D01*
X60622500Y-130545276D02*
X60622500Y-131054724D01*
%TO.C,U3*%
X91690000Y-52090000D02*
X95450000Y-52090000D01*
X91690000Y-53350000D02*
X91690000Y-52090000D01*
X91690000Y-57650000D02*
X91690000Y-58910000D01*
X91690000Y-58910000D02*
X95450000Y-58910000D01*
X96730000Y-52190000D02*
X96490000Y-51860000D01*
X96970000Y-51860000D01*
X96730000Y-52190000D01*
G36*
X96730000Y-52190000D02*
G01*
X96490000Y-51860000D01*
X96970000Y-51860000D01*
X96730000Y-52190000D01*
G37*
%TO.C,C6*%
X61290000Y-130653733D02*
X61290000Y-130946267D01*
X62310000Y-130653733D02*
X62310000Y-130946267D01*
%TO.C,C11*%
X83690000Y-130666233D02*
X83690000Y-130958767D01*
X84710000Y-130666233D02*
X84710000Y-130958767D01*
%TO.C,C15*%
X73590000Y-130766233D02*
X73590000Y-131058767D01*
X74610000Y-130766233D02*
X74610000Y-131058767D01*
%TO.C,C31*%
X90990000Y-130766233D02*
X90990000Y-131058767D01*
X92010000Y-130766233D02*
X92010000Y-131058767D01*
%TO.C,C8*%
X54590000Y-130753733D02*
X54590000Y-131046267D01*
X55610000Y-130753733D02*
X55610000Y-131046267D01*
%TO.C,C36*%
X130590000Y-130753733D02*
X130590000Y-131046267D01*
X131610000Y-130753733D02*
X131610000Y-131046267D01*
%TO.C,R23*%
X138877500Y-131054724D02*
X138877500Y-130545276D01*
X139922500Y-131054724D02*
X139922500Y-130545276D01*
%TO.C,R12*%
X56177500Y-130645276D02*
X56177500Y-131154724D01*
X57222500Y-130645276D02*
X57222500Y-131154724D01*
%TO.C,R21*%
X94177500Y-130657776D02*
X94177500Y-131167224D01*
X95222500Y-130657776D02*
X95222500Y-131167224D01*
%TO.C,C7*%
X67890000Y-130653733D02*
X67890000Y-130946267D01*
X68910000Y-130653733D02*
X68910000Y-130946267D01*
D10*
%TO.C,J1*%
X122487500Y-51612500D02*
X122487500Y-58437500D01*
X125087500Y-51612500D02*
X125087500Y-58437500D01*
X127687500Y-51612500D02*
X119912500Y-51612500D01*
X119912500Y-58487500D01*
X127687500Y-58487500D01*
X127687500Y-51612500D01*
D13*
%TO.C,C37*%
X145490000Y-130653733D02*
X145490000Y-130946267D01*
X146510000Y-130653733D02*
X146510000Y-130946267D01*
%TO.C,C17*%
X71990000Y-130766233D02*
X71990000Y-131058767D01*
X73010000Y-130766233D02*
X73010000Y-131058767D01*
%TO.C,C26*%
X104290000Y-130666233D02*
X104290000Y-130958767D01*
X105310000Y-130666233D02*
X105310000Y-130958767D01*
%TD*%
M02*
