%TF.GenerationSoftware,KiCad,Pcbnew,8.0.1*%
%TF.CreationDate,2024-03-30T14:47:10+03:00*%
%TF.ProjectId,AudMix,4175644d-6978-42e6-9b69-6361645f7063,rev?*%
%TF.SameCoordinates,Original*%
%TF.FileFunction,Copper,L1,Top*%
%TF.FilePolarity,Positive*%
%FSLAX46Y46*%
G04 Gerber Fmt 4.6, Leading zero omitted, Abs format (unit mm)*
G04 Created by KiCad (PCBNEW 8.0.1) date 2024-03-30 14:47:10*
%MOMM*%
%LPD*%
G01*
G04 APERTURE LIST*
%TA.AperFunction,ComponentPad*%
%ADD10O,3.000000X1.800000*%
%TD*%
%TA.AperFunction,SMDPad,CuDef*%
%ADD11R,1.500000X0.900000*%
%TD*%
%TA.AperFunction,ViaPad*%
%ADD12C,0.800000*%
%TD*%
%TA.AperFunction,ViaPad*%
%ADD13C,0.600000*%
%TD*%
%TA.AperFunction,Conductor*%
%ADD14C,0.200000*%
%TD*%
%TA.AperFunction,Conductor*%
%ADD15C,0.250000*%
%TD*%
G04 APERTURE END LIST*
D10*
%TO.P,U1,1,GPIO5*%
%TO.N,Net-(U1-GPIO5)*%
X147000000Y-53420000D03*
%TO.P,U1,2,GPIO6*%
%TO.N,/WS2812B_3V3*%
X147000000Y-55960000D03*
%TO.P,U1,3,GPIO7*%
%TO.N,Net-(U1-GPIO7)*%
X147000000Y-58500000D03*
%TO.P,U1,4,GPIO8*%
%TO.N,/I2C_SDA*%
X147000000Y-61040000D03*
%TO.P,U1,5,GPIO9*%
%TO.N,/I2C_SCL*%
X147000000Y-63580000D03*
%TO.P,U1,6,GPIO10*%
%TO.N,/I2C_CS1*%
X147000000Y-66120000D03*
%TO.P,U1,7,GPIO20*%
%TO.N,/I2C_CS2*%
X147000000Y-68660000D03*
%TO.P,U1,8,GPIO21*%
%TO.N,/I2C_CS3*%
X147000000Y-71200000D03*
%TD*%
D11*
%TO.P,D2,1,VDD*%
%TO.N,VCC*%
X140437500Y-56625000D03*
%TO.P,D2,2,DOUT*%
%TO.N,/WS2812B*%
X140437500Y-53325000D03*
%TO.P,D2,3,VSS*%
%TO.N,GND*%
X135537500Y-53325000D03*
%TO.P,D2,4,DIN*%
%TO.N,/WS2812B_3V3*%
X135537500Y-56625000D03*
%TD*%
D12*
%TO.N,GND*%
X53200000Y-51900000D03*
D13*
X52600000Y-134400000D03*
X63400000Y-128800000D03*
X63000000Y-55000000D03*
X120500000Y-55500000D03*
X147400000Y-134400000D03*
X71500000Y-134400000D03*
X105200000Y-53800000D03*
X79500000Y-55000000D03*
X109500000Y-134400000D03*
X83400000Y-132700000D03*
X63000000Y-53800000D03*
X61200000Y-56200000D03*
X74800000Y-55900000D03*
X102300000Y-132800000D03*
X121800000Y-55500000D03*
X62100000Y-55600000D03*
X107150000Y-51600000D03*
X61200000Y-55000000D03*
X62100000Y-54300000D03*
X98500000Y-53200000D03*
X90500000Y-134400000D03*
X139000000Y-54300000D03*
X137600000Y-54300000D03*
X95200000Y-53200000D03*
X63000000Y-56200000D03*
X113100000Y-56300000D03*
X115550000Y-51650000D03*
X139200000Y-52400000D03*
X128500000Y-134400000D03*
X61200000Y-53800000D03*
%TO.N,+3.3V*%
X140240000Y-129470000D03*
X64240000Y-129470000D03*
X102240000Y-129482500D03*
X121240000Y-129482500D03*
X83202500Y-129482500D03*
%TO.N,VCC*%
X138500000Y-57000000D03*
X104000000Y-128800001D03*
X142268750Y-131131250D03*
X84975000Y-128800000D03*
X122975000Y-128800000D03*
X65975000Y-128787501D03*
%TO.N,Net-(D1-A)*%
X102100000Y-58300000D03*
X103600000Y-58300000D03*
%TO.N,/I2C_CS1*%
X104100000Y-55900000D03*
X136900000Y-56700000D03*
X139400000Y-57700000D03*
X98255025Y-54355025D03*
%TO.N,/I2C_SCL*%
X96900000Y-130122500D03*
X134500000Y-130122500D03*
X58900000Y-130110000D03*
X77862500Y-130122500D03*
X115900000Y-130122500D03*
%TO.N,/I2C_CS3*%
X147500000Y-77200000D03*
%TO.N,/I2C_SDA*%
X77162500Y-130812500D03*
X96200000Y-130812500D03*
X115200000Y-130812500D03*
X133900000Y-130800000D03*
X58200000Y-130800000D03*
%TO.N,/WS2812B*%
X136700000Y-51700000D03*
%TO.N,/WS2812B_3V3*%
X134400000Y-57000000D03*
%TD*%
D14*
%TO.N,/I2C_CS3*%
X148600000Y-72200000D02*
X147600000Y-71200000D01*
X147500000Y-77200000D02*
X148600000Y-76100000D01*
X148600000Y-76100000D02*
X148600000Y-72200000D01*
%TO.N,+3.3V*%
X121227500Y-129470000D02*
X121240000Y-129482500D01*
X64240000Y-129470000D02*
X140252500Y-129470000D01*
%TO.N,VCC*%
X142268750Y-130650221D02*
X142268750Y-131131250D01*
X138875000Y-56625000D02*
X140437500Y-56625000D01*
X66000000Y-128800000D02*
X140418529Y-128800000D01*
X138500000Y-57000000D02*
X138875000Y-56625000D01*
X140418529Y-128800000D02*
X142268750Y-130650221D01*
D15*
%TO.N,Net-(D1-A)*%
X102100000Y-58300000D02*
X103600000Y-58300000D01*
D14*
%TO.N,/I2C_CS1*%
X99800000Y-55900000D02*
X98255025Y-54355025D01*
X139400000Y-57700000D02*
X137900000Y-57700000D01*
X137900000Y-57700000D02*
X136900000Y-56700000D01*
X104100000Y-55900000D02*
X99800000Y-55900000D01*
D15*
%TO.N,/I2C_SCL*%
X82983617Y-130110000D02*
X58900000Y-130110000D01*
X134500000Y-130122500D02*
X82996117Y-130122500D01*
D14*
%TO.N,/I2C_SDA*%
X115187500Y-130800000D02*
X115200000Y-130812500D01*
X58200000Y-130800000D02*
X133900000Y-130800000D01*
%TO.N,/WS2812B*%
X138325000Y-53325000D02*
X140437500Y-53325000D01*
X136700000Y-51700000D02*
X138325000Y-53325000D01*
%TO.N,Net-(U1-GPIO7)*%
X146200000Y-59300000D02*
X146400000Y-59300000D01*
%TO.N,/WS2812B_3V3*%
X135537500Y-56625000D02*
X137062500Y-55100000D01*
X137062500Y-55100000D02*
X145400000Y-55100000D01*
X135162500Y-57000000D02*
X135537500Y-56625000D01*
X134400000Y-57000000D02*
X135162500Y-57000000D01*
X145400000Y-55100000D02*
X146260000Y-55960000D01*
X146260000Y-55960000D02*
X146400000Y-55960000D01*
%TD*%
%TA.AperFunction,Conductor*%
%TO.N,GND*%
G36*
X149943039Y-50019685D02*
G01*
X149988794Y-50072489D01*
X150000000Y-50124000D01*
X150000000Y-139876000D01*
X149980315Y-139943039D01*
X149927511Y-139988794D01*
X149876000Y-140000000D01*
X50124000Y-140000000D01*
X50056961Y-139980315D01*
X50011206Y-139927511D01*
X50000000Y-139876000D01*
X50000000Y-130800000D01*
X57644750Y-130800000D01*
X57663670Y-130943708D01*
X57663671Y-130943712D01*
X57719137Y-131077622D01*
X57719138Y-131077624D01*
X57719139Y-131077625D01*
X57807379Y-131192621D01*
X57922375Y-131280861D01*
X58056291Y-131336330D01*
X58183280Y-131353048D01*
X58199999Y-131355250D01*
X58200000Y-131355250D01*
X58200001Y-131355250D01*
X58214977Y-131353278D01*
X58343709Y-131336330D01*
X58477625Y-131280861D01*
X58592621Y-131192621D01*
X58592623Y-131192617D01*
X58592627Y-131192615D01*
X58598372Y-131186871D01*
X58600888Y-131189387D01*
X58644183Y-131157797D01*
X58686092Y-131150500D01*
X76666817Y-131150500D01*
X76733856Y-131170185D01*
X76765192Y-131199013D01*
X76769879Y-131205122D01*
X76860892Y-131274958D01*
X76884875Y-131293361D01*
X77018791Y-131348830D01*
X77145780Y-131365548D01*
X77162499Y-131367750D01*
X77162500Y-131367750D01*
X77162501Y-131367750D01*
X77177477Y-131365778D01*
X77306209Y-131348830D01*
X77440125Y-131293361D01*
X77555121Y-131205121D01*
X77559808Y-131199013D01*
X77616236Y-131157810D01*
X77658183Y-131150500D01*
X95704317Y-131150500D01*
X95771356Y-131170185D01*
X95802692Y-131199013D01*
X95807379Y-131205122D01*
X95898392Y-131274958D01*
X95922375Y-131293361D01*
X96056291Y-131348830D01*
X96183280Y-131365548D01*
X96199999Y-131367750D01*
X96200000Y-131367750D01*
X96200001Y-131367750D01*
X96214977Y-131365778D01*
X96343709Y-131348830D01*
X96477625Y-131293361D01*
X96592621Y-131205121D01*
X96597308Y-131199013D01*
X96653736Y-131157810D01*
X96695683Y-131150500D01*
X114704317Y-131150500D01*
X114771356Y-131170185D01*
X114802692Y-131199013D01*
X114807379Y-131205122D01*
X114898392Y-131274958D01*
X114922375Y-131293361D01*
X115056291Y-131348830D01*
X115183280Y-131365548D01*
X115199999Y-131367750D01*
X115200000Y-131367750D01*
X115200001Y-131367750D01*
X115214977Y-131365778D01*
X115343709Y-131348830D01*
X115477625Y-131293361D01*
X115592621Y-131205121D01*
X115597308Y-131199013D01*
X115653736Y-131157810D01*
X115695683Y-131150500D01*
X133413908Y-131150500D01*
X133480947Y-131170185D01*
X133500412Y-131188086D01*
X133501628Y-131186871D01*
X133507372Y-131192615D01*
X133507377Y-131192619D01*
X133507379Y-131192621D01*
X133622375Y-131280861D01*
X133756291Y-131336330D01*
X133883280Y-131353048D01*
X133899999Y-131355250D01*
X133900000Y-131355250D01*
X133900001Y-131355250D01*
X133914977Y-131353278D01*
X134043709Y-131336330D01*
X134177625Y-131280861D01*
X134292621Y-131192621D01*
X134380861Y-131077625D01*
X134436330Y-130943709D01*
X134455250Y-130800000D01*
X134455250Y-130799999D01*
X134455250Y-130792386D01*
X134474935Y-130725347D01*
X134527739Y-130679592D01*
X134563063Y-130669447D01*
X134643709Y-130658830D01*
X134777625Y-130603361D01*
X134892621Y-130515121D01*
X134980861Y-130400125D01*
X135036330Y-130266209D01*
X135055250Y-130122500D01*
X135054674Y-130118128D01*
X135053048Y-130105780D01*
X135036330Y-129978791D01*
X135036327Y-129978784D01*
X135035740Y-129976590D01*
X135035785Y-129974660D01*
X135035269Y-129970734D01*
X135035881Y-129970653D01*
X135037405Y-129906740D01*
X135076570Y-129848879D01*
X135140799Y-129821376D01*
X135155516Y-129820500D01*
X139753908Y-129820500D01*
X139820947Y-129840185D01*
X139840412Y-129858086D01*
X139841628Y-129856871D01*
X139847372Y-129862615D01*
X139847377Y-129862619D01*
X139847379Y-129862621D01*
X139962375Y-129950861D01*
X140096291Y-130006330D01*
X140223280Y-130023048D01*
X140239999Y-130025250D01*
X140240000Y-130025250D01*
X140240001Y-130025250D01*
X140254977Y-130023278D01*
X140383709Y-130006330D01*
X140517625Y-129950861D01*
X140632621Y-129862621D01*
X140699743Y-129775146D01*
X140756170Y-129733944D01*
X140825916Y-129729789D01*
X140885799Y-129762952D01*
X141792872Y-130670025D01*
X141826357Y-130731348D01*
X141821373Y-130801040D01*
X141803568Y-130833191D01*
X141787888Y-130853625D01*
X141787888Y-130853626D01*
X141732421Y-130987537D01*
X141732420Y-130987541D01*
X141713500Y-131131250D01*
X141723225Y-131205121D01*
X141732420Y-131274958D01*
X141732421Y-131274962D01*
X141787887Y-131408872D01*
X141787888Y-131408874D01*
X141787889Y-131408875D01*
X141876129Y-131523871D01*
X141991125Y-131612111D01*
X142125041Y-131667580D01*
X142252030Y-131684298D01*
X142268749Y-131686500D01*
X142268750Y-131686500D01*
X142268751Y-131686500D01*
X142283727Y-131684528D01*
X142412459Y-131667580D01*
X142546375Y-131612111D01*
X142661371Y-131523871D01*
X142749611Y-131408875D01*
X142805080Y-131274959D01*
X142824000Y-131131250D01*
X142805080Y-130987541D01*
X142749611Y-130853625D01*
X142661371Y-130738629D01*
X142661369Y-130738627D01*
X142661365Y-130738622D01*
X142655621Y-130732878D01*
X142658137Y-130730361D01*
X142626547Y-130687067D01*
X142619250Y-130645158D01*
X142619250Y-130604079D01*
X142619250Y-130604077D01*
X142595364Y-130514933D01*
X142549220Y-130435009D01*
X140633741Y-128519530D01*
X140633740Y-128519529D01*
X140633737Y-128519527D01*
X140553820Y-128473387D01*
X140553816Y-128473385D01*
X140548455Y-128471949D01*
X140548455Y-128471948D01*
X140480005Y-128453608D01*
X140464673Y-128449500D01*
X140464672Y-128449500D01*
X123461092Y-128449500D01*
X123394053Y-128429815D01*
X123374587Y-128411913D01*
X123373372Y-128413129D01*
X123367627Y-128407384D01*
X123367621Y-128407379D01*
X123252625Y-128319139D01*
X123252624Y-128319138D01*
X123252622Y-128319137D01*
X123118712Y-128263671D01*
X123118710Y-128263670D01*
X123118709Y-128263670D01*
X123023779Y-128251172D01*
X122975001Y-128244750D01*
X122974999Y-128244750D01*
X122831291Y-128263670D01*
X122831287Y-128263671D01*
X122697377Y-128319137D01*
X122582372Y-128407384D01*
X122576628Y-128413129D01*
X122574111Y-128410612D01*
X122530817Y-128442203D01*
X122488908Y-128449500D01*
X104486090Y-128449500D01*
X104419051Y-128429815D01*
X104399634Y-128411860D01*
X104398368Y-128413127D01*
X104392625Y-128407384D01*
X104392622Y-128407382D01*
X104392621Y-128407380D01*
X104277625Y-128319140D01*
X104277624Y-128319139D01*
X104277622Y-128319138D01*
X104143712Y-128263672D01*
X104143710Y-128263671D01*
X104143709Y-128263671D01*
X104071854Y-128254211D01*
X104000001Y-128244751D01*
X103999999Y-128244751D01*
X103856291Y-128263671D01*
X103856287Y-128263672D01*
X103722377Y-128319138D01*
X103637254Y-128384455D01*
X103607381Y-128407379D01*
X103607374Y-128407384D01*
X103601632Y-128413127D01*
X103599044Y-128410539D01*
X103556452Y-128441974D01*
X103513910Y-128449500D01*
X85461092Y-128449500D01*
X85394053Y-128429815D01*
X85374587Y-128411913D01*
X85373372Y-128413129D01*
X85367627Y-128407384D01*
X85367621Y-128407379D01*
X85252625Y-128319139D01*
X85252624Y-128319138D01*
X85252622Y-128319137D01*
X85118712Y-128263671D01*
X85118710Y-128263670D01*
X85118709Y-128263670D01*
X85023779Y-128251172D01*
X84975001Y-128244750D01*
X84974999Y-128244750D01*
X84831291Y-128263670D01*
X84831287Y-128263671D01*
X84697377Y-128319137D01*
X84582372Y-128407384D01*
X84576628Y-128413129D01*
X84574111Y-128410612D01*
X84530817Y-128442203D01*
X84488908Y-128449500D01*
X66470683Y-128449500D01*
X66403644Y-128429815D01*
X66372308Y-128400987D01*
X66367624Y-128394883D01*
X66367622Y-128394881D01*
X66367621Y-128394880D01*
X66252625Y-128306640D01*
X66252624Y-128306639D01*
X66252622Y-128306638D01*
X66118712Y-128251172D01*
X66118710Y-128251171D01*
X66118709Y-128251171D01*
X66046854Y-128241711D01*
X65975001Y-128232251D01*
X65974999Y-128232251D01*
X65831291Y-128251171D01*
X65831287Y-128251172D01*
X65697377Y-128306638D01*
X65582379Y-128394880D01*
X65494137Y-128509878D01*
X65438671Y-128643788D01*
X65438670Y-128643792D01*
X65419750Y-128787500D01*
X65419750Y-128787501D01*
X65438670Y-128931209D01*
X65438670Y-128931210D01*
X65445645Y-128948049D01*
X65453112Y-129017518D01*
X65421837Y-129079997D01*
X65361747Y-129115649D01*
X65331083Y-129119500D01*
X64726092Y-129119500D01*
X64659053Y-129099815D01*
X64639587Y-129081913D01*
X64638372Y-129083129D01*
X64632627Y-129077384D01*
X64632621Y-129077379D01*
X64517625Y-128989139D01*
X64517624Y-128989138D01*
X64517622Y-128989137D01*
X64383712Y-128933671D01*
X64383710Y-128933670D01*
X64383709Y-128933670D01*
X64311854Y-128924210D01*
X64240001Y-128914750D01*
X64239999Y-128914750D01*
X64096291Y-128933670D01*
X64096287Y-128933671D01*
X63962377Y-128989137D01*
X63847379Y-129077379D01*
X63759137Y-129192377D01*
X63703671Y-129326287D01*
X63703670Y-129326291D01*
X63684750Y-129469999D01*
X63684750Y-129470000D01*
X63701117Y-129594314D01*
X63690352Y-129663349D01*
X63643972Y-129715605D01*
X63578178Y-129734500D01*
X59357026Y-129734500D01*
X59289987Y-129714815D01*
X59281547Y-129708882D01*
X59177625Y-129629139D01*
X59177624Y-129629138D01*
X59177622Y-129629137D01*
X59043712Y-129573671D01*
X59043710Y-129573670D01*
X59043709Y-129573670D01*
X58971854Y-129564210D01*
X58900001Y-129554750D01*
X58899999Y-129554750D01*
X58756291Y-129573670D01*
X58756287Y-129573671D01*
X58622377Y-129629137D01*
X58507379Y-129717379D01*
X58419137Y-129832377D01*
X58363671Y-129966287D01*
X58363670Y-129966291D01*
X58344750Y-130109999D01*
X58344750Y-130118128D01*
X58342422Y-130118128D01*
X58333486Y-130175359D01*
X58287096Y-130227606D01*
X58219823Y-130246478D01*
X58205139Y-130245426D01*
X58200004Y-130244750D01*
X58199999Y-130244750D01*
X58056291Y-130263670D01*
X58056287Y-130263671D01*
X57922377Y-130319137D01*
X57807379Y-130407379D01*
X57719137Y-130522377D01*
X57663671Y-130656287D01*
X57663670Y-130656291D01*
X57644750Y-130799999D01*
X57644750Y-130800000D01*
X50000000Y-130800000D01*
X50000000Y-120606286D01*
X51649500Y-120606286D01*
X51682753Y-120816239D01*
X51748444Y-121018414D01*
X51844951Y-121207820D01*
X51969890Y-121379786D01*
X52120213Y-121530109D01*
X52292179Y-121655048D01*
X52292181Y-121655049D01*
X52292184Y-121655051D01*
X52481588Y-121751557D01*
X52683757Y-121817246D01*
X52893713Y-121850500D01*
X52893714Y-121850500D01*
X53106286Y-121850500D01*
X53106287Y-121850500D01*
X53316243Y-121817246D01*
X53518412Y-121751557D01*
X53707816Y-121655051D01*
X53729789Y-121639086D01*
X53879786Y-121530109D01*
X53879788Y-121530106D01*
X53879792Y-121530104D01*
X54030104Y-121379792D01*
X54030106Y-121379788D01*
X54030109Y-121379786D01*
X54155048Y-121207820D01*
X54155047Y-121207820D01*
X54155051Y-121207816D01*
X54251557Y-121018412D01*
X54317246Y-120816243D01*
X54350500Y-120606287D01*
X54350500Y-120393713D01*
X54317246Y-120183757D01*
X54251557Y-119981588D01*
X54155051Y-119792184D01*
X54155049Y-119792181D01*
X54155048Y-119792179D01*
X54030109Y-119620213D01*
X53879786Y-119469890D01*
X53707820Y-119344951D01*
X53518414Y-119248444D01*
X53518413Y-119248443D01*
X53518412Y-119248443D01*
X53316243Y-119182754D01*
X53316241Y-119182753D01*
X53316240Y-119182753D01*
X53154957Y-119157208D01*
X53106287Y-119149500D01*
X52893713Y-119149500D01*
X52845042Y-119157208D01*
X52683760Y-119182753D01*
X52481585Y-119248444D01*
X52292179Y-119344951D01*
X52120213Y-119469890D01*
X51969890Y-119620213D01*
X51844951Y-119792179D01*
X51748444Y-119981585D01*
X51682753Y-120183760D01*
X51649500Y-120393713D01*
X51649500Y-120606286D01*
X50000000Y-120606286D01*
X50000000Y-66606287D01*
X51649500Y-66606287D01*
X51682754Y-66816243D01*
X51741665Y-66997553D01*
X51748444Y-67018414D01*
X51844951Y-67207820D01*
X51969890Y-67379786D01*
X52120213Y-67530109D01*
X52292179Y-67655048D01*
X52292181Y-67655049D01*
X52292184Y-67655051D01*
X52481588Y-67751557D01*
X52683757Y-67817246D01*
X52893713Y-67850500D01*
X52893714Y-67850500D01*
X53106286Y-67850500D01*
X53106287Y-67850500D01*
X53316243Y-67817246D01*
X53518412Y-67751557D01*
X53707816Y-67655051D01*
X53792138Y-67593788D01*
X53879786Y-67530109D01*
X53879788Y-67530106D01*
X53879792Y-67530104D01*
X54030104Y-67379792D01*
X54030106Y-67379788D01*
X54030109Y-67379786D01*
X54155048Y-67207820D01*
X54155047Y-67207820D01*
X54155051Y-67207816D01*
X54251557Y-67018412D01*
X54317246Y-66816243D01*
X54350500Y-66606287D01*
X54350500Y-66393713D01*
X54317246Y-66183757D01*
X54251557Y-65981588D01*
X54155051Y-65792184D01*
X54155049Y-65792181D01*
X54155048Y-65792179D01*
X54030109Y-65620213D01*
X53879786Y-65469890D01*
X53707820Y-65344951D01*
X53518414Y-65248444D01*
X53518413Y-65248443D01*
X53518412Y-65248443D01*
X53316243Y-65182754D01*
X53316241Y-65182753D01*
X53316240Y-65182753D01*
X53154957Y-65157208D01*
X53106287Y-65149500D01*
X52893713Y-65149500D01*
X52845042Y-65157208D01*
X52683760Y-65182753D01*
X52481585Y-65248444D01*
X52292179Y-65344951D01*
X52120213Y-65469890D01*
X51969890Y-65620213D01*
X51844951Y-65792179D01*
X51748444Y-65981585D01*
X51682753Y-66183760D01*
X51678511Y-66210546D01*
X51649500Y-66393713D01*
X51649500Y-66606287D01*
X50000000Y-66606287D01*
X50000000Y-60000000D01*
X57500000Y-60000000D01*
X57500000Y-127000000D01*
X66500000Y-127000000D01*
X66500000Y-60000000D01*
X76500000Y-60000000D01*
X76500000Y-127000000D01*
X85500000Y-127000000D01*
X85500000Y-60000000D01*
X95500000Y-60000000D01*
X95500000Y-127000000D01*
X104500000Y-127000000D01*
X104500000Y-60000000D01*
X114500000Y-60000000D01*
X114500000Y-127000000D01*
X123500000Y-127000000D01*
X123500000Y-60000000D01*
X133500000Y-60000000D01*
X133500000Y-127000000D01*
X142500000Y-127000000D01*
X142500000Y-120606286D01*
X145649500Y-120606286D01*
X145682753Y-120816239D01*
X145748444Y-121018414D01*
X145844951Y-121207820D01*
X145969890Y-121379786D01*
X146120213Y-121530109D01*
X146292179Y-121655048D01*
X146292181Y-121655049D01*
X146292184Y-121655051D01*
X146481588Y-121751557D01*
X146683757Y-121817246D01*
X146893713Y-121850500D01*
X146893714Y-121850500D01*
X147106286Y-121850500D01*
X147106287Y-121850500D01*
X147316243Y-121817246D01*
X147518412Y-121751557D01*
X147707816Y-121655051D01*
X147729789Y-121639086D01*
X147879786Y-121530109D01*
X147879788Y-121530106D01*
X147879792Y-121530104D01*
X148030104Y-121379792D01*
X148030106Y-121379788D01*
X148030109Y-121379786D01*
X148155048Y-121207820D01*
X148155047Y-121207820D01*
X148155051Y-121207816D01*
X148251557Y-121018412D01*
X148317246Y-120816243D01*
X148350500Y-120606287D01*
X148350500Y-120393713D01*
X148317246Y-120183757D01*
X148251557Y-119981588D01*
X148155051Y-119792184D01*
X148155049Y-119792181D01*
X148155048Y-119792179D01*
X148030109Y-119620213D01*
X147879786Y-119469890D01*
X147707820Y-119344951D01*
X147518414Y-119248444D01*
X147518413Y-119248443D01*
X147518412Y-119248443D01*
X147316243Y-119182754D01*
X147316241Y-119182753D01*
X147316240Y-119182753D01*
X147154957Y-119157208D01*
X147106287Y-119149500D01*
X146893713Y-119149500D01*
X146845042Y-119157208D01*
X146683760Y-119182753D01*
X146481585Y-119248444D01*
X146292179Y-119344951D01*
X146120213Y-119469890D01*
X145969890Y-119620213D01*
X145844951Y-119792179D01*
X145748444Y-119981585D01*
X145682753Y-120183760D01*
X145649500Y-120393713D01*
X145649500Y-120606286D01*
X142500000Y-120606286D01*
X142500000Y-60000000D01*
X133500000Y-60000000D01*
X123500000Y-60000000D01*
X114500000Y-60000000D01*
X104500000Y-60000000D01*
X95500000Y-60000000D01*
X85500000Y-60000000D01*
X76500000Y-60000000D01*
X66500000Y-60000000D01*
X57500000Y-60000000D01*
X50000000Y-60000000D01*
X50000000Y-58300000D01*
X101544750Y-58300000D01*
X101563670Y-58443708D01*
X101563671Y-58443712D01*
X101619137Y-58577622D01*
X101619138Y-58577624D01*
X101619139Y-58577625D01*
X101707379Y-58692621D01*
X101822375Y-58780861D01*
X101956291Y-58836330D01*
X102083280Y-58853048D01*
X102099999Y-58855250D01*
X102100000Y-58855250D01*
X102100001Y-58855250D01*
X102114977Y-58853278D01*
X102243709Y-58836330D01*
X102377625Y-58780861D01*
X102481540Y-58701123D01*
X102546709Y-58675930D01*
X102557026Y-58675500D01*
X103142974Y-58675500D01*
X103210013Y-58695185D01*
X103218452Y-58701117D01*
X103322375Y-58780861D01*
X103456291Y-58836330D01*
X103583280Y-58853048D01*
X103599999Y-58855250D01*
X103600000Y-58855250D01*
X103600001Y-58855250D01*
X103614977Y-58853278D01*
X103743709Y-58836330D01*
X103877625Y-58780861D01*
X103992621Y-58692621D01*
X104080861Y-58577625D01*
X104136330Y-58443709D01*
X104155250Y-58300000D01*
X104136330Y-58156291D01*
X104099350Y-58067013D01*
X104080862Y-58022377D01*
X104080861Y-58022376D01*
X104080861Y-58022375D01*
X103992621Y-57907379D01*
X103877625Y-57819139D01*
X103877624Y-57819138D01*
X103877622Y-57819137D01*
X103743712Y-57763671D01*
X103743710Y-57763670D01*
X103743709Y-57763670D01*
X103643675Y-57750500D01*
X103600001Y-57744750D01*
X103599999Y-57744750D01*
X103456291Y-57763670D01*
X103456287Y-57763671D01*
X103322377Y-57819137D01*
X103290356Y-57843708D01*
X103218459Y-57898876D01*
X103153291Y-57924070D01*
X103142974Y-57924500D01*
X102557026Y-57924500D01*
X102489987Y-57904815D01*
X102481547Y-57898882D01*
X102377625Y-57819139D01*
X102377624Y-57819138D01*
X102377622Y-57819137D01*
X102243712Y-57763671D01*
X102243710Y-57763670D01*
X102243709Y-57763670D01*
X102143675Y-57750500D01*
X102100001Y-57744750D01*
X102099999Y-57744750D01*
X101956291Y-57763670D01*
X101956287Y-57763671D01*
X101822377Y-57819137D01*
X101707379Y-57907379D01*
X101619137Y-58022377D01*
X101563671Y-58156287D01*
X101563670Y-58156291D01*
X101544750Y-58299999D01*
X101544750Y-58300000D01*
X50000000Y-58300000D01*
X50000000Y-57000000D01*
X133844750Y-57000000D01*
X133862541Y-57135137D01*
X133863670Y-57143708D01*
X133863671Y-57143712D01*
X133919137Y-57277622D01*
X133919138Y-57277624D01*
X133919139Y-57277625D01*
X134007379Y-57392621D01*
X134122375Y-57480861D01*
X134256291Y-57536330D01*
X134383280Y-57553048D01*
X134399999Y-57555250D01*
X134400000Y-57555250D01*
X134400001Y-57555250D01*
X134414977Y-57553278D01*
X134543709Y-57536330D01*
X134677625Y-57480861D01*
X134792621Y-57392621D01*
X134792623Y-57392617D01*
X134792627Y-57392615D01*
X134798372Y-57386871D01*
X134800888Y-57389387D01*
X134844183Y-57357797D01*
X134886092Y-57350500D01*
X135208642Y-57350500D01*
X135208644Y-57350500D01*
X135286178Y-57329724D01*
X135318270Y-57325500D01*
X136312176Y-57325500D01*
X136312177Y-57325499D01*
X136385240Y-57310966D01*
X136468101Y-57255601D01*
X136484121Y-57231623D01*
X136537730Y-57186821D01*
X136607055Y-57178112D01*
X136634671Y-57185954D01*
X136756291Y-57236330D01*
X136900000Y-57255250D01*
X136908129Y-57255250D01*
X136908129Y-57258828D01*
X136960970Y-57267031D01*
X136995878Y-57291560D01*
X137684788Y-57980470D01*
X137756000Y-58021584D01*
X137764712Y-58026614D01*
X137853856Y-58050500D01*
X137853857Y-58050500D01*
X137946144Y-58050500D01*
X138913908Y-58050500D01*
X138980947Y-58070185D01*
X139000412Y-58088086D01*
X139001628Y-58086871D01*
X139007372Y-58092615D01*
X139007377Y-58092619D01*
X139007379Y-58092621D01*
X139122375Y-58180861D01*
X139256291Y-58236330D01*
X139383280Y-58253048D01*
X139399999Y-58255250D01*
X139400000Y-58255250D01*
X139400001Y-58255250D01*
X139414977Y-58253278D01*
X139543709Y-58236330D01*
X139677625Y-58180861D01*
X139792621Y-58092621D01*
X139880861Y-57977625D01*
X139936330Y-57843709D01*
X139955250Y-57700000D01*
X139936330Y-57556291D01*
X139911751Y-57496951D01*
X139904283Y-57427482D01*
X139935559Y-57365003D01*
X139995648Y-57329351D01*
X140026313Y-57325500D01*
X141212176Y-57325500D01*
X141212177Y-57325499D01*
X141285240Y-57310966D01*
X141368101Y-57255601D01*
X141423466Y-57172740D01*
X141438000Y-57099674D01*
X141438000Y-56150326D01*
X141438000Y-56150323D01*
X141437999Y-56150321D01*
X141423467Y-56077264D01*
X141423466Y-56077260D01*
X141405620Y-56050551D01*
X141368101Y-55994399D01*
X141285240Y-55939034D01*
X141285239Y-55939033D01*
X141285235Y-55939032D01*
X141212177Y-55924500D01*
X141212174Y-55924500D01*
X139662826Y-55924500D01*
X139662823Y-55924500D01*
X139589764Y-55939032D01*
X139589760Y-55939033D01*
X139506899Y-55994399D01*
X139451533Y-56077260D01*
X139451532Y-56077264D01*
X139437000Y-56150321D01*
X139437000Y-56150500D01*
X139436973Y-56150589D01*
X139436403Y-56156386D01*
X139435303Y-56156277D01*
X139417315Y-56217539D01*
X139364511Y-56263294D01*
X139313000Y-56274500D01*
X138828856Y-56274500D01*
X138739712Y-56298386D01*
X138739709Y-56298387D01*
X138659791Y-56344527D01*
X138659785Y-56344532D01*
X138595874Y-56408441D01*
X138534550Y-56441925D01*
X138508128Y-56443185D01*
X138508128Y-56444750D01*
X138500000Y-56444750D01*
X138356291Y-56463670D01*
X138356287Y-56463671D01*
X138222377Y-56519137D01*
X138107379Y-56607379D01*
X138019137Y-56722377D01*
X137963671Y-56856287D01*
X137963670Y-56856291D01*
X137948594Y-56970798D01*
X137920327Y-57034694D01*
X137862002Y-57073164D01*
X137792137Y-57073995D01*
X137737974Y-57042292D01*
X137491560Y-56795878D01*
X137458075Y-56734555D01*
X137456983Y-56708129D01*
X137455250Y-56708129D01*
X137455250Y-56700000D01*
X137436330Y-56556291D01*
X137386641Y-56436329D01*
X137380862Y-56422377D01*
X137380861Y-56422376D01*
X137380861Y-56422375D01*
X137292621Y-56307379D01*
X137177625Y-56219139D01*
X137177624Y-56219138D01*
X137177622Y-56219137D01*
X137043712Y-56163671D01*
X137043710Y-56163670D01*
X137043709Y-56163670D01*
X136943675Y-56150500D01*
X136900001Y-56144750D01*
X136899998Y-56144750D01*
X136816988Y-56155678D01*
X136747952Y-56144912D01*
X136695697Y-56098532D01*
X136676812Y-56031263D01*
X136697293Y-55964462D01*
X136713116Y-55945064D01*
X137171363Y-55486819D01*
X137232686Y-55453334D01*
X137259044Y-55450500D01*
X145185167Y-55450500D01*
X145252206Y-55470185D01*
X145297961Y-55522989D01*
X145307905Y-55592147D01*
X145303098Y-55612817D01*
X145277829Y-55690587D01*
X145249500Y-55869448D01*
X145249500Y-56050551D01*
X145277829Y-56229410D01*
X145333787Y-56401636D01*
X145333788Y-56401639D01*
X145416006Y-56562997D01*
X145522441Y-56709494D01*
X145522445Y-56709499D01*
X145650500Y-56837554D01*
X145650505Y-56837558D01*
X145778287Y-56930396D01*
X145797006Y-56943996D01*
X145849608Y-56970798D01*
X145958360Y-57026211D01*
X145958363Y-57026212D01*
X145984469Y-57034694D01*
X146130591Y-57082171D01*
X146203639Y-57093740D01*
X146290678Y-57107527D01*
X146353813Y-57137456D01*
X146390744Y-57196768D01*
X146389746Y-57266631D01*
X146351136Y-57324863D01*
X146290678Y-57352473D01*
X146130589Y-57377829D01*
X145958363Y-57433787D01*
X145958360Y-57433788D01*
X145797002Y-57516006D01*
X145650505Y-57622441D01*
X145650500Y-57622445D01*
X145522445Y-57750500D01*
X145522441Y-57750505D01*
X145416006Y-57897002D01*
X145333788Y-58058360D01*
X145333787Y-58058363D01*
X145277829Y-58230589D01*
X145249500Y-58409448D01*
X145249500Y-58590551D01*
X145277829Y-58769410D01*
X145333787Y-58941636D01*
X145333788Y-58941639D01*
X145416006Y-59102997D01*
X145522441Y-59249494D01*
X145522445Y-59249499D01*
X145650500Y-59377554D01*
X145650505Y-59377558D01*
X145778287Y-59470396D01*
X145797006Y-59483996D01*
X145958361Y-59566211D01*
X145958372Y-59566214D01*
X145960327Y-59567025D01*
X145977455Y-59576915D01*
X145977750Y-59576406D01*
X146064706Y-59626611D01*
X146064707Y-59626611D01*
X146064712Y-59626614D01*
X146153856Y-59650500D01*
X146153858Y-59650500D01*
X146242869Y-59650500D01*
X146309908Y-59670185D01*
X146355663Y-59722989D01*
X146365607Y-59792147D01*
X146336582Y-59855703D01*
X146277804Y-59893477D01*
X146262267Y-59896973D01*
X146130589Y-59917829D01*
X145958363Y-59973787D01*
X145958360Y-59973788D01*
X145797002Y-60056006D01*
X145650505Y-60162441D01*
X145650500Y-60162445D01*
X145522445Y-60290500D01*
X145522441Y-60290505D01*
X145416006Y-60437002D01*
X145333788Y-60598360D01*
X145333787Y-60598363D01*
X145277829Y-60770589D01*
X145249500Y-60949448D01*
X145249500Y-61130551D01*
X145277829Y-61309410D01*
X145333787Y-61481636D01*
X145333788Y-61481639D01*
X145416006Y-61642997D01*
X145522441Y-61789494D01*
X145522445Y-61789499D01*
X145650500Y-61917554D01*
X145650505Y-61917558D01*
X145778287Y-62010396D01*
X145797006Y-62023996D01*
X145902484Y-62077740D01*
X145958360Y-62106211D01*
X145958363Y-62106212D01*
X146044476Y-62134191D01*
X146130591Y-62162171D01*
X146203639Y-62173740D01*
X146290678Y-62187527D01*
X146353813Y-62217456D01*
X146390744Y-62276768D01*
X146389746Y-62346631D01*
X146351136Y-62404863D01*
X146290678Y-62432473D01*
X146130589Y-62457829D01*
X145958363Y-62513787D01*
X145958360Y-62513788D01*
X145797002Y-62596006D01*
X145650505Y-62702441D01*
X145650500Y-62702445D01*
X145522445Y-62830500D01*
X145522441Y-62830505D01*
X145416006Y-62977002D01*
X145333788Y-63138360D01*
X145333787Y-63138363D01*
X145277829Y-63310589D01*
X145249500Y-63489448D01*
X145249500Y-63670551D01*
X145277829Y-63849410D01*
X145333787Y-64021636D01*
X145333788Y-64021639D01*
X145416006Y-64182997D01*
X145522441Y-64329494D01*
X145522445Y-64329499D01*
X145650500Y-64457554D01*
X145650505Y-64457558D01*
X145778287Y-64550396D01*
X145797006Y-64563996D01*
X145902484Y-64617740D01*
X145958360Y-64646211D01*
X145958363Y-64646212D01*
X146044476Y-64674191D01*
X146130591Y-64702171D01*
X146203639Y-64713740D01*
X146290678Y-64727527D01*
X146353813Y-64757456D01*
X146390744Y-64816768D01*
X146389746Y-64886631D01*
X146351136Y-64944863D01*
X146290678Y-64972473D01*
X146130589Y-64997829D01*
X145958363Y-65053787D01*
X145958360Y-65053788D01*
X145797002Y-65136006D01*
X145650505Y-65242441D01*
X145650500Y-65242445D01*
X145522445Y-65370500D01*
X145522441Y-65370505D01*
X145416006Y-65517002D01*
X145333788Y-65678360D01*
X145333787Y-65678363D01*
X145277829Y-65850589D01*
X145249500Y-66029448D01*
X145249500Y-66210551D01*
X145277829Y-66389410D01*
X145333787Y-66561636D01*
X145333788Y-66561639D01*
X145416006Y-66722997D01*
X145522441Y-66869494D01*
X145522445Y-66869499D01*
X145650500Y-66997554D01*
X145650505Y-66997558D01*
X145778287Y-67090396D01*
X145797006Y-67103996D01*
X145902484Y-67157740D01*
X145958360Y-67186211D01*
X145958363Y-67186212D01*
X146024855Y-67207816D01*
X146130591Y-67242171D01*
X146203639Y-67253740D01*
X146290678Y-67267527D01*
X146353813Y-67297456D01*
X146390744Y-67356768D01*
X146389746Y-67426631D01*
X146351136Y-67484863D01*
X146290678Y-67512473D01*
X146130589Y-67537829D01*
X145958363Y-67593787D01*
X145958360Y-67593788D01*
X145797002Y-67676006D01*
X145650505Y-67782441D01*
X145650500Y-67782445D01*
X145522445Y-67910500D01*
X145522441Y-67910505D01*
X145416006Y-68057002D01*
X145333788Y-68218360D01*
X145333787Y-68218363D01*
X145277829Y-68390589D01*
X145249500Y-68569448D01*
X145249500Y-68750551D01*
X145277829Y-68929410D01*
X145333787Y-69101636D01*
X145333788Y-69101639D01*
X145416006Y-69262997D01*
X145522441Y-69409494D01*
X145522445Y-69409499D01*
X145650500Y-69537554D01*
X145650505Y-69537558D01*
X145778287Y-69630396D01*
X145797006Y-69643996D01*
X145902484Y-69697740D01*
X145958360Y-69726211D01*
X145958363Y-69726212D01*
X146044476Y-69754191D01*
X146130591Y-69782171D01*
X146203639Y-69793740D01*
X146290678Y-69807527D01*
X146353813Y-69837456D01*
X146390744Y-69896768D01*
X146389746Y-69966631D01*
X146351136Y-70024863D01*
X146290678Y-70052473D01*
X146130589Y-70077829D01*
X145958363Y-70133787D01*
X145958360Y-70133788D01*
X145797002Y-70216006D01*
X145650505Y-70322441D01*
X145650500Y-70322445D01*
X145522445Y-70450500D01*
X145522441Y-70450505D01*
X145416006Y-70597002D01*
X145333788Y-70758360D01*
X145333787Y-70758363D01*
X145277829Y-70930589D01*
X145249500Y-71109448D01*
X145249500Y-71290551D01*
X145277829Y-71469410D01*
X145333787Y-71641636D01*
X145333788Y-71641639D01*
X145416006Y-71802997D01*
X145522441Y-71949494D01*
X145522445Y-71949499D01*
X145650500Y-72077554D01*
X145650505Y-72077558D01*
X145755524Y-72153858D01*
X145797006Y-72183996D01*
X145902484Y-72237740D01*
X145958360Y-72266211D01*
X145958363Y-72266212D01*
X145991511Y-72276982D01*
X146130591Y-72322171D01*
X146213429Y-72335291D01*
X146309449Y-72350500D01*
X146376000Y-72350500D01*
X146443039Y-72370185D01*
X146488794Y-72422989D01*
X146500000Y-72474500D01*
X146500000Y-74920000D01*
X147500000Y-74920000D01*
X147500000Y-72474500D01*
X147519685Y-72407461D01*
X147572489Y-72361706D01*
X147624000Y-72350500D01*
X147690551Y-72350500D01*
X147777259Y-72336765D01*
X147869409Y-72322171D01*
X148041639Y-72266211D01*
X148046751Y-72263606D01*
X148115416Y-72250709D01*
X148180157Y-72276982D01*
X148190727Y-72286409D01*
X148213181Y-72308863D01*
X148246666Y-72370186D01*
X148249500Y-72396544D01*
X148249500Y-75903455D01*
X148229815Y-75970494D01*
X148213181Y-75991136D01*
X147595877Y-76608439D01*
X147534554Y-76641924D01*
X147508128Y-76643208D01*
X147508128Y-76644750D01*
X147500000Y-76644750D01*
X147356291Y-76663670D01*
X147356287Y-76663671D01*
X147222377Y-76719137D01*
X147107379Y-76807379D01*
X147019137Y-76922377D01*
X146963671Y-77056287D01*
X146963670Y-77056291D01*
X146944750Y-77199999D01*
X146944750Y-77200000D01*
X146963670Y-77343708D01*
X146963671Y-77343712D01*
X147019137Y-77477622D01*
X147019138Y-77477624D01*
X147019139Y-77477625D01*
X147107379Y-77592621D01*
X147222375Y-77680861D01*
X147356291Y-77736330D01*
X147483280Y-77753048D01*
X147499999Y-77755250D01*
X147500000Y-77755250D01*
X147500001Y-77755250D01*
X147514977Y-77753278D01*
X147643709Y-77736330D01*
X147777625Y-77680861D01*
X147892621Y-77592621D01*
X147980861Y-77477625D01*
X148036330Y-77343709D01*
X148055250Y-77200000D01*
X148055250Y-77199999D01*
X148055250Y-77191871D01*
X148059049Y-77191871D01*
X148066388Y-77140418D01*
X148091556Y-77104124D01*
X148880470Y-76315212D01*
X148926614Y-76235288D01*
X148950500Y-76146144D01*
X148950500Y-72153856D01*
X148926614Y-72064712D01*
X148880470Y-71984788D01*
X148686409Y-71790727D01*
X148652924Y-71729404D01*
X148657908Y-71659712D01*
X148663598Y-71646765D01*
X148666211Y-71641639D01*
X148722171Y-71469409D01*
X148736765Y-71377259D01*
X148750500Y-71290551D01*
X148750500Y-71109448D01*
X148734019Y-71005397D01*
X148722171Y-70930591D01*
X148666211Y-70758361D01*
X148666211Y-70758360D01*
X148637740Y-70702484D01*
X148583996Y-70597006D01*
X148570396Y-70578287D01*
X148477558Y-70450505D01*
X148477554Y-70450500D01*
X148349499Y-70322445D01*
X148349494Y-70322441D01*
X148202997Y-70216006D01*
X148202996Y-70216005D01*
X148202994Y-70216004D01*
X148151300Y-70189664D01*
X148041639Y-70133788D01*
X148041636Y-70133787D01*
X147869410Y-70077829D01*
X147709321Y-70052473D01*
X147646186Y-70022544D01*
X147609255Y-69963232D01*
X147610253Y-69893370D01*
X147648863Y-69835137D01*
X147709321Y-69807527D01*
X147779425Y-69796422D01*
X147869409Y-69782171D01*
X148041639Y-69726211D01*
X148202994Y-69643996D01*
X148349501Y-69537553D01*
X148477553Y-69409501D01*
X148583996Y-69262994D01*
X148666211Y-69101639D01*
X148722171Y-68929409D01*
X148736765Y-68837259D01*
X148750500Y-68750551D01*
X148750500Y-68569448D01*
X148734019Y-68465397D01*
X148722171Y-68390591D01*
X148666211Y-68218361D01*
X148666211Y-68218360D01*
X148637740Y-68162484D01*
X148583996Y-68057006D01*
X148570396Y-68038287D01*
X148477558Y-67910505D01*
X148477554Y-67910500D01*
X148349499Y-67782445D01*
X148349494Y-67782441D01*
X148202997Y-67676006D01*
X148202996Y-67676005D01*
X148202994Y-67676004D01*
X148151300Y-67649664D01*
X148041639Y-67593788D01*
X148041636Y-67593787D01*
X147869410Y-67537829D01*
X147709321Y-67512473D01*
X147646186Y-67482544D01*
X147609255Y-67423232D01*
X147610253Y-67353370D01*
X147648863Y-67295137D01*
X147709321Y-67267527D01*
X147779425Y-67256422D01*
X147869409Y-67242171D01*
X148041639Y-67186211D01*
X148202994Y-67103996D01*
X148349501Y-66997553D01*
X148477553Y-66869501D01*
X148583996Y-66722994D01*
X148666211Y-66561639D01*
X148722171Y-66389409D01*
X148736765Y-66297259D01*
X148750500Y-66210551D01*
X148750500Y-66029448D01*
X148734019Y-65925397D01*
X148722171Y-65850591D01*
X148666211Y-65678361D01*
X148666211Y-65678360D01*
X148636580Y-65620208D01*
X148583996Y-65517006D01*
X148549769Y-65469896D01*
X148477558Y-65370505D01*
X148477554Y-65370500D01*
X148349499Y-65242445D01*
X148349494Y-65242441D01*
X148202997Y-65136006D01*
X148202996Y-65136005D01*
X148202994Y-65136004D01*
X148151300Y-65109664D01*
X148041639Y-65053788D01*
X148041636Y-65053787D01*
X147869410Y-64997829D01*
X147709321Y-64972473D01*
X147646186Y-64942544D01*
X147609255Y-64883232D01*
X147610253Y-64813370D01*
X147648863Y-64755137D01*
X147709321Y-64727527D01*
X147779425Y-64716422D01*
X147869409Y-64702171D01*
X148041639Y-64646211D01*
X148202994Y-64563996D01*
X148349501Y-64457553D01*
X148477553Y-64329501D01*
X148583996Y-64182994D01*
X148666211Y-64021639D01*
X148722171Y-63849409D01*
X148736765Y-63757259D01*
X148750500Y-63670551D01*
X148750500Y-63489448D01*
X148734019Y-63385397D01*
X148722171Y-63310591D01*
X148666211Y-63138361D01*
X148666211Y-63138360D01*
X148637740Y-63082484D01*
X148583996Y-62977006D01*
X148570396Y-62958287D01*
X148477558Y-62830505D01*
X148477554Y-62830500D01*
X148349499Y-62702445D01*
X148349494Y-62702441D01*
X148202997Y-62596006D01*
X148202996Y-62596005D01*
X148202994Y-62596004D01*
X148151300Y-62569664D01*
X148041639Y-62513788D01*
X148041636Y-62513787D01*
X147869410Y-62457829D01*
X147709321Y-62432473D01*
X147646186Y-62402544D01*
X147609255Y-62343232D01*
X147610253Y-62273370D01*
X147648863Y-62215137D01*
X147709321Y-62187527D01*
X147779425Y-62176422D01*
X147869409Y-62162171D01*
X148041639Y-62106211D01*
X148202994Y-62023996D01*
X148349501Y-61917553D01*
X148477553Y-61789501D01*
X148583996Y-61642994D01*
X148666211Y-61481639D01*
X148722171Y-61309409D01*
X148736765Y-61217259D01*
X148750500Y-61130551D01*
X148750500Y-60949448D01*
X148734019Y-60845397D01*
X148722171Y-60770591D01*
X148666211Y-60598361D01*
X148666211Y-60598360D01*
X148637740Y-60542484D01*
X148583996Y-60437006D01*
X148570396Y-60418287D01*
X148477558Y-60290505D01*
X148477554Y-60290500D01*
X148349499Y-60162445D01*
X148349494Y-60162441D01*
X148202997Y-60056006D01*
X148202996Y-60056005D01*
X148202994Y-60056004D01*
X148151300Y-60029664D01*
X148041639Y-59973788D01*
X148041636Y-59973787D01*
X147869410Y-59917829D01*
X147709321Y-59892473D01*
X147646186Y-59862544D01*
X147609255Y-59803232D01*
X147610253Y-59733370D01*
X147648863Y-59675137D01*
X147709321Y-59647527D01*
X147779425Y-59636422D01*
X147869409Y-59622171D01*
X148041639Y-59566211D01*
X148202994Y-59483996D01*
X148349501Y-59377553D01*
X148477553Y-59249501D01*
X148583996Y-59102994D01*
X148666211Y-58941639D01*
X148722171Y-58769409D01*
X148737045Y-58675500D01*
X148750500Y-58590551D01*
X148750500Y-58409448D01*
X148733164Y-58299999D01*
X148722171Y-58230591D01*
X148675869Y-58088086D01*
X148666212Y-58058363D01*
X148666211Y-58058360D01*
X148626522Y-57980468D01*
X148583996Y-57897006D01*
X148527421Y-57819137D01*
X148477558Y-57750505D01*
X148477554Y-57750500D01*
X148349499Y-57622445D01*
X148349494Y-57622441D01*
X148202997Y-57516006D01*
X148202996Y-57516005D01*
X148202994Y-57516004D01*
X148151300Y-57489664D01*
X148041639Y-57433788D01*
X148041636Y-57433787D01*
X147869410Y-57377829D01*
X147709321Y-57352473D01*
X147646186Y-57322544D01*
X147609255Y-57263232D01*
X147610253Y-57193370D01*
X147648863Y-57135137D01*
X147709321Y-57107527D01*
X147779425Y-57096422D01*
X147869409Y-57082171D01*
X148041639Y-57026211D01*
X148202994Y-56943996D01*
X148349501Y-56837553D01*
X148477553Y-56709501D01*
X148583996Y-56562994D01*
X148666211Y-56401639D01*
X148722171Y-56229409D01*
X148742900Y-56098532D01*
X148750500Y-56050551D01*
X148750500Y-55869448D01*
X148732576Y-55756287D01*
X148722171Y-55690591D01*
X148669933Y-55529815D01*
X148666212Y-55518363D01*
X148666211Y-55518360D01*
X148631634Y-55450500D01*
X148583996Y-55357006D01*
X148570396Y-55338287D01*
X148477558Y-55210505D01*
X148477554Y-55210500D01*
X148349499Y-55082445D01*
X148349494Y-55082441D01*
X148202997Y-54976006D01*
X148202996Y-54976005D01*
X148202994Y-54976004D01*
X148113233Y-54930268D01*
X148041639Y-54893788D01*
X148041636Y-54893787D01*
X147869410Y-54837829D01*
X147709321Y-54812473D01*
X147646186Y-54782544D01*
X147609255Y-54723232D01*
X147610253Y-54653370D01*
X147648863Y-54595137D01*
X147709321Y-54567527D01*
X147779425Y-54556422D01*
X147869409Y-54542171D01*
X148041639Y-54486211D01*
X148202994Y-54403996D01*
X148349501Y-54297553D01*
X148477553Y-54169501D01*
X148583996Y-54022994D01*
X148666211Y-53861639D01*
X148722171Y-53689409D01*
X148740292Y-53575000D01*
X148750500Y-53510551D01*
X148750500Y-53329448D01*
X148734019Y-53225397D01*
X148722171Y-53150591D01*
X148666211Y-52978361D01*
X148666211Y-52978360D01*
X148604061Y-52856386D01*
X148583996Y-52817006D01*
X148548115Y-52767620D01*
X148477558Y-52670505D01*
X148477554Y-52670500D01*
X148349499Y-52542445D01*
X148349494Y-52542441D01*
X148202997Y-52436006D01*
X148202996Y-52436005D01*
X148202994Y-52436004D01*
X148151300Y-52409664D01*
X148041639Y-52353788D01*
X148041636Y-52353787D01*
X147869410Y-52297829D01*
X147690551Y-52269500D01*
X147690546Y-52269500D01*
X147624000Y-52269500D01*
X147556961Y-52249815D01*
X147511206Y-52197011D01*
X147500000Y-52145500D01*
X147500000Y-51420000D01*
X146500000Y-51420000D01*
X146500000Y-52145500D01*
X146480315Y-52212539D01*
X146427511Y-52258294D01*
X146376000Y-52269500D01*
X146309449Y-52269500D01*
X146130589Y-52297829D01*
X145958363Y-52353787D01*
X145958360Y-52353788D01*
X145797002Y-52436006D01*
X145650505Y-52542441D01*
X145650500Y-52542445D01*
X145522445Y-52670500D01*
X145522441Y-52670505D01*
X145416006Y-52817002D01*
X145333788Y-52978360D01*
X145333787Y-52978363D01*
X145277829Y-53150589D01*
X145249500Y-53329448D01*
X145249500Y-53510551D01*
X145277829Y-53689410D01*
X145333787Y-53861636D01*
X145333788Y-53861639D01*
X145381665Y-53955600D01*
X145412997Y-54017093D01*
X145416006Y-54022997D01*
X145522441Y-54169494D01*
X145522445Y-54169499D01*
X145650500Y-54297554D01*
X145650505Y-54297558D01*
X145777164Y-54389580D01*
X145797006Y-54403996D01*
X145889066Y-54450903D01*
X145958360Y-54486211D01*
X145958363Y-54486212D01*
X146044476Y-54514191D01*
X146130591Y-54542171D01*
X146203639Y-54553740D01*
X146290678Y-54567527D01*
X146353813Y-54597456D01*
X146390744Y-54656768D01*
X146389746Y-54726631D01*
X146351136Y-54784863D01*
X146290678Y-54812473D01*
X146130589Y-54837829D01*
X145958363Y-54893787D01*
X145958354Y-54893791D01*
X145860502Y-54943649D01*
X145791833Y-54956545D01*
X145727092Y-54930268D01*
X145716527Y-54920845D01*
X145615213Y-54819531D01*
X145615208Y-54819527D01*
X145535290Y-54773387D01*
X145535289Y-54773386D01*
X145535288Y-54773386D01*
X145446144Y-54749500D01*
X137016356Y-54749500D01*
X137016354Y-54749500D01*
X136975240Y-54760516D01*
X136975240Y-54760517D01*
X136927212Y-54773386D01*
X136927211Y-54773386D01*
X136927209Y-54773387D01*
X136847291Y-54819527D01*
X136847286Y-54819531D01*
X135778637Y-55888181D01*
X135717314Y-55921666D01*
X135690956Y-55924500D01*
X134762823Y-55924500D01*
X134689764Y-55939032D01*
X134689760Y-55939033D01*
X134606899Y-55994399D01*
X134551533Y-56077260D01*
X134551532Y-56077264D01*
X134537000Y-56150321D01*
X134537000Y-56321391D01*
X134517315Y-56388430D01*
X134464511Y-56434185D01*
X134408127Y-56442638D01*
X134408127Y-56444750D01*
X134399999Y-56444750D01*
X134256291Y-56463670D01*
X134256287Y-56463671D01*
X134122377Y-56519137D01*
X134007379Y-56607379D01*
X133919137Y-56722377D01*
X133863671Y-56856287D01*
X133863670Y-56856291D01*
X133847976Y-56975500D01*
X133844750Y-57000000D01*
X50000000Y-57000000D01*
X50000000Y-54355025D01*
X97699775Y-54355025D01*
X97717046Y-54486212D01*
X97718695Y-54498733D01*
X97718696Y-54498737D01*
X97774162Y-54632647D01*
X97774163Y-54632649D01*
X97774164Y-54632650D01*
X97862404Y-54747646D01*
X97977400Y-54835886D01*
X98111316Y-54891355D01*
X98255025Y-54910275D01*
X98263154Y-54910275D01*
X98263154Y-54913853D01*
X98315995Y-54922056D01*
X98350903Y-54946585D01*
X99584788Y-56180470D01*
X99651765Y-56219139D01*
X99664712Y-56226614D01*
X99753856Y-56250500D01*
X99753857Y-56250500D01*
X99846144Y-56250500D01*
X103613908Y-56250500D01*
X103680947Y-56270185D01*
X103700412Y-56288086D01*
X103701628Y-56286871D01*
X103707372Y-56292615D01*
X103707377Y-56292619D01*
X103707379Y-56292621D01*
X103822375Y-56380861D01*
X103956291Y-56436330D01*
X104072884Y-56451680D01*
X104099999Y-56455250D01*
X104100000Y-56455250D01*
X104100001Y-56455250D01*
X104127116Y-56451680D01*
X104243709Y-56436330D01*
X104377625Y-56380861D01*
X104492621Y-56292621D01*
X104580861Y-56177625D01*
X104636330Y-56043709D01*
X104655250Y-55900000D01*
X104636330Y-55756291D01*
X104580861Y-55622375D01*
X104492621Y-55507379D01*
X104377625Y-55419139D01*
X104377624Y-55419138D01*
X104377622Y-55419137D01*
X104243712Y-55363671D01*
X104243710Y-55363670D01*
X104243709Y-55363670D01*
X104171854Y-55354210D01*
X104100001Y-55344750D01*
X104099999Y-55344750D01*
X103956291Y-55363670D01*
X103956287Y-55363671D01*
X103822377Y-55419137D01*
X103707372Y-55507384D01*
X103701628Y-55513129D01*
X103699111Y-55510612D01*
X103655817Y-55542203D01*
X103613908Y-55549500D01*
X99996544Y-55549500D01*
X99929505Y-55529815D01*
X99908863Y-55513181D01*
X98846585Y-54450903D01*
X98813100Y-54389580D01*
X98812008Y-54363154D01*
X98810275Y-54363154D01*
X98810275Y-54355025D01*
X98802709Y-54297558D01*
X98791355Y-54211316D01*
X98735886Y-54077400D01*
X98647646Y-53962404D01*
X98532650Y-53874164D01*
X98532649Y-53874163D01*
X98532647Y-53874162D01*
X98398737Y-53818696D01*
X98398735Y-53818695D01*
X98398734Y-53818695D01*
X98326879Y-53809235D01*
X98255026Y-53799775D01*
X98255024Y-53799775D01*
X98111316Y-53818695D01*
X98111312Y-53818696D01*
X97977402Y-53874162D01*
X97862404Y-53962404D01*
X97774162Y-54077402D01*
X97718696Y-54211312D01*
X97718695Y-54211316D01*
X97711154Y-54268598D01*
X97699775Y-54355025D01*
X50000000Y-54355025D01*
X50000000Y-53575000D01*
X134287500Y-53575000D01*
X134287500Y-53822844D01*
X134293901Y-53882372D01*
X134293903Y-53882379D01*
X134344145Y-54017086D01*
X134344149Y-54017093D01*
X134430309Y-54132187D01*
X134430312Y-54132190D01*
X134545406Y-54218350D01*
X134545413Y-54218354D01*
X134680120Y-54268596D01*
X134680127Y-54268598D01*
X134739655Y-54274999D01*
X134739672Y-54275000D01*
X135287500Y-54275000D01*
X135287500Y-53575000D01*
X135787500Y-53575000D01*
X135787500Y-54275000D01*
X136335328Y-54275000D01*
X136335344Y-54274999D01*
X136394872Y-54268598D01*
X136394879Y-54268596D01*
X136529586Y-54218354D01*
X136529593Y-54218350D01*
X136644687Y-54132190D01*
X136644690Y-54132187D01*
X136730850Y-54017093D01*
X136730854Y-54017086D01*
X136781096Y-53882379D01*
X136781098Y-53882372D01*
X136787499Y-53822844D01*
X136787500Y-53822827D01*
X136787500Y-53575000D01*
X135787500Y-53575000D01*
X135287500Y-53575000D01*
X134287500Y-53575000D01*
X50000000Y-53575000D01*
X50000000Y-53075000D01*
X134287500Y-53075000D01*
X135287500Y-53075000D01*
X135787500Y-53075000D01*
X136787500Y-53075000D01*
X136787500Y-52827172D01*
X136787499Y-52827155D01*
X136781098Y-52767627D01*
X136781096Y-52767620D01*
X136730854Y-52632913D01*
X136730850Y-52632906D01*
X136644690Y-52517812D01*
X136586785Y-52474464D01*
X136544915Y-52418530D01*
X136539931Y-52348839D01*
X136573417Y-52287516D01*
X136634740Y-52254031D01*
X136677281Y-52252259D01*
X136700000Y-52255250D01*
X136708129Y-52255250D01*
X136708129Y-52258828D01*
X136760970Y-52267031D01*
X136795878Y-52291560D01*
X138109788Y-53605470D01*
X138189712Y-53651614D01*
X138278856Y-53675500D01*
X139313000Y-53675500D01*
X139380039Y-53695185D01*
X139425794Y-53747989D01*
X139435733Y-53793679D01*
X139436403Y-53793614D01*
X139436968Y-53799354D01*
X139437000Y-53799500D01*
X139437000Y-53799678D01*
X139451532Y-53872735D01*
X139451533Y-53872739D01*
X139451534Y-53872740D01*
X139506899Y-53955601D01*
X139589760Y-54010966D01*
X139589764Y-54010967D01*
X139662821Y-54025499D01*
X139662824Y-54025500D01*
X139662826Y-54025500D01*
X141212176Y-54025500D01*
X141212177Y-54025499D01*
X141285240Y-54010966D01*
X141368101Y-53955601D01*
X141423466Y-53872740D01*
X141438000Y-53799674D01*
X141438000Y-52850326D01*
X141438000Y-52850323D01*
X141437999Y-52850321D01*
X141423467Y-52777264D01*
X141423466Y-52777260D01*
X141368101Y-52694399D01*
X141285240Y-52639034D01*
X141285239Y-52639033D01*
X141285235Y-52639032D01*
X141212177Y-52624500D01*
X141212174Y-52624500D01*
X139662826Y-52624500D01*
X139662823Y-52624500D01*
X139589764Y-52639032D01*
X139589760Y-52639033D01*
X139506899Y-52694399D01*
X139451533Y-52777260D01*
X139451532Y-52777264D01*
X139437000Y-52850321D01*
X139437000Y-52850500D01*
X139436973Y-52850589D01*
X139436403Y-52856386D01*
X139435303Y-52856277D01*
X139417315Y-52917539D01*
X139364511Y-52963294D01*
X139313000Y-52974500D01*
X138521544Y-52974500D01*
X138454505Y-52954815D01*
X138433863Y-52938181D01*
X137291560Y-51795878D01*
X137258075Y-51734555D01*
X137256983Y-51708129D01*
X137255250Y-51708129D01*
X137255250Y-51700000D01*
X137255250Y-51699999D01*
X137236330Y-51556291D01*
X137180861Y-51422375D01*
X137092621Y-51307379D01*
X136977625Y-51219139D01*
X136977624Y-51219138D01*
X136977622Y-51219137D01*
X136843712Y-51163671D01*
X136843710Y-51163670D01*
X136843709Y-51163670D01*
X136771854Y-51154210D01*
X136700001Y-51144750D01*
X136699999Y-51144750D01*
X136556291Y-51163670D01*
X136556287Y-51163671D01*
X136422377Y-51219137D01*
X136307379Y-51307379D01*
X136219137Y-51422377D01*
X136163671Y-51556287D01*
X136163670Y-51556291D01*
X136144750Y-51699999D01*
X136144750Y-51700000D01*
X136163670Y-51843708D01*
X136163671Y-51843712D01*
X136219137Y-51977622D01*
X136219138Y-51977624D01*
X136219139Y-51977625D01*
X136307379Y-52092621D01*
X136360831Y-52133637D01*
X136385577Y-52152625D01*
X136426779Y-52209053D01*
X136430934Y-52278799D01*
X136396721Y-52339719D01*
X136335004Y-52372471D01*
X136310090Y-52375000D01*
X135787500Y-52375000D01*
X135787500Y-53075000D01*
X135287500Y-53075000D01*
X135287500Y-52375000D01*
X134739655Y-52375000D01*
X134680127Y-52381401D01*
X134680120Y-52381403D01*
X134545413Y-52431645D01*
X134545406Y-52431649D01*
X134430312Y-52517809D01*
X134430309Y-52517812D01*
X134344149Y-52632906D01*
X134344145Y-52632913D01*
X134293903Y-52767620D01*
X134293901Y-52767627D01*
X134287500Y-52827155D01*
X134287500Y-53075000D01*
X50000000Y-53075000D01*
X50000000Y-50124000D01*
X50019685Y-50056961D01*
X50072489Y-50011206D01*
X50124000Y-50000000D01*
X149876000Y-50000000D01*
X149943039Y-50019685D01*
G37*
%TD.AperFunction*%
%TD*%
M02*
