%TF.GenerationSoftware,KiCad,Pcbnew,8.0.1*%
%TF.CreationDate,2024-03-23T17:43:50+03:00*%
%TF.ProjectId,AudMix,4175644d-6978-42e6-9b69-6361645f7063,rev?*%
%TF.SameCoordinates,Original*%
%TF.FileFunction,Soldermask,Bot*%
%TF.FilePolarity,Negative*%
%FSLAX46Y46*%
G04 Gerber Fmt 4.6, Leading zero omitted, Abs format (unit mm)*
G04 Created by KiCad (PCBNEW 8.0.1) date 2024-03-23 17:43:50*
%MOMM*%
%LPD*%
G01*
G04 APERTURE LIST*
G04 Aperture macros list*
%AMRoundRect*
0 Rectangle with rounded corners*
0 $1 Rounding radius*
0 $2 $3 $4 $5 $6 $7 $8 $9 X,Y pos of 4 corners*
0 Add a 4 corners polygon primitive as box body*
4,1,4,$2,$3,$4,$5,$6,$7,$8,$9,$2,$3,0*
0 Add four circle primitives for the rounded corners*
1,1,$1+$1,$2,$3*
1,1,$1+$1,$4,$5*
1,1,$1+$1,$6,$7*
1,1,$1+$1,$8,$9*
0 Add four rect primitives between the rounded corners*
20,1,$1+$1,$2,$3,$4,$5,0*
20,1,$1+$1,$4,$5,$6,$7,0*
20,1,$1+$1,$6,$7,$8,$9,0*
20,1,$1+$1,$8,$9,$2,$3,0*%
G04 Aperture macros list end*
%ADD10C,2.200000*%
%ADD11O,3.000000X1.800000*%
%ADD12RoundRect,0.237500X0.237500X-0.300000X0.237500X0.300000X-0.237500X0.300000X-0.237500X-0.300000X0*%
%ADD13RoundRect,0.237500X0.237500X-0.250000X0.237500X0.250000X-0.237500X0.250000X-0.237500X-0.250000X0*%
%ADD14RoundRect,0.237500X-0.237500X0.250000X-0.237500X-0.250000X0.237500X-0.250000X0.237500X0.250000X0*%
%ADD15R,0.400000X2.500000*%
%ADD16RoundRect,0.162500X0.617500X0.162500X-0.617500X0.162500X-0.617500X-0.162500X0.617500X-0.162500X0*%
%ADD17RoundRect,0.150000X-0.650000X-0.150000X0.650000X-0.150000X0.650000X0.150000X-0.650000X0.150000X0*%
%ADD18R,2.410000X3.100000*%
%ADD19RoundRect,0.250000X0.250000X0.250000X-0.250000X0.250000X-0.250000X-0.250000X0.250000X-0.250000X0*%
%ADD20RoundRect,0.500000X-0.500000X-1.000000X0.500000X-1.000000X0.500000X1.000000X-0.500000X1.000000X0*%
%ADD21RoundRect,0.100000X0.637500X0.100000X-0.637500X0.100000X-0.637500X-0.100000X0.637500X-0.100000X0*%
%ADD22R,0.700000X1.500000*%
%ADD23R,1.000000X0.800000*%
%ADD24RoundRect,0.237500X-0.300000X-0.237500X0.300000X-0.237500X0.300000X0.237500X-0.300000X0.237500X0*%
%ADD25RoundRect,0.237500X0.300000X0.237500X-0.300000X0.237500X-0.300000X-0.237500X0.300000X-0.237500X0*%
%ADD26RoundRect,0.150000X-0.512500X-0.150000X0.512500X-0.150000X0.512500X0.150000X-0.512500X0.150000X0*%
%ADD27RoundRect,0.237500X0.250000X0.237500X-0.250000X0.237500X-0.250000X-0.237500X0.250000X-0.237500X0*%
%ADD28RoundRect,0.237500X-0.250000X-0.237500X0.250000X-0.237500X0.250000X0.237500X-0.250000X0.237500X0*%
%ADD29RoundRect,0.500000X1.000000X-0.500000X1.000000X0.500000X-1.000000X0.500000X-1.000000X-0.500000X0*%
%ADD30RoundRect,0.375000X0.625000X0.375000X-0.625000X0.375000X-0.625000X-0.375000X0.625000X-0.375000X0*%
%ADD31RoundRect,0.500000X0.500000X1.400000X-0.500000X1.400000X-0.500000X-1.400000X0.500000X-1.400000X0*%
G04 APERTURE END LIST*
D10*
%TO.C,REF\u002A\u002A*%
X53000000Y-120500000D03*
%TD*%
%TO.C,REF\u002A\u002A*%
X147000000Y-120500000D03*
%TD*%
%TO.C,REF\u002A\u002A*%
X53000000Y-66500000D03*
%TD*%
D11*
%TO.C,U1*%
X147000000Y-53420000D03*
X147000000Y-55960000D03*
X147000000Y-58500000D03*
X147000000Y-61040000D03*
X147000000Y-63580000D03*
X147000000Y-66120000D03*
X147000000Y-68660000D03*
X147000000Y-71200000D03*
%TD*%
D12*
%TO.C,C38*%
X129500000Y-131762500D03*
X129500000Y-130037500D03*
%TD*%
D13*
%TO.C,R25*%
X135400000Y-131712500D03*
X135400000Y-129887500D03*
%TD*%
D14*
%TO.C,R17*%
X120400000Y-129900000D03*
X120400000Y-131725000D03*
%TD*%
D15*
%TO.C,U7*%
X89775000Y-134425000D03*
X89125000Y-134425000D03*
X88475000Y-134425000D03*
X87825000Y-134425000D03*
X87175000Y-134425000D03*
X86525000Y-134425000D03*
X85875000Y-134425000D03*
X85225000Y-134425000D03*
X84575000Y-134425000D03*
X83925000Y-134425000D03*
X83275000Y-134425000D03*
X82625000Y-134425000D03*
X81975000Y-134425000D03*
X81325000Y-134425000D03*
X80675000Y-134425000D03*
X80025000Y-134425000D03*
X79375000Y-134425000D03*
X78725000Y-134425000D03*
X78075000Y-134425000D03*
X77425000Y-134425000D03*
X76775000Y-134425000D03*
X76125000Y-134425000D03*
X75475000Y-134425000D03*
X74825000Y-134425000D03*
X74175000Y-134425000D03*
X73525000Y-134425000D03*
X72875000Y-134425000D03*
X72225000Y-134425000D03*
%TD*%
D12*
%TO.C,C27*%
X99800000Y-131675000D03*
X99800000Y-129950000D03*
%TD*%
D14*
%TO.C,R9*%
X140800000Y-54187500D03*
X140800000Y-56012500D03*
%TD*%
D13*
%TO.C,R5*%
X114500000Y-58212500D03*
X114500000Y-56387500D03*
%TD*%
D15*
%TO.C,U8*%
X127775000Y-134425000D03*
X127125000Y-134425000D03*
X126475000Y-134425000D03*
X125825000Y-134425000D03*
X125175000Y-134425000D03*
X124525000Y-134425000D03*
X123875000Y-134425000D03*
X123225000Y-134425000D03*
X122575000Y-134425000D03*
X121925000Y-134425000D03*
X121275000Y-134425000D03*
X120625000Y-134425000D03*
X119975000Y-134425000D03*
X119325000Y-134425000D03*
X118675000Y-134425000D03*
X118025000Y-134425000D03*
X117375000Y-134425000D03*
X116725000Y-134425000D03*
X116075000Y-134425000D03*
X115425000Y-134425000D03*
X114775000Y-134425000D03*
X114125000Y-134425000D03*
X113475000Y-134425000D03*
X112825000Y-134425000D03*
X112175000Y-134425000D03*
X111525000Y-134425000D03*
X110875000Y-134425000D03*
X110225000Y-134425000D03*
%TD*%
D12*
%TO.C,C25*%
X103200000Y-131675000D03*
X103200000Y-129950000D03*
%TD*%
%TO.C,C16*%
X89000000Y-131675000D03*
X89000000Y-129950000D03*
%TD*%
%TO.C,C19*%
X123800000Y-131675000D03*
X123800000Y-129950000D03*
%TD*%
D14*
%TO.C,R11*%
X63400000Y-129887500D03*
X63400000Y-131712500D03*
%TD*%
D12*
%TO.C,C23*%
X127000000Y-131675000D03*
X127000000Y-129950000D03*
%TD*%
D13*
%TO.C,R22*%
X98100000Y-131725000D03*
X98100000Y-129900000D03*
%TD*%
%TO.C,R19*%
X117100000Y-131725000D03*
X117100000Y-129900000D03*
%TD*%
D16*
%TO.C,U4*%
X74150000Y-52965000D03*
X74150000Y-53915000D03*
X74150000Y-54865000D03*
X71450000Y-54865000D03*
X71450000Y-53915000D03*
X71450000Y-52965000D03*
%TD*%
D17*
%TO.C,U2*%
X59450000Y-56880000D03*
X59450000Y-55610000D03*
X59450000Y-54340000D03*
X59450000Y-53070000D03*
X64750000Y-53070000D03*
X64750000Y-54340000D03*
X64750000Y-55610000D03*
X64750000Y-56880000D03*
D18*
X62100000Y-54975000D03*
%TD*%
D12*
%TO.C,C13*%
X80800000Y-131675000D03*
X80800000Y-129950000D03*
%TD*%
D14*
%TO.C,R6*%
X99900000Y-53487500D03*
X99900000Y-55312500D03*
%TD*%
D12*
%TO.C,C18*%
X122200000Y-131675000D03*
X122200000Y-129950000D03*
%TD*%
D15*
%TO.C,U10*%
X146775000Y-134412500D03*
X146125000Y-134412500D03*
X145475000Y-134412500D03*
X144825000Y-134412500D03*
X144175000Y-134412500D03*
X143525000Y-134412500D03*
X142875000Y-134412500D03*
X142225000Y-134412500D03*
X141575000Y-134412500D03*
X140925000Y-134412500D03*
X140275000Y-134412500D03*
X139625000Y-134412500D03*
X138975000Y-134412500D03*
X138325000Y-134412500D03*
X137675000Y-134412500D03*
X137025000Y-134412500D03*
X136375000Y-134412500D03*
X135725000Y-134412500D03*
X135075000Y-134412500D03*
X134425000Y-134412500D03*
X133775000Y-134412500D03*
X133125000Y-134412500D03*
X132475000Y-134412500D03*
X131825000Y-134412500D03*
X131175000Y-134412500D03*
X130525000Y-134412500D03*
X129875000Y-134412500D03*
X129225000Y-134412500D03*
%TD*%
D12*
%TO.C,C3*%
X69600000Y-54862500D03*
X69600000Y-53137500D03*
%TD*%
D19*
%TO.C,D1*%
X104050000Y-57200000D03*
X101550000Y-57200000D03*
%TD*%
D13*
%TO.C,R15*%
X75700000Y-131825000D03*
X75700000Y-130000000D03*
%TD*%
D20*
%TO.C,J2*%
X132787500Y-53612500D03*
X135387500Y-53612500D03*
X137987500Y-53612500D03*
%TD*%
D14*
%TO.C,R8*%
X142300000Y-54187500D03*
X142300000Y-56012500D03*
%TD*%
D12*
%TO.C,C21*%
X125400000Y-131675000D03*
X125400000Y-129950000D03*
%TD*%
%TO.C,C14*%
X87400000Y-131675000D03*
X87400000Y-129950000D03*
%TD*%
%TO.C,C12*%
X85800000Y-131675000D03*
X85800000Y-129950000D03*
%TD*%
%TO.C,C33*%
X142800000Y-131662500D03*
X142800000Y-129937500D03*
%TD*%
D14*
%TO.C,R10*%
X76000000Y-54087500D03*
X76000000Y-55912500D03*
%TD*%
D12*
%TO.C,C34*%
X137800000Y-131662500D03*
X137800000Y-129937500D03*
%TD*%
D15*
%TO.C,U6*%
X70775000Y-134412500D03*
X70125000Y-134412500D03*
X69475000Y-134412500D03*
X68825000Y-134412500D03*
X68175000Y-134412500D03*
X67525000Y-134412500D03*
X66875000Y-134412500D03*
X66225000Y-134412500D03*
X65575000Y-134412500D03*
X64925000Y-134412500D03*
X64275000Y-134412500D03*
X63625000Y-134412500D03*
X62975000Y-134412500D03*
X62325000Y-134412500D03*
X61675000Y-134412500D03*
X61025000Y-134412500D03*
X60375000Y-134412500D03*
X59725000Y-134412500D03*
X59075000Y-134412500D03*
X58425000Y-134412500D03*
X57775000Y-134412500D03*
X57125000Y-134412500D03*
X56475000Y-134412500D03*
X55825000Y-134412500D03*
X55175000Y-134412500D03*
X54525000Y-134412500D03*
X53875000Y-134412500D03*
X53225000Y-134412500D03*
%TD*%
D20*
%TO.C,J3*%
X53075000Y-115950000D03*
X53075000Y-112050000D03*
%TD*%
D21*
%TO.C,U5*%
X83962500Y-54025000D03*
X83962500Y-54675000D03*
X83962500Y-55325000D03*
X83962500Y-55975000D03*
X78237500Y-55975000D03*
X78237500Y-55325000D03*
X78237500Y-54675000D03*
X78237500Y-54025000D03*
%TD*%
D12*
%TO.C,C35*%
X144400000Y-131662500D03*
X144400000Y-129937500D03*
%TD*%
D22*
%TO.C,SW1*%
X108390000Y-54485000D03*
X109890000Y-54485000D03*
X112890000Y-54485000D03*
X114390000Y-54485000D03*
D23*
X106240000Y-51625000D03*
X106240000Y-53835000D03*
X116540000Y-51625000D03*
X116540000Y-53835000D03*
%TD*%
D12*
%TO.C,C32*%
X141200000Y-131662500D03*
X141200000Y-129937500D03*
%TD*%
D24*
%TO.C,C2*%
X109937500Y-56300000D03*
X111662500Y-56300000D03*
%TD*%
D12*
%TO.C,C5*%
X66800000Y-131662500D03*
X66800000Y-129937500D03*
%TD*%
D13*
%TO.C,R1*%
X106800000Y-58112500D03*
X106800000Y-56287500D03*
%TD*%
D12*
%TO.C,C9*%
X70000000Y-131662500D03*
X70000000Y-129937500D03*
%TD*%
D25*
%TO.C,C1*%
X57150000Y-53050000D03*
X55425000Y-53050000D03*
%TD*%
D26*
%TO.C,Q1*%
X101762500Y-55350000D03*
X101762500Y-53450000D03*
X104037500Y-54400000D03*
%TD*%
D13*
%TO.C,R16*%
X79100000Y-131725000D03*
X79100000Y-129900000D03*
%TD*%
D27*
%TO.C,R3*%
X57212500Y-55600000D03*
X55387500Y-55600000D03*
%TD*%
D28*
%TO.C,R4*%
X111087500Y-58200000D03*
X112912500Y-58200000D03*
%TD*%
D14*
%TO.C,R20*%
X101400000Y-129900000D03*
X101400000Y-131725000D03*
%TD*%
D12*
%TO.C,C30*%
X108000000Y-131675000D03*
X108000000Y-129950000D03*
%TD*%
%TO.C,C22*%
X112100000Y-131775000D03*
X112100000Y-130050000D03*
%TD*%
%TO.C,C29*%
X93100000Y-131775000D03*
X93100000Y-130050000D03*
%TD*%
%TO.C,C28*%
X106400000Y-131675000D03*
X106400000Y-129950000D03*
%TD*%
D13*
%TO.C,R18*%
X113700000Y-131825000D03*
X113700000Y-130000000D03*
%TD*%
D29*
%TO.C,BT1*%
X69550000Y-127625000D03*
X73450000Y-127625000D03*
%TD*%
D15*
%TO.C,U9*%
X108775000Y-134425000D03*
X108125000Y-134425000D03*
X107475000Y-134425000D03*
X106825000Y-134425000D03*
X106175000Y-134425000D03*
X105525000Y-134425000D03*
X104875000Y-134425000D03*
X104225000Y-134425000D03*
X103575000Y-134425000D03*
X102925000Y-134425000D03*
X102275000Y-134425000D03*
X101625000Y-134425000D03*
X100975000Y-134425000D03*
X100325000Y-134425000D03*
X99675000Y-134425000D03*
X99025000Y-134425000D03*
X98375000Y-134425000D03*
X97725000Y-134425000D03*
X97075000Y-134425000D03*
X96425000Y-134425000D03*
X95775000Y-134425000D03*
X95125000Y-134425000D03*
X94475000Y-134425000D03*
X93825000Y-134425000D03*
X93175000Y-134425000D03*
X92525000Y-134425000D03*
X91875000Y-134425000D03*
X91225000Y-134425000D03*
%TD*%
D13*
%TO.C,R24*%
X132700000Y-131812500D03*
X132700000Y-129987500D03*
%TD*%
D12*
%TO.C,C24*%
X110500000Y-131775000D03*
X110500000Y-130050000D03*
%TD*%
%TO.C,C20*%
X118800000Y-131675000D03*
X118800000Y-129950000D03*
%TD*%
D14*
%TO.C,R7*%
X68000000Y-53087500D03*
X68000000Y-54912500D03*
%TD*%
D12*
%TO.C,C4*%
X65200000Y-131662500D03*
X65200000Y-129937500D03*
%TD*%
D13*
%TO.C,R2*%
X143800000Y-56012500D03*
X143800000Y-54187500D03*
%TD*%
D14*
%TO.C,R14*%
X82400000Y-129900000D03*
X82400000Y-131725000D03*
%TD*%
D12*
%TO.C,C10*%
X53500000Y-131762500D03*
X53500000Y-130037500D03*
%TD*%
D13*
%TO.C,R13*%
X60100000Y-131712500D03*
X60100000Y-129887500D03*
%TD*%
D30*
%TO.C,U3*%
X96750000Y-53200000D03*
X96750000Y-55500000D03*
D31*
X90450000Y-55500000D03*
D30*
X96750000Y-57800000D03*
%TD*%
D12*
%TO.C,C6*%
X61800000Y-131662500D03*
X61800000Y-129937500D03*
%TD*%
%TO.C,C11*%
X84200000Y-131675000D03*
X84200000Y-129950000D03*
%TD*%
%TO.C,C15*%
X74100000Y-131775000D03*
X74100000Y-130050000D03*
%TD*%
%TO.C,C31*%
X91500000Y-131775000D03*
X91500000Y-130050000D03*
%TD*%
%TO.C,C8*%
X55100000Y-131762500D03*
X55100000Y-130037500D03*
%TD*%
%TO.C,C36*%
X131100000Y-131762500D03*
X131100000Y-130037500D03*
%TD*%
D14*
%TO.C,R23*%
X139400000Y-129887500D03*
X139400000Y-131712500D03*
%TD*%
D13*
%TO.C,R12*%
X56700000Y-131812500D03*
X56700000Y-129987500D03*
%TD*%
%TO.C,R21*%
X94700000Y-131825000D03*
X94700000Y-130000000D03*
%TD*%
D12*
%TO.C,C7*%
X68400000Y-131662500D03*
X68400000Y-129937500D03*
%TD*%
D20*
%TO.C,J1*%
X121187500Y-53562500D03*
X123787500Y-53562500D03*
X126387500Y-53562500D03*
%TD*%
D12*
%TO.C,C37*%
X146000000Y-131662500D03*
X146000000Y-129937500D03*
%TD*%
%TO.C,C17*%
X72500000Y-131775000D03*
X72500000Y-130050000D03*
%TD*%
%TO.C,C26*%
X104800000Y-131675000D03*
X104800000Y-129950000D03*
%TD*%
M02*
