M48
; DRILL file {KiCad 8.0.1} date 2024-03-23T17:44:21+0300
; FORMAT={-:-/ absolute / metric / decimal}
; #@! TF.CreationDate,2024-03-23T17:44:21+03:00
; #@! TF.GenerationSoftware,Kicad,Pcbnew,8.0.1
; #@! TF.FileFunction,Plated,1,2,PTH
FMAT,2
METRIC
; #@! TA.AperFunction,Plated,PTH,ViaDrill
T1C0.300
; #@! TA.AperFunction,Plated,PTH,ComponentDrill
T2C1.000
%
G90
G05
T1
X52.6Y-134.4
X55.4Y-54.3
X58.2Y-130.8
X58.9Y-130.11
X61.2Y-53.8
X61.2Y-55.0
X61.2Y-56.2
X62.1Y-54.3
X62.1Y-55.6
X63.0Y-53.8
X63.0Y-55.0
X63.0Y-56.2
X63.4Y-128.8
X64.24Y-129.47
X65.975Y-128.788
X71.5Y-134.4
X74.8Y-55.9
X77.162Y-130.812
X77.862Y-130.123
X79.5Y-55.0
X83.203Y-129.482
X83.4Y-132.7
X84.975Y-128.8
X90.5Y-134.4
X95.2Y-53.2
X96.2Y-130.812
X96.9Y-130.123
X98.255Y-54.355
X98.5Y-53.2
X102.1Y-58.3
X102.24Y-129.482
X102.3Y-132.8
X103.6Y-58.3
X104.0Y-128.8
X104.1Y-55.9
X105.2Y-53.8
X107.15Y-51.6
X109.5Y-134.4
X113.1Y-56.3
X115.2Y-130.812
X115.55Y-51.65
X115.9Y-130.123
X120.5Y-55.5
X121.24Y-129.482
X121.8Y-55.5
X122.975Y-128.8
X128.5Y-134.4
X133.9Y-130.8
X134.4Y-57.0
X134.5Y-130.123
X136.7Y-51.7
X136.9Y-56.7
X137.6Y-54.3
X138.5Y-57.0
X139.0Y-54.3
X139.2Y-52.4
X139.4Y-57.7
X140.24Y-129.47
X142.269Y-131.131
X147.4Y-134.4
X147.6Y-76.3
T2
G00X147.5Y-53.42
M15
G01X146.5Y-53.42
M16
G05
G00X147.5Y-55.96
M15
G01X146.5Y-55.96
M16
G05
G00X147.5Y-58.5
M15
G01X146.5Y-58.5
M16
G05
G00X147.5Y-61.04
M15
G01X146.5Y-61.04
M16
G05
G00X147.5Y-63.58
M15
G01X146.5Y-63.58
M16
G05
G00X147.5Y-66.12
M15
G01X146.5Y-66.12
M16
G05
G00X147.5Y-68.66
M15
G01X146.5Y-68.66
M16
G05
G00X147.5Y-71.2
M15
G01X146.5Y-71.2
M16
G05
M30
