%TF.GenerationSoftware,KiCad,Pcbnew,8.0.1*%
%TF.CreationDate,2024-03-23T17:43:50+03:00*%
%TF.ProjectId,AudMix,4175644d-6978-42e6-9b69-6361645f7063,rev?*%
%TF.SameCoordinates,Original*%
%TF.FileFunction,Legend,Top*%
%TF.FilePolarity,Positive*%
%FSLAX46Y46*%
G04 Gerber Fmt 4.6, Leading zero omitted, Abs format (unit mm)*
G04 Created by KiCad (PCBNEW 8.0.1) date 2024-03-23 17:43:50*
%MOMM*%
%LPD*%
G01*
G04 APERTURE LIST*
%ADD10C,0.300000*%
%ADD11C,0.400000*%
%ADD12C,0.150000*%
%ADD13C,0.120000*%
G04 APERTURE END LIST*
D10*
X56000000Y-111500000D02*
X54000000Y-111500000D01*
X56000000Y-99500000D02*
X54000000Y-99500000D01*
X56000000Y-105500000D02*
X54000000Y-105500000D01*
X56000000Y-117500000D02*
X54000000Y-117500000D01*
D11*
X57000000Y-123500000D02*
X53000000Y-123500000D01*
X53000000Y-63500000D02*
X57000000Y-63500000D01*
D10*
X54000000Y-75500000D02*
X56000000Y-75500000D01*
D11*
X53000000Y-93500000D02*
X57000000Y-93500000D01*
D10*
X54000000Y-87500000D02*
X56000000Y-87500000D01*
X54000000Y-81500000D02*
X56000000Y-81500000D01*
X54000000Y-69500000D02*
X56000000Y-69500000D01*
X146000000Y-111500000D02*
X144000000Y-111500000D01*
X146000000Y-99500000D02*
X144000000Y-99500000D01*
X146000000Y-105500000D02*
X144000000Y-105500000D01*
X146000000Y-117500000D02*
X144000000Y-117500000D01*
D11*
X147000000Y-123500000D02*
X143000000Y-123500000D01*
X143000000Y-63500000D02*
X147000000Y-63500000D01*
D10*
X144000000Y-75500000D02*
X146000000Y-75500000D01*
D11*
X143000000Y-93500000D02*
X147000000Y-93500000D01*
D10*
X144000000Y-87500000D02*
X146000000Y-87500000D01*
X144000000Y-81500000D02*
X146000000Y-81500000D01*
X144000000Y-69500000D02*
X146000000Y-69500000D01*
X132000000Y-111500000D02*
X130000000Y-111500000D01*
X132000000Y-99500000D02*
X130000000Y-99500000D01*
X132000000Y-105500000D02*
X130000000Y-105500000D01*
X132000000Y-117500000D02*
X130000000Y-117500000D01*
D11*
X133000000Y-123500000D02*
X129000000Y-123500000D01*
X129000000Y-63500000D02*
X133000000Y-63500000D01*
D10*
X130000000Y-75500000D02*
X132000000Y-75500000D01*
D11*
X129000000Y-93500000D02*
X133000000Y-93500000D01*
D10*
X130000000Y-87500000D02*
X132000000Y-87500000D01*
X130000000Y-81500000D02*
X132000000Y-81500000D01*
X130000000Y-69500000D02*
X132000000Y-69500000D01*
X127000000Y-111500000D02*
X125000000Y-111500000D01*
X127000000Y-99500000D02*
X125000000Y-99500000D01*
X127000000Y-105500000D02*
X125000000Y-105500000D01*
X127000000Y-117500000D02*
X125000000Y-117500000D01*
D11*
X128000000Y-123500000D02*
X124000000Y-123500000D01*
X124000000Y-63500000D02*
X128000000Y-63500000D01*
D10*
X125000000Y-75500000D02*
X127000000Y-75500000D01*
D11*
X124000000Y-93500000D02*
X128000000Y-93500000D01*
D10*
X125000000Y-87500000D02*
X127000000Y-87500000D01*
X125000000Y-81500000D02*
X127000000Y-81500000D01*
X125000000Y-69500000D02*
X127000000Y-69500000D01*
X113000000Y-111500000D02*
X111000000Y-111500000D01*
X113000000Y-99500000D02*
X111000000Y-99500000D01*
X113000000Y-105500000D02*
X111000000Y-105500000D01*
X113000000Y-117500000D02*
X111000000Y-117500000D01*
D11*
X114000000Y-123500000D02*
X110000000Y-123500000D01*
X110000000Y-63500000D02*
X114000000Y-63500000D01*
D10*
X111000000Y-75500000D02*
X113000000Y-75500000D01*
D11*
X110000000Y-93500000D02*
X114000000Y-93500000D01*
D10*
X111000000Y-87500000D02*
X113000000Y-87500000D01*
X111000000Y-81500000D02*
X113000000Y-81500000D01*
X111000000Y-69500000D02*
X113000000Y-69500000D01*
X108000000Y-111500000D02*
X106000000Y-111500000D01*
X108000000Y-99500000D02*
X106000000Y-99500000D01*
X108000000Y-105500000D02*
X106000000Y-105500000D01*
X108000000Y-117500000D02*
X106000000Y-117500000D01*
D11*
X109000000Y-123500000D02*
X105000000Y-123500000D01*
X105000000Y-63500000D02*
X109000000Y-63500000D01*
D10*
X106000000Y-75500000D02*
X108000000Y-75500000D01*
D11*
X105000000Y-93500000D02*
X109000000Y-93500000D01*
D10*
X106000000Y-87500000D02*
X108000000Y-87500000D01*
X106000000Y-81500000D02*
X108000000Y-81500000D01*
X106000000Y-69500000D02*
X108000000Y-69500000D01*
X94000000Y-111500000D02*
X92000000Y-111500000D01*
X94000000Y-99500000D02*
X92000000Y-99500000D01*
X94000000Y-105500000D02*
X92000000Y-105500000D01*
X94000000Y-117500000D02*
X92000000Y-117500000D01*
D11*
X95000000Y-123500000D02*
X91000000Y-123500000D01*
X91000000Y-63500000D02*
X95000000Y-63500000D01*
D10*
X92000000Y-75500000D02*
X94000000Y-75500000D01*
D11*
X91000000Y-93500000D02*
X95000000Y-93500000D01*
D10*
X92000000Y-87500000D02*
X94000000Y-87500000D01*
X92000000Y-81500000D02*
X94000000Y-81500000D01*
X92000000Y-69500000D02*
X94000000Y-69500000D01*
X89000000Y-111500000D02*
X87000000Y-111500000D01*
X89000000Y-99500000D02*
X87000000Y-99500000D01*
X89000000Y-105500000D02*
X87000000Y-105500000D01*
X89000000Y-117500000D02*
X87000000Y-117500000D01*
D11*
X90000000Y-123500000D02*
X86000000Y-123500000D01*
X86000000Y-63500000D02*
X90000000Y-63500000D01*
D10*
X87000000Y-75500000D02*
X89000000Y-75500000D01*
D11*
X86000000Y-93500000D02*
X90000000Y-93500000D01*
D10*
X87000000Y-87500000D02*
X89000000Y-87500000D01*
X87000000Y-81500000D02*
X89000000Y-81500000D01*
X87000000Y-69500000D02*
X89000000Y-69500000D01*
X75000000Y-111500000D02*
X73000000Y-111500000D01*
X75000000Y-99500000D02*
X73000000Y-99500000D01*
X75000000Y-105500000D02*
X73000000Y-105500000D01*
X75000000Y-117500000D02*
X73000000Y-117500000D01*
D11*
X76000000Y-123500000D02*
X72000000Y-123500000D01*
X72000000Y-63500000D02*
X76000000Y-63500000D01*
D10*
X73000000Y-75500000D02*
X75000000Y-75500000D01*
D11*
X72000000Y-93500000D02*
X76000000Y-93500000D01*
D10*
X73000000Y-87500000D02*
X75000000Y-87500000D01*
X73000000Y-81500000D02*
X75000000Y-81500000D01*
X73000000Y-69500000D02*
X75000000Y-69500000D01*
D11*
X71000000Y-123500000D02*
X67000000Y-123500000D01*
D10*
X70000000Y-111500000D02*
X68000000Y-111500000D01*
X70000000Y-99500000D02*
X68000000Y-99500000D01*
X70000000Y-105500000D02*
X68000000Y-105500000D01*
X70000000Y-117500000D02*
X68000000Y-117500000D01*
D11*
X67000000Y-63500000D02*
X71000000Y-63500000D01*
D10*
X68000000Y-69500000D02*
X70000000Y-69500000D01*
X68000000Y-87500000D02*
X70000000Y-87500000D01*
D11*
X67000000Y-93500000D02*
X71000000Y-93500000D01*
D10*
X68000000Y-81500000D02*
X70000000Y-81500000D01*
X68000000Y-75500000D02*
X70000000Y-75500000D01*
D12*
X144500000Y-130000000D02*
X150000000Y-130000000D01*
X150000000Y-140000000D01*
X144500000Y-140000000D01*
X144500000Y-130000000D01*
X136500000Y-134500000D02*
X150000000Y-134500000D01*
X150000000Y-140000000D01*
X136500000Y-140000000D01*
X136500000Y-134500000D01*
X121500000Y-129000000D02*
X136500000Y-129000000D01*
X136500000Y-140000000D01*
X121500000Y-140000000D01*
X121500000Y-129000000D01*
X50000000Y-131500000D02*
X81000000Y-131500000D01*
X81000000Y-140000000D01*
X50000000Y-140000000D01*
X50000000Y-131500000D01*
X50000000Y-129200000D02*
X64500000Y-129200000D01*
X64500000Y-140000000D01*
X50000000Y-140000000D01*
X50000000Y-129200000D01*
X50000000Y-50000000D02*
X64000000Y-50000000D01*
X64000000Y-54500000D01*
X50000000Y-54500000D01*
X50000000Y-50000000D01*
X50000000Y-50000000D02*
X55500000Y-50000000D01*
X55500000Y-58500000D01*
X50000000Y-58500000D01*
X50000000Y-50000000D01*
X144500000Y-50000000D02*
X150000000Y-50000000D01*
X150000000Y-56000000D01*
X144500000Y-56000000D01*
X144500000Y-50000000D01*
X137249405Y-55554819D02*
X137249405Y-54554819D01*
X137249405Y-54554819D02*
X137487500Y-54554819D01*
X137487500Y-54554819D02*
X137630357Y-54602438D01*
X137630357Y-54602438D02*
X137725595Y-54697676D01*
X137725595Y-54697676D02*
X137773214Y-54792914D01*
X137773214Y-54792914D02*
X137820833Y-54983390D01*
X137820833Y-54983390D02*
X137820833Y-55126247D01*
X137820833Y-55126247D02*
X137773214Y-55316723D01*
X137773214Y-55316723D02*
X137725595Y-55411961D01*
X137725595Y-55411961D02*
X137630357Y-55507200D01*
X137630357Y-55507200D02*
X137487500Y-55554819D01*
X137487500Y-55554819D02*
X137249405Y-55554819D01*
X138201786Y-54650057D02*
X138249405Y-54602438D01*
X138249405Y-54602438D02*
X138344643Y-54554819D01*
X138344643Y-54554819D02*
X138582738Y-54554819D01*
X138582738Y-54554819D02*
X138677976Y-54602438D01*
X138677976Y-54602438D02*
X138725595Y-54650057D01*
X138725595Y-54650057D02*
X138773214Y-54745295D01*
X138773214Y-54745295D02*
X138773214Y-54840533D01*
X138773214Y-54840533D02*
X138725595Y-54983390D01*
X138725595Y-54983390D02*
X138154167Y-55554819D01*
X138154167Y-55554819D02*
X138773214Y-55554819D01*
D13*
%TO.C,D2*%
X134337500Y-52225000D02*
X134337500Y-53375000D01*
X141637500Y-52225000D02*
X134337500Y-52225000D01*
X141637500Y-57725000D02*
X134337500Y-57725000D01*
%TD*%
M02*
